0
SECTION
2
HEADER
9
$INSUNITS
70
4
9
$ACADVER
1
AC1014
9
$HANDSEED
5
FFFF
0
ENDSEC
0
SECTION
2
TABLES
0
TABLE
2
VPORT
5
8
100
AcDbSymbolTable
0
ENDTAB
0
TABLE
2
LTYPE
5
5
100
AcDbSymbolTable
0
LTYPE
5
14
100
AcDbSymbolTableRecord
100
AcDbLinetypeTableRecord
2
BYBLOCK
70
0
0
LTYPE
5
15
100
AcDbSymbolTableRecord
100
AcDbLinetypeTableRecord
2
BYLAYER
70
0
0
ENDTAB
0
TABLE
2
LAYER
5
2
100
AcDbSymbolTable
70
2
0
LAYER
5
50
100
AcDbSymbolTableRecord
100
AcDbLayerTableRecord
2
0
70
0
6
CONTINUOUS
0
ENDTAB
0
TABLE
2
STYLE
5
3
100
AcDbSymbolTable
70
1
0
STYLE
5
11
100
AcDbSymbolTableRecord
100
AcDbTextStyleTableRecord
2
STANDARD
70
0
0
ENDTAB
0
TABLE
2
VIEW
5
6
100
AcDbSymbolTable
70
0
0
ENDTAB
0
TABLE
2
UCS
5
7
100
AcDbSymbolTable
70
0
0
ENDTAB
0
TABLE
2
APPID
5
9
100
AcDbSymbolTable
70
2
0
APPID
5
12
100
AcDbSymbolTableRecord
100
AcDbRegAppTableRecord
2
ACAD
70
0
0
ENDTAB
0
TABLE
2
DIMSTYLE
5
A
100
AcDbSymbolTable
70
1
0
ENDTAB
0
TABLE
2
BLOCK_RECORD
5
1
100
AcDbSymbolTable
70
1
0
BLOCK_RECORD
5
1F
100
AcDbSymbolTableRecord
100
AcDbBlockTableRecord
2
*MODEL_SPACE
0
BLOCK_RECORD
5
1B
100
AcDbSymbolTableRecord
100
AcDbBlockTableRecord
2
*PAPER_SPACE
0
ENDTAB
0
ENDSEC
0
SECTION
2
BLOCKS
0
BLOCK
5
20
100
AcDbEntity
100
AcDbBlockBegin
2
*MODEL_SPACE
0
ENDBLK
5
21
100
AcDbEntity
100
AcDbBlockEnd
0
BLOCK
5
1C
100
AcDbEntity
100
AcDbBlockBegin
2
*PAPER_SPACE
0
ENDBLK
5
1D
100
AcDbEntity
100
AcDbBlockEnd
0
ENDSEC
0
SECTION
2
ENTITIES
0
LWPOLYLINE
5
100
100
AcDbEntity
8
0
100
AcDbPolyline
90
8
70
1
43
0.0
10
34.998999999999555
20
-0.047000228881715067
10
-34.99900000000045
20
-0.04700022888183053
42
0.4142135623730952
10
-38.989000000000445
20
-4.0370002288818396
10
-38.989000000000381
20
-38.983000228881842
42
0.41421356237309503
10
-34.999000000000379
20
-42.973000228881837
10
34.998999999999626
20
-42.973000228881716
42
0.41421356237309503
10
38.988999999999621
20
-38.983000228881707
10
38.988999999999557
20
-4.0370002288817064
42
0.41421356237309492
0
CIRCLE
5
101
100
AcDbEntity
8
0
100
AcDbCircle
10
35.051999999999623
20
-39.290000228881716
30
-1.3351433503228094e-06
40
2.9209999999999998
210
3.1342197299188955e-24
220
-1.9041459449200051e-24
230
1
0
CIRCLE
5
102
100
AcDbEntity
8
0
100
AcDbCircle
10
-35.052000000000447
20
-3.7300002288818312
30
-1.3351433503228094e-06
40
2.9209999999999998
210
3.1342197299188955e-24
220
-1.9041459449200051e-24
230
1
0
CIRCLE
5
103
100
AcDbEntity
8
0
100
AcDbCircle
10
35.051999999999559
20
-3.7300002288817113
30
-1.3351433503228094e-06
40
2.9209999999999998
210
3.1342197299188955e-24
220
-1.9041459449200051e-24
230
1
0
CIRCLE
5
104
100
AcDbEntity
8
0
100
AcDbCircle
10
-35.052000000000383
20
-39.290000228881837
30
-1.3351433503228094e-06
40
2.9209999999999998
210
3.1342197299188955e-24
220
-1.9041459449200051e-24
230
1
0
LWPOLYLINE
5
105
100
AcDbEntity
8
0
100
AcDbPolyline
90
4
70
1
43
0.0
10
-18.389000000000372
20
-19.647000228881776
10
20.110999999999628
20
-19.647000228881776
10
20.110999999999628
20
-28.947000228881784
10
20.110999999999628
20
-19.647000228881776
0
LWPOLYLINE
5
106
100
AcDbEntity
8
0
100
AcDbPolyline
90
4
70
1
43
0.0
10
20.110999999999628
20
-28.947000228881784
10
-18.389000000000372
20
-28.947000228881777
10
-18.389000000000372
20
-19.647000228881776
10
-18.389000000000372
20
-28.947000228881784
0
LWPOLYLINE
5
107
100
AcDbEntity
8
0
100
AcDbPolyline
90
8
70
1
43
0.0
10
-34.989000000000452
20
-0.04700022888183053
10
34.988999999999535
20
-0.047000228881716177
42
-0.41421356237309453
10
38.988999999999557
20
-4.0470002288817071
10
38.988999999999621
20
-38.973000228881709
42
-0.4142135623730947
10
34.988999999999628
20
-42.973000228881716
10
-34.989000000000367
20
-42.973000228881837
42
-0.41421356237309598
10
-38.989000000000381
20
-38.973000228881844
10
-38.989000000000445
20
-4.047000228881835
42
-0.41421356237309459
0
CIRCLE
5
108
100
AcDbEntity
8
0
100
AcDbCircle
10
-35.052000000000447
20
-3.7300002288818312
30
-1.3351433503228094e-06
40
2.0668014024325121
210
0
220
0
230
1
0
CIRCLE
5
109
100
AcDbEntity
8
0
100
AcDbCircle
10
-35.052000000000383
20
-39.290000228881837
30
-1.3351433503228094e-06
40
1.9799889474339505
210
0
220
0
230
1
0
CIRCLE
5
110
100
AcDbEntity
8
0
100
AcDbCircle
10
35.051999999999623
20
-39.290000228881716
30
-1.3351433503228094e-06
40
2.1072650412115479
210
0
220
0
230
1
0
CIRCLE
5
111
100
AcDbEntity
8
0
100
AcDbCircle
10
35.051999999999559
20
-3.7300002288817113
30
-1.3351433503228094e-06
40
1.9363306235229745
210
0
220
0
230
1
0
ENDSEC
0
SECTION
2
OBJECTS
0
DICTIONARY
5
C
100
AcDbDictionary
3
ACAD_GROUP
350
D
3
ACAD_MLINESTYLE
350
17
0
DICTIONARY
5
D
100
AcDbDictionary
0
DICTIONARY
5
1A
330
C
100
AcDbDictionary
0
DICTIONARY
5
17
100
AcDbDictionary
0
ENDSEC
0
EOF
