%TF.GenerationSoftware,KiCad,Pcbnew,7.0.5*%
%TF.CreationDate,2023-12-19T17:12:35-05:00*%
%TF.ProjectId,biphasic_revision_b,62697068-6173-4696-935f-726576697369,rev?*%
%TF.SameCoordinates,Original*%
%TF.FileFunction,Copper,L1,Top*%
%TF.FilePolarity,Positive*%
%FSLAX46Y46*%
G04 Gerber Fmt 4.6, Leading zero omitted, Abs format (unit mm)*
G04 Created by KiCad (PCBNEW 7.0.5) date 2023-12-19 17:12:35*
%MOMM*%
%LPD*%
G01*
G04 APERTURE LIST*
G04 Aperture macros list*
%AMRoundRect*
0 Rectangle with rounded corners*
0 $1 Rounding radius*
0 $2 $3 $4 $5 $6 $7 $8 $9 X,Y pos of 4 corners*
0 Add a 4 corners polygon primitive as box body*
4,1,4,$2,$3,$4,$5,$6,$7,$8,$9,$2,$3,0*
0 Add four circle primitives for the rounded corners*
1,1,$1+$1,$2,$3*
1,1,$1+$1,$4,$5*
1,1,$1+$1,$6,$7*
1,1,$1+$1,$8,$9*
0 Add four rect primitives between the rounded corners*
20,1,$1+$1,$2,$3,$4,$5,0*
20,1,$1+$1,$4,$5,$6,$7,0*
20,1,$1+$1,$6,$7,$8,$9,0*
20,1,$1+$1,$8,$9,$2,$3,0*%
G04 Aperture macros list end*
%TA.AperFunction,ComponentPad*%
%ADD10R,1.600000X1.600000*%
%TD*%
%TA.AperFunction,ComponentPad*%
%ADD11O,1.600000X1.600000*%
%TD*%
%TA.AperFunction,ComponentPad*%
%ADD12R,3.500000X3.500000*%
%TD*%
%TA.AperFunction,ComponentPad*%
%ADD13RoundRect,0.750000X-1.000000X0.750000X-1.000000X-0.750000X1.000000X-0.750000X1.000000X0.750000X0*%
%TD*%
%TA.AperFunction,ComponentPad*%
%ADD14RoundRect,0.875000X-0.875000X0.875000X-0.875000X-0.875000X0.875000X-0.875000X0.875000X0.875000X0*%
%TD*%
%TA.AperFunction,ComponentPad*%
%ADD15R,1.500000X1.500000*%
%TD*%
%TA.AperFunction,ComponentPad*%
%ADD16C,1.500000*%
%TD*%
%TA.AperFunction,ComponentPad*%
%ADD17R,1.905000X2.000000*%
%TD*%
%TA.AperFunction,ComponentPad*%
%ADD18O,1.905000X2.000000*%
%TD*%
%TA.AperFunction,SMDPad,CuDef*%
%ADD19RoundRect,0.250000X-0.312500X-0.625000X0.312500X-0.625000X0.312500X0.625000X-0.312500X0.625000X0*%
%TD*%
%TA.AperFunction,SMDPad,CuDef*%
%ADD20RoundRect,0.250000X-0.625000X0.312500X-0.625000X-0.312500X0.625000X-0.312500X0.625000X0.312500X0*%
%TD*%
%TA.AperFunction,SMDPad,CuDef*%
%ADD21RoundRect,0.250000X0.312500X0.625000X-0.312500X0.625000X-0.312500X-0.625000X0.312500X-0.625000X0*%
%TD*%
%TA.AperFunction,ComponentPad*%
%ADD22C,1.600000*%
%TD*%
%TA.AperFunction,ComponentPad*%
%ADD23R,3.000000X3.000000*%
%TD*%
%TA.AperFunction,ComponentPad*%
%ADD24C,3.000000*%
%TD*%
%TA.AperFunction,ViaPad*%
%ADD25C,0.800000*%
%TD*%
%TA.AperFunction,ViaPad*%
%ADD26C,0.600000*%
%TD*%
%TA.AperFunction,Conductor*%
%ADD27C,0.200000*%
%TD*%
%TA.AperFunction,Conductor*%
%ADD28C,1.000000*%
%TD*%
%TA.AperFunction,Conductor*%
%ADD29C,0.500000*%
%TD*%
G04 APERTURE END LIST*
D10*
%TO.P,D1,1,K*%
%TO.N,AIN3*%
X171720000Y-86400000D03*
D11*
%TO.P,D1,2,A*%
%TO.N,GND*%
X179340000Y-86400000D03*
%TD*%
D10*
%TO.P,D2,1,K*%
%TO.N,AIN2*%
X171670000Y-92000000D03*
D11*
%TO.P,D2,2,A*%
%TO.N,GND*%
X179290000Y-92000000D03*
%TD*%
D10*
%TO.P,D3,1,K*%
%TO.N,AIN1*%
X171670000Y-97350000D03*
D11*
%TO.P,D3,2,A*%
%TO.N,GND*%
X179290000Y-97350000D03*
%TD*%
D10*
%TO.P,D4,1,K*%
%TO.N,AIN0*%
X171740000Y-102530000D03*
D11*
%TO.P,D4,2,A*%
%TO.N,GND*%
X179360000Y-102530000D03*
%TD*%
D12*
%TO.P,J1,1*%
%TO.N,VPP*%
X165550000Y-52350000D03*
D13*
%TO.P,J1,2*%
%TO.N,GND*%
X165550000Y-46350000D03*
D14*
%TO.P,J1,3*%
%TO.N,N/C*%
X160850000Y-49350000D03*
%TD*%
D15*
%TO.P,Q1,1,C*%
%TO.N,Net-(Q1-C)*%
X162680000Y-63935000D03*
D16*
%TO.P,Q1,2,B*%
%TO.N,Net-(Q1-B)*%
X165220000Y-63935000D03*
%TO.P,Q1,3,E*%
%TO.N,GND*%
X167760000Y-63935000D03*
%TD*%
D17*
%TO.P,Q2,1,G*%
%TO.N,Net-(Q1-C)*%
X168740000Y-68255000D03*
D18*
%TO.P,Q2,2,D*%
%TO.N,SP*%
X166200000Y-68255000D03*
%TO.P,Q2,3,S*%
%TO.N,VPP*%
X163660000Y-68255000D03*
%TD*%
D17*
%TO.P,Q3,1,G*%
%TO.N,LOGIC2*%
X168750000Y-74735000D03*
D18*
%TO.P,Q3,2,D*%
%TO.N,SP*%
X166210000Y-74735000D03*
%TO.P,Q3,3,S*%
%TO.N,GND*%
X163670000Y-74735000D03*
%TD*%
D15*
%TO.P,Q4,1,C*%
%TO.N,Net-(Q4-C)*%
X177910000Y-64045000D03*
D16*
%TO.P,Q4,2,B*%
%TO.N,Net-(Q4-B)*%
X180450000Y-64045000D03*
%TO.P,Q4,3,E*%
%TO.N,GND*%
X182990000Y-64045000D03*
%TD*%
D17*
%TO.P,Q5,1,G*%
%TO.N,Net-(Q4-C)*%
X181230000Y-68215000D03*
D18*
%TO.P,Q5,2,D*%
%TO.N,SN*%
X178690000Y-68215000D03*
%TO.P,Q5,3,S*%
%TO.N,VPP*%
X176150000Y-68215000D03*
%TD*%
D17*
%TO.P,Q6,1,G*%
%TO.N,LOGIC1*%
X181090000Y-74795000D03*
D18*
%TO.P,Q6,2,D*%
%TO.N,SN*%
X178550000Y-74795000D03*
%TO.P,Q6,3,S*%
%TO.N,GND*%
X176010000Y-74795000D03*
%TD*%
D19*
%TO.P,R1,1*%
%TO.N,Net-(Q1-B)*%
X168812500Y-59135000D03*
%TO.P,R1,2*%
%TO.N,LOGIC1*%
X171737500Y-59135000D03*
%TD*%
D20*
%TO.P,R2,1*%
%TO.N,VPP*%
X159470000Y-60822500D03*
%TO.P,R2,2*%
%TO.N,Net-(Q1-C)*%
X159470000Y-63747500D03*
%TD*%
D21*
%TO.P,R3,1*%
%TO.N,Net-(Q4-B)*%
X179012500Y-58350000D03*
%TO.P,R3,2*%
%TO.N,LOGIC2*%
X176087500Y-58350000D03*
%TD*%
D19*
%TO.P,R4,1*%
%TO.N,VPP*%
X173047500Y-64095000D03*
%TO.P,R4,2*%
%TO.N,Net-(Q4-C)*%
X175972500Y-64095000D03*
%TD*%
D21*
%TO.P,R5,1*%
%TO.N,VDD*%
X150072500Y-56370000D03*
%TO.P,R5,2*%
%TO.N,Net-(A1-~{RESET}-Pad3)*%
X147147500Y-56370000D03*
%TD*%
%TO.P,R6,1*%
%TO.N,VDD*%
X150012500Y-63350000D03*
%TO.P,R6,2*%
%TO.N,Net-(A1-SCL{slash}A5)*%
X147087500Y-63350000D03*
%TD*%
%TO.P,R7,1*%
%TO.N,VDD*%
X150047500Y-59590000D03*
%TO.P,R7,2*%
%TO.N,Net-(A1-SDA{slash}A4)*%
X147122500Y-59590000D03*
%TD*%
D22*
%TO.P,U3,1,VDD*%
%TO.N,VDD*%
X141145000Y-101509000D03*
%TO.P,U3,2,GND*%
%TO.N,GND*%
X143685000Y-101509000D03*
%TO.P,U3,3,SCL*%
%TO.N,Net-(A1-SCL{slash}A5)*%
X146225000Y-101509000D03*
%TO.P,U3,4,SDA*%
%TO.N,Net-(A1-SDA{slash}A4)*%
X148765000Y-101509000D03*
%TO.P,U3,5,ADDR*%
%TO.N,GND*%
X151305000Y-101509000D03*
%TO.P,U3,6,ALERT/RDY*%
%TO.N,unconnected-(U3-ALERT{slash}RDY-Pad6)*%
X153845000Y-101509000D03*
%TO.P,U3,7,AIN0*%
%TO.N,AIN0*%
X156385000Y-101509000D03*
%TO.P,U3,8,AIN1*%
%TO.N,AIN1*%
X158925000Y-101509000D03*
%TO.P,U3,9,AIN2*%
%TO.N,AIN2*%
X161465000Y-101509000D03*
%TO.P,U3,10,AIN3*%
%TO.N,AIN3*%
X164005000Y-101509000D03*
%TD*%
D21*
%TO.P,R8,1*%
%TO.N,Net-(Biphasic_Out1-Pin_4)*%
X163062500Y-81155000D03*
%TO.P,R8,2*%
%TO.N,TX*%
X160137500Y-81155000D03*
%TD*%
D23*
%TO.P,J3,1,Pin_1*%
%TO.N,SP*%
X163470000Y-109000000D03*
D24*
%TO.P,J3,2,Pin_2*%
%TO.N,SN*%
X168550000Y-109000000D03*
%TO.P,J3,3,Pin_3*%
%TO.N,RX*%
X173630000Y-109000000D03*
%TO.P,J3,4,Pin_4*%
%TO.N,Net-(J3-Pin_4)*%
X178710000Y-109000000D03*
%TO.P,J3,5,Pin_5*%
%TO.N,GND*%
X183790000Y-109000000D03*
%TD*%
D10*
%TO.P,A1,1,TX1*%
%TO.N,TX*%
X156000000Y-81135000D03*
D11*
%TO.P,A1,2,RX1*%
%TO.N,RX*%
X156000000Y-78595000D03*
%TO.P,A1,3,~{RESET}*%
%TO.N,Net-(A1-~{RESET}-Pad3)*%
X156000000Y-76055000D03*
%TO.P,A1,4,GND*%
%TO.N,GND*%
X156000000Y-73515000D03*
%TO.P,A1,5,D2*%
%TO.N,unconnected-(A1-D2-Pad5)*%
X156000000Y-70975000D03*
%TO.P,A1,6,D3*%
%TO.N,unconnected-(A1-D3-Pad6)*%
X156000000Y-68435000D03*
%TO.P,A1,7,D4*%
%TO.N,unconnected-(A1-D4-Pad7)*%
X156000000Y-65895000D03*
%TO.P,A1,8,D5*%
%TO.N,unconnected-(A1-D5-Pad8)*%
X156000000Y-63355000D03*
%TO.P,A1,9,D6*%
%TO.N,unconnected-(A1-D6-Pad9)*%
X156000000Y-60815000D03*
%TO.P,A1,10,D7*%
%TO.N,unconnected-(A1-D7-Pad10)*%
X156000000Y-58275000D03*
%TO.P,A1,11,D8*%
%TO.N,LOGIC2*%
X156000000Y-55735000D03*
%TO.P,A1,12,D9*%
%TO.N,LOGIC1*%
X156000000Y-53195000D03*
%TO.P,A1,13,D10*%
%TO.N,unconnected-(A1-D10-Pad13)*%
X156000000Y-50655000D03*
%TO.P,A1,14,MOSI*%
%TO.N,unconnected-(A1-MOSI-Pad14)*%
X156000000Y-48115000D03*
%TO.P,A1,15,MISO*%
%TO.N,unconnected-(A1-MISO-Pad15)*%
X156000000Y-45575000D03*
%TO.P,A1,16,SCK*%
%TO.N,unconnected-(A1-SCK-Pad16)*%
X140760000Y-45575000D03*
%TO.P,A1,17,3V3*%
%TO.N,unconnected-(A1-3V3-Pad17)*%
X140760000Y-48115000D03*
%TO.P,A1,18,AREF*%
%TO.N,unconnected-(A1-AREF-Pad18)*%
X140760000Y-50655000D03*
%TO.P,A1,19,A0*%
%TO.N,unconnected-(A1-A0-Pad19)*%
X140760000Y-53195000D03*
%TO.P,A1,20,A1*%
%TO.N,unconnected-(A1-A1-Pad20)*%
X140760000Y-55735000D03*
%TO.P,A1,21,A2*%
%TO.N,unconnected-(A1-A2-Pad21)*%
X140760000Y-58275000D03*
%TO.P,A1,22,A3*%
%TO.N,unconnected-(A1-A3-Pad22)*%
X140760000Y-60815000D03*
%TO.P,A1,23,SDA/A4*%
%TO.N,Net-(A1-SDA{slash}A4)*%
X140760000Y-63355000D03*
%TO.P,A1,24,SCL/A5*%
%TO.N,Net-(A1-SCL{slash}A5)*%
X140760000Y-65895000D03*
%TO.P,A1,25,A6*%
%TO.N,unconnected-(A1-A6-Pad25)*%
X140760000Y-68435000D03*
%TO.P,A1,26,A7*%
%TO.N,unconnected-(A1-A7-Pad26)*%
X140760000Y-70975000D03*
%TO.P,A1,27,+5V*%
%TO.N,VDD*%
X140760000Y-73515000D03*
%TO.P,A1,28,~{RESET}*%
%TO.N,unconnected-(A1-~{RESET}-Pad28)*%
X140760000Y-76055000D03*
%TO.P,A1,29,GND*%
%TO.N,GND*%
X140760000Y-78595000D03*
%TO.P,A1,30,VIN*%
%TO.N,VPP*%
X140760000Y-81135000D03*
%TD*%
D23*
%TO.P,Analog_In1,1,Pin_1*%
%TO.N,AIN0*%
X141390000Y-109000000D03*
D24*
%TO.P,Analog_In1,2,Pin_2*%
%TO.N,AIN1*%
X146470000Y-109000000D03*
%TO.P,Analog_In1,3,Pin_3*%
%TO.N,AIN2*%
X151550000Y-109000000D03*
%TO.P,Analog_In1,4,Pin_4*%
%TO.N,AIN3*%
X156630000Y-109000000D03*
%TD*%
D25*
%TO.N,LOGIC1*%
X171870000Y-53505000D03*
D26*
%TO.N,Net-(A1-SCL{slash}A5)*%
X144963000Y-65306800D03*
%TD*%
D27*
%TO.N,VDD*%
X150048000Y-59590000D02*
X150048000Y-58374000D01*
X150012000Y-61953100D02*
X150012000Y-59625000D01*
X140760000Y-73515000D02*
X140622000Y-73377000D01*
X145901000Y-55833100D02*
X145901000Y-57242900D01*
X139654000Y-62851500D02*
X139654000Y-71445200D01*
X141059000Y-62085000D02*
X140421000Y-62085000D01*
X146593000Y-55140500D02*
X145901000Y-55833100D01*
X145901000Y-57242900D02*
X141059000Y-62085000D01*
X150072000Y-56370000D02*
X148843000Y-55140500D01*
X150047000Y-59590000D02*
X150012000Y-59625000D01*
X150012000Y-61953100D02*
X150012500Y-61953600D01*
X140622000Y-72413100D02*
X140622000Y-73377000D01*
X150012000Y-63350000D02*
X150012000Y-61953100D01*
X148843000Y-55140500D02*
X146593000Y-55140500D01*
X150072000Y-56373800D02*
X150072000Y-56370000D01*
X150048000Y-58374000D02*
X150072000Y-58349000D01*
X139654000Y-71445200D02*
X140622000Y-72413100D01*
X150048000Y-59590000D02*
X150047500Y-59590000D01*
X150012500Y-61953600D02*
X150012500Y-63350000D01*
X150072000Y-56370000D02*
X150072500Y-56370000D01*
X140421000Y-62085000D02*
X139654000Y-62851500D01*
X150047500Y-59590000D02*
X150047000Y-59590000D01*
X150072000Y-58349000D02*
X150072000Y-56373800D01*
%TO.N,AIN0*%
X156385000Y-101509000D02*
X155565100Y-102328900D01*
X147651600Y-104540300D02*
X155565100Y-104540300D01*
X141390000Y-109000000D02*
X143191900Y-109000000D01*
X171740000Y-108896100D02*
X171740000Y-102530000D01*
X143191900Y-109000000D02*
X147651600Y-104540300D01*
X168910300Y-111725800D02*
X171740000Y-108896100D01*
X162750600Y-111725800D02*
X168910300Y-111725800D01*
X155565100Y-102328900D02*
X155565100Y-104540300D01*
X155565100Y-104540300D02*
X162750600Y-111725800D01*
%TO.N,TX*%
X156000000Y-81135000D02*
X160117500Y-81135000D01*
X160117500Y-81135000D02*
X160118000Y-81135000D01*
X160117500Y-81135000D02*
X160137500Y-81155000D01*
D28*
%TO.N,SP*%
X166210000Y-108175000D02*
X164840000Y-109545000D01*
D27*
X166210000Y-73392500D02*
X166210000Y-74735000D01*
X164015000Y-109545000D02*
X163470000Y-109000000D01*
D28*
X166200000Y-68255000D02*
X166200000Y-73382500D01*
X166200000Y-73382500D02*
X166200000Y-74725000D01*
D27*
X166200000Y-73382500D02*
X166210000Y-73392500D01*
X164840000Y-109545000D02*
X164015000Y-109545000D01*
D28*
X166210000Y-74735000D02*
X166210000Y-108175000D01*
D27*
%TO.N,SN*%
X178690000Y-71435000D02*
X178550000Y-71575000D01*
X178550000Y-71575000D02*
X178550000Y-74795000D01*
D28*
X178550000Y-74795000D02*
X168550000Y-84795000D01*
X168550000Y-84795000D02*
X168550000Y-109000000D01*
X178690000Y-71435000D02*
X178690000Y-74655000D01*
X178690000Y-68215000D02*
X178690000Y-71435000D01*
D29*
%TO.N,LOGIC2*%
X171550000Y-62887800D02*
X174736000Y-59701800D01*
D27*
X176087500Y-58350000D02*
X176087700Y-58350200D01*
X175412000Y-59025900D02*
X176087700Y-58350200D01*
D29*
X176088000Y-58350300D02*
X174736000Y-59701800D01*
D27*
X168750000Y-74735000D02*
X168750000Y-74150000D01*
X174736000Y-59701800D02*
X175412000Y-59025900D01*
D29*
X168750000Y-74150000D02*
X171550000Y-71350000D01*
D27*
X175412000Y-59025900D02*
X176088000Y-58350400D01*
D29*
X171550000Y-71350000D02*
X171550000Y-62887800D01*
D27*
X176087700Y-58350200D02*
X176088000Y-58350000D01*
%TO.N,LOGIC1*%
X171737500Y-58527500D02*
X171737500Y-59135000D01*
D29*
X171930000Y-54074300D02*
X171930000Y-58305000D01*
X156000000Y-53195000D02*
X157102000Y-53195000D01*
X171930000Y-53565000D02*
X171930000Y-54074300D01*
X171722500Y-58512500D02*
X171515000Y-58720000D01*
X171930000Y-58305000D02*
X171722500Y-58512500D01*
X159325000Y-55418100D02*
X170586000Y-55418100D01*
X157102000Y-53195000D02*
X159325000Y-55418100D01*
D27*
X171722500Y-58512500D02*
X171737500Y-58527500D01*
D29*
X171870000Y-53505000D02*
X171930000Y-53565000D01*
X170586000Y-55418100D02*
X171930000Y-54074300D01*
D27*
%TO.N,Net-(Q1-C)*%
X160000000Y-64045000D02*
X159767500Y-64045000D01*
X162570000Y-64045000D02*
X162680000Y-63935000D01*
D29*
X160000000Y-64045000D02*
X162570000Y-64045000D01*
D27*
X159767500Y-64045000D02*
X159470000Y-63747500D01*
D29*
X167410000Y-66085000D02*
X167410000Y-66925000D01*
X162680000Y-63935000D02*
X164830000Y-66085000D01*
X167410000Y-66925000D02*
X168740000Y-68255000D01*
X164830000Y-66085000D02*
X167410000Y-66085000D01*
%TO.N,Net-(Q1-B)*%
X165220000Y-61555000D02*
X167640000Y-59135000D01*
X165220000Y-63935000D02*
X165220000Y-61555000D01*
X167640000Y-59135000D02*
X168812000Y-59135000D01*
D27*
X168812000Y-59135000D02*
X168812500Y-59135000D01*
D29*
%TO.N,Net-(Q4-C)*%
X177910000Y-64895000D02*
X181230000Y-68215000D01*
X176022500Y-64045000D02*
X176022000Y-64045000D01*
X177910000Y-64045000D02*
X176022500Y-64045000D01*
D27*
X176022500Y-64045000D02*
X175972500Y-64095000D01*
D29*
X177910000Y-64045000D02*
X177910000Y-64895000D01*
D27*
%TO.N,Net-(Q4-B)*%
X179012100Y-58350400D02*
X179012100Y-58350500D01*
X179012500Y-58350000D02*
X179012100Y-58350400D01*
D29*
X180450000Y-59787500D02*
X179012100Y-58350500D01*
D27*
X179012100Y-58350500D02*
X179012000Y-58350400D01*
D29*
X180450000Y-64045000D02*
X180450000Y-59787500D01*
D27*
%TO.N,Net-(A1-~{RESET}-Pad3)*%
X148585000Y-57807500D02*
X148226000Y-57448100D01*
X148226000Y-57448100D02*
X147687000Y-56909100D01*
X147687000Y-56909100D02*
X147148000Y-56370100D01*
X155862000Y-75917000D02*
X155862000Y-74953100D01*
X147686600Y-56909100D02*
X147147500Y-56370000D01*
X148585000Y-67675800D02*
X148585000Y-57807500D01*
X147687000Y-56909100D02*
X147686600Y-56909100D01*
X156000000Y-76055000D02*
X155862000Y-75917000D01*
X155862000Y-74953100D02*
X148585000Y-67675800D01*
%TO.N,Net-(A1-SDA{slash}A4)*%
X146410000Y-59590000D02*
X147122500Y-59590000D01*
X141855000Y-64450000D02*
X140760000Y-63355000D01*
X148765000Y-101509000D02*
X148765000Y-71360000D01*
X145323100Y-60676900D02*
X146410000Y-59590000D01*
X145323100Y-60981900D02*
X145323100Y-60676900D01*
X141855000Y-64450000D02*
X145323100Y-60981900D01*
X148765000Y-71360000D02*
X141855000Y-64450000D01*
X148765000Y-102384000D02*
X148765000Y-101509000D01*
%TO.N,Net-(A1-SCL{slash}A5)*%
X146599000Y-63839200D02*
X147088000Y-63350700D01*
X145550000Y-70350000D02*
X145215000Y-70350000D01*
X146110000Y-64328400D02*
X147087500Y-63350900D01*
X146225000Y-102384000D02*
X146225000Y-101509000D01*
X145131000Y-65306800D02*
X146110000Y-64328400D01*
X147087500Y-63350900D02*
X147088000Y-63350400D01*
X146599000Y-63839200D02*
X146110000Y-64328400D01*
X146225000Y-101509000D02*
X146225000Y-71025000D01*
X147087500Y-63350900D02*
X147087500Y-63350000D01*
X144963000Y-65306800D02*
X145131000Y-65306800D01*
X146225000Y-71025000D02*
X145550000Y-70350000D01*
X146844000Y-63594600D02*
X146599000Y-63839200D01*
X145215000Y-70350000D02*
X140760000Y-65895000D01*
%TD*%
%TA.AperFunction,Conductor*%
%TO.N,VPP*%
G36*
X186271877Y-38485009D02*
G01*
X186318377Y-38538659D01*
X186329770Y-38591245D01*
X186246745Y-84242191D01*
X186226619Y-84310275D01*
X186172879Y-84356671D01*
X186120624Y-84367962D01*
X170722078Y-84353223D01*
X170653977Y-84333156D01*
X170607535Y-84279456D01*
X170597499Y-84209172D01*
X170627054Y-84144619D01*
X170633076Y-84138157D01*
X178430828Y-76340405D01*
X178493141Y-76306379D01*
X178519924Y-76303500D01*
X178671058Y-76303500D01*
X178671062Y-76303500D01*
X178909883Y-76263648D01*
X179138888Y-76185030D01*
X179351830Y-76069792D01*
X179484094Y-75966846D01*
X179550135Y-75940790D01*
X179619780Y-75954575D01*
X179670917Y-76003825D01*
X179679538Y-76022241D01*
X179686610Y-76041202D01*
X179686612Y-76041206D01*
X179686612Y-76041207D01*
X179774238Y-76158261D01*
X179891292Y-76245887D01*
X179891294Y-76245888D01*
X179891296Y-76245889D01*
X179938904Y-76263646D01*
X180028295Y-76296988D01*
X180028303Y-76296990D01*
X180088850Y-76303499D01*
X180088855Y-76303499D01*
X180088862Y-76303500D01*
X180088868Y-76303500D01*
X182091132Y-76303500D01*
X182091138Y-76303500D01*
X182091145Y-76303499D01*
X182091149Y-76303499D01*
X182151696Y-76296990D01*
X182151699Y-76296989D01*
X182151701Y-76296989D01*
X182288704Y-76245889D01*
X182291896Y-76243500D01*
X182405761Y-76158261D01*
X182493387Y-76041207D01*
X182493387Y-76041206D01*
X182493389Y-76041204D01*
X182544489Y-75904201D01*
X182545662Y-75893295D01*
X182550999Y-75843649D01*
X182551000Y-75843632D01*
X182551000Y-73746367D01*
X182550999Y-73746350D01*
X182544490Y-73685803D01*
X182544488Y-73685795D01*
X182507850Y-73587567D01*
X182493389Y-73548796D01*
X182493388Y-73548794D01*
X182493387Y-73548792D01*
X182405761Y-73431738D01*
X182288707Y-73344112D01*
X182288702Y-73344110D01*
X182151704Y-73293011D01*
X182151696Y-73293009D01*
X182091149Y-73286500D01*
X182091138Y-73286500D01*
X180088862Y-73286500D01*
X180088850Y-73286500D01*
X180028303Y-73293009D01*
X180028295Y-73293011D01*
X179891297Y-73344110D01*
X179884878Y-73347615D01*
X179815502Y-73362701D01*
X179748984Y-73337886D01*
X179706441Y-73281047D01*
X179698500Y-73237023D01*
X179698500Y-69666713D01*
X179718502Y-69598592D01*
X179772158Y-69552099D01*
X179842432Y-69541995D01*
X179907012Y-69571489D01*
X179913595Y-69577618D01*
X179914236Y-69578259D01*
X180031292Y-69665887D01*
X180031294Y-69665888D01*
X180031296Y-69665889D01*
X180077598Y-69683159D01*
X180168295Y-69716988D01*
X180168303Y-69716990D01*
X180228850Y-69723499D01*
X180228855Y-69723499D01*
X180228862Y-69723500D01*
X180228868Y-69723500D01*
X182231132Y-69723500D01*
X182231138Y-69723500D01*
X182231145Y-69723499D01*
X182231149Y-69723499D01*
X182291696Y-69716990D01*
X182291699Y-69716989D01*
X182291701Y-69716989D01*
X182428704Y-69665889D01*
X182457182Y-69644571D01*
X182545761Y-69578261D01*
X182633387Y-69461207D01*
X182633387Y-69461206D01*
X182633389Y-69461204D01*
X182684489Y-69324201D01*
X182686701Y-69303632D01*
X182690999Y-69263649D01*
X182691000Y-69263632D01*
X182691000Y-67166367D01*
X182690999Y-67166350D01*
X182684490Y-67105803D01*
X182684488Y-67105795D01*
X182637802Y-66980628D01*
X182633389Y-66968796D01*
X182633388Y-66968794D01*
X182633387Y-66968792D01*
X182545761Y-66851738D01*
X182428707Y-66764112D01*
X182428702Y-66764110D01*
X182291704Y-66713011D01*
X182291696Y-66713009D01*
X182231149Y-66706500D01*
X182231138Y-66706500D01*
X180846371Y-66706500D01*
X180778250Y-66686498D01*
X180757276Y-66669595D01*
X179173036Y-65085355D01*
X179139010Y-65023043D01*
X179144075Y-64952228D01*
X179144076Y-64952226D01*
X179161989Y-64904201D01*
X179161990Y-64904196D01*
X179168499Y-64843649D01*
X179168500Y-64843632D01*
X179168500Y-64808576D01*
X179188502Y-64740455D01*
X179242158Y-64693962D01*
X179312432Y-64683858D01*
X179377012Y-64713352D01*
X179397713Y-64736306D01*
X179482247Y-64857033D01*
X179482254Y-64857042D01*
X179637957Y-65012745D01*
X179637961Y-65012748D01*
X179637962Y-65012749D01*
X179818346Y-65139056D01*
X180017924Y-65232120D01*
X180230629Y-65289115D01*
X180450000Y-65308307D01*
X180669371Y-65289115D01*
X180882076Y-65232120D01*
X181081654Y-65139056D01*
X181262038Y-65012749D01*
X181417749Y-64857038D01*
X181544056Y-64676654D01*
X181546839Y-64670687D01*
X181605805Y-64544232D01*
X181652722Y-64490946D01*
X181720999Y-64471485D01*
X181788959Y-64492026D01*
X181834195Y-64544232D01*
X181893161Y-64670687D01*
X181895944Y-64676654D01*
X181995266Y-64818499D01*
X182022251Y-64857038D01*
X182022254Y-64857042D01*
X182177957Y-65012745D01*
X182177961Y-65012748D01*
X182177962Y-65012749D01*
X182358346Y-65139056D01*
X182557924Y-65232120D01*
X182770629Y-65289115D01*
X182990000Y-65308307D01*
X183209371Y-65289115D01*
X183422076Y-65232120D01*
X183621654Y-65139056D01*
X183802038Y-65012749D01*
X183957749Y-64857038D01*
X184084056Y-64676654D01*
X184177120Y-64477076D01*
X184234115Y-64264371D01*
X184253307Y-64045000D01*
X184234115Y-63825629D01*
X184177120Y-63612924D01*
X184084056Y-63413347D01*
X183957749Y-63232962D01*
X183802038Y-63077251D01*
X183802035Y-63077249D01*
X183723012Y-63021916D01*
X183621654Y-62950944D01*
X183621650Y-62950942D01*
X183422079Y-62857881D01*
X183422073Y-62857879D01*
X183258062Y-62813932D01*
X183209371Y-62800885D01*
X182990000Y-62781693D01*
X182770629Y-62800885D01*
X182557926Y-62857879D01*
X182557920Y-62857881D01*
X182358346Y-62950944D01*
X182177965Y-63077248D01*
X182177959Y-63077253D01*
X182022253Y-63232959D01*
X182022248Y-63232965D01*
X181895942Y-63413348D01*
X181834193Y-63545769D01*
X181787276Y-63599053D01*
X181718999Y-63618514D01*
X181651039Y-63597972D01*
X181605804Y-63545767D01*
X181544057Y-63413348D01*
X181417751Y-63232965D01*
X181417749Y-63232962D01*
X181262038Y-63077251D01*
X181262037Y-63077250D01*
X181262036Y-63077249D01*
X181257822Y-63073713D01*
X181258574Y-63072815D01*
X181217896Y-63021916D01*
X181208500Y-62974171D01*
X181208500Y-59851798D01*
X181209825Y-59833573D01*
X181212052Y-59818342D01*
X181213348Y-59809472D01*
X181208742Y-59757013D01*
X181208500Y-59751499D01*
X181208500Y-59743326D01*
X181208500Y-59743320D01*
X181204737Y-59711137D01*
X181204562Y-59709426D01*
X181197838Y-59632839D01*
X181197836Y-59632834D01*
X181196351Y-59625651D01*
X181196433Y-59625633D01*
X181194853Y-59618508D01*
X181194772Y-59618528D01*
X181193080Y-59611390D01*
X181166794Y-59539170D01*
X181166198Y-59537457D01*
X181156853Y-59509284D01*
X181142013Y-59464545D01*
X181142010Y-59464541D01*
X181142010Y-59464539D01*
X181138912Y-59457900D01*
X181138986Y-59457865D01*
X181135801Y-59451289D01*
X181135728Y-59451326D01*
X181132437Y-59444775D01*
X181132435Y-59444768D01*
X181090195Y-59380544D01*
X181089221Y-59379016D01*
X181048881Y-59313661D01*
X181048876Y-59313656D01*
X181044328Y-59307907D01*
X181044393Y-59307855D01*
X181039783Y-59302197D01*
X181039720Y-59302250D01*
X181034999Y-59296624D01*
X180979080Y-59243867D01*
X180977799Y-59242624D01*
X180341914Y-58607136D01*
X180120431Y-58385791D01*
X180086387Y-58323490D01*
X180083499Y-58296668D01*
X180083499Y-57674455D01*
X180072887Y-57570574D01*
X180049760Y-57500781D01*
X180017115Y-57402262D01*
X179924030Y-57251348D01*
X179924029Y-57251347D01*
X179924024Y-57251341D01*
X179798658Y-57125975D01*
X179798652Y-57125970D01*
X179711605Y-57072279D01*
X179647738Y-57032885D01*
X179560573Y-57004002D01*
X179479427Y-56977113D01*
X179479420Y-56977112D01*
X179375553Y-56966500D01*
X178649455Y-56966500D01*
X178545574Y-56977112D01*
X178377261Y-57032885D01*
X178226347Y-57125970D01*
X178226341Y-57125975D01*
X178100975Y-57251341D01*
X178100970Y-57251347D01*
X178007885Y-57402262D01*
X177952113Y-57570572D01*
X177952112Y-57570579D01*
X177941500Y-57674446D01*
X177941500Y-59025544D01*
X177952112Y-59129425D01*
X178007885Y-59297738D01*
X178100970Y-59448652D01*
X178100975Y-59448658D01*
X178226341Y-59574024D01*
X178226347Y-59574029D01*
X178226348Y-59574030D01*
X178377262Y-59667115D01*
X178545574Y-59722887D01*
X178649455Y-59733500D01*
X179270780Y-59733499D01*
X179338901Y-59753501D01*
X179359847Y-59770375D01*
X179500588Y-59911027D01*
X179560301Y-59970703D01*
X179654567Y-60064909D01*
X179688612Y-60127211D01*
X179691500Y-60154033D01*
X179691500Y-62974171D01*
X179671498Y-63042292D01*
X179641769Y-63073225D01*
X179642178Y-63073713D01*
X179637963Y-63077249D01*
X179482248Y-63232965D01*
X179397713Y-63353694D01*
X179342256Y-63398022D01*
X179271636Y-63405331D01*
X179208276Y-63373300D01*
X179172291Y-63312099D01*
X179168500Y-63281423D01*
X179168500Y-63246367D01*
X179168499Y-63246350D01*
X179161990Y-63185803D01*
X179161988Y-63185795D01*
X179121502Y-63077250D01*
X179110889Y-63048796D01*
X179110888Y-63048794D01*
X179110887Y-63048792D01*
X179023261Y-62931738D01*
X178906207Y-62844112D01*
X178906202Y-62844110D01*
X178769204Y-62793011D01*
X178769196Y-62793009D01*
X178708649Y-62786500D01*
X178708638Y-62786500D01*
X177111362Y-62786500D01*
X177111350Y-62786500D01*
X177050803Y-62793009D01*
X177050795Y-62793011D01*
X176913796Y-62844110D01*
X176913794Y-62844111D01*
X176892694Y-62859906D01*
X176826172Y-62884714D01*
X176756799Y-62869620D01*
X176751042Y-62866276D01*
X176678836Y-62821739D01*
X176607738Y-62777885D01*
X176502113Y-62742885D01*
X176439427Y-62722113D01*
X176439420Y-62722112D01*
X176335553Y-62711500D01*
X175609455Y-62711500D01*
X175505574Y-62722112D01*
X175337261Y-62777885D01*
X175186347Y-62870970D01*
X175186341Y-62870975D01*
X175060975Y-62996341D01*
X175060970Y-62996347D01*
X174967885Y-63147262D01*
X174912113Y-63315572D01*
X174912112Y-63315579D01*
X174901500Y-63419446D01*
X174901500Y-64770544D01*
X174912112Y-64874425D01*
X174967885Y-65042738D01*
X175060970Y-65193652D01*
X175060975Y-65193658D01*
X175186341Y-65319024D01*
X175186347Y-65319029D01*
X175186348Y-65319030D01*
X175337262Y-65412115D01*
X175505574Y-65467887D01*
X175609455Y-65478500D01*
X176335544Y-65478499D01*
X176439426Y-65467887D01*
X176607738Y-65412115D01*
X176758652Y-65319030D01*
X176796811Y-65280870D01*
X176859120Y-65246845D01*
X176929932Y-65251907D01*
X176929939Y-65251910D01*
X177050795Y-65296988D01*
X177050803Y-65296990D01*
X177111350Y-65303499D01*
X177111355Y-65303499D01*
X177111362Y-65303500D01*
X177200461Y-65303500D01*
X177268582Y-65323502D01*
X177307699Y-65363349D01*
X177310966Y-65368646D01*
X177315523Y-65374409D01*
X177315469Y-65374451D01*
X177320228Y-65380292D01*
X177320279Y-65380250D01*
X177324997Y-65385872D01*
X177324998Y-65385873D01*
X177324999Y-65385874D01*
X177368563Y-65426975D01*
X177380822Y-65438540D01*
X177382136Y-65439817D01*
X178464308Y-66521989D01*
X178498334Y-66584301D01*
X178493269Y-66655116D01*
X178450722Y-66711952D01*
X178395953Y-66735365D01*
X178330129Y-66746349D01*
X178330112Y-66746353D01*
X178101115Y-66824968D01*
X178101112Y-66824970D01*
X177888170Y-66940207D01*
X177888169Y-66940208D01*
X177697096Y-67088926D01*
X177533115Y-67267057D01*
X177525179Y-67279204D01*
X177471173Y-67325289D01*
X177400824Y-67334860D01*
X177336469Y-67304879D01*
X177314215Y-67279194D01*
X177306490Y-67267370D01*
X177142562Y-67089295D01*
X176951555Y-66940628D01*
X176951554Y-66940627D01*
X176738686Y-66825430D01*
X176738684Y-66825428D01*
X176509760Y-66746839D01*
X176509749Y-66746836D01*
X176404000Y-66729189D01*
X176404000Y-67725748D01*
X176371181Y-67705791D01*
X176225596Y-67665000D01*
X176112378Y-67665000D01*
X176000217Y-67680416D01*
X175896000Y-67725683D01*
X175896000Y-66729189D01*
X175895999Y-66729189D01*
X175790250Y-66746836D01*
X175790239Y-66746839D01*
X175561315Y-66825428D01*
X175561313Y-66825430D01*
X175348445Y-66940627D01*
X175348444Y-66940628D01*
X175157437Y-67089295D01*
X174993508Y-67267371D01*
X174861126Y-67469997D01*
X174763901Y-67691647D01*
X174763898Y-67691654D01*
X174704484Y-67926278D01*
X174701606Y-67961000D01*
X175656569Y-67961000D01*
X175606441Y-68102047D01*
X175596123Y-68252886D01*
X175626884Y-68400915D01*
X175662163Y-68469000D01*
X174701607Y-68469000D01*
X174704484Y-68503721D01*
X174763898Y-68738345D01*
X174763901Y-68738352D01*
X174861126Y-68960002D01*
X174993508Y-69162628D01*
X175157437Y-69340704D01*
X175348444Y-69489371D01*
X175348445Y-69489372D01*
X175561313Y-69604569D01*
X175561315Y-69604571D01*
X175790235Y-69683159D01*
X175790244Y-69683161D01*
X175896000Y-69700808D01*
X175896000Y-68704251D01*
X175928819Y-68724209D01*
X176074404Y-68765000D01*
X176187622Y-68765000D01*
X176299783Y-68749584D01*
X176404000Y-68704316D01*
X176404000Y-69700808D01*
X176509755Y-69683161D01*
X176509764Y-69683159D01*
X176738684Y-69604571D01*
X176738686Y-69604569D01*
X176951554Y-69489372D01*
X176951555Y-69489371D01*
X177142562Y-69340704D01*
X177306490Y-69162630D01*
X177314213Y-69150808D01*
X177368214Y-69104716D01*
X177438561Y-69095137D01*
X177502920Y-69125110D01*
X177525181Y-69150798D01*
X177533114Y-69162940D01*
X177569937Y-69202940D01*
X177648201Y-69287957D01*
X177679622Y-69351622D01*
X177681500Y-69373295D01*
X177681500Y-73510501D01*
X177661498Y-73578622D01*
X177632891Y-73609933D01*
X177557098Y-73668924D01*
X177557094Y-73668928D01*
X177393114Y-73847058D01*
X177385482Y-73858741D01*
X177331478Y-73904828D01*
X177261130Y-73914403D01*
X177196773Y-73884425D01*
X177174518Y-73858741D01*
X177166885Y-73847058D01*
X177002906Y-73668929D01*
X176961539Y-73636732D01*
X176811830Y-73520208D01*
X176811829Y-73520207D01*
X176700957Y-73460207D01*
X176598888Y-73404970D01*
X176598885Y-73404969D01*
X176598884Y-73404968D01*
X176369887Y-73326353D01*
X176369880Y-73326351D01*
X176267670Y-73309295D01*
X176131062Y-73286500D01*
X175888938Y-73286500D01*
X175769421Y-73306443D01*
X175650119Y-73326351D01*
X175650112Y-73326353D01*
X175421115Y-73404968D01*
X175421112Y-73404970D01*
X175208170Y-73520207D01*
X175208169Y-73520208D01*
X175017093Y-73668929D01*
X174853113Y-73847059D01*
X174720684Y-74049758D01*
X174623426Y-74271484D01*
X174623423Y-74271491D01*
X174563989Y-74506190D01*
X174563987Y-74506199D01*
X174549000Y-74687069D01*
X174549000Y-74902930D01*
X174563987Y-75083800D01*
X174563989Y-75083809D01*
X174623423Y-75318508D01*
X174623426Y-75318515D01*
X174720684Y-75540241D01*
X174853113Y-75742940D01*
X175017093Y-75921070D01*
X175017098Y-75921074D01*
X175017100Y-75921076D01*
X175208170Y-76069792D01*
X175421112Y-76185030D01*
X175421115Y-76185031D01*
X175421117Y-76185032D01*
X175426014Y-76186713D01*
X175462927Y-76199385D01*
X175520862Y-76240421D01*
X175547415Y-76306265D01*
X175534154Y-76376013D01*
X175511111Y-76407653D01*
X167874115Y-84044650D01*
X167869532Y-84048803D01*
X167833433Y-84078430D01*
X167707405Y-84231995D01*
X167679820Y-84283602D01*
X167630067Y-84334249D01*
X167568579Y-84350204D01*
X167344380Y-84349990D01*
X167276278Y-84329923D01*
X167229836Y-84276223D01*
X167218500Y-84223990D01*
X167218500Y-76186713D01*
X167238502Y-76118592D01*
X167292158Y-76072099D01*
X167362432Y-76061995D01*
X167427012Y-76091489D01*
X167433595Y-76097618D01*
X167434236Y-76098259D01*
X167551292Y-76185887D01*
X167551294Y-76185888D01*
X167551296Y-76185889D01*
X167587480Y-76199385D01*
X167688295Y-76236988D01*
X167688303Y-76236990D01*
X167748850Y-76243499D01*
X167748855Y-76243499D01*
X167748862Y-76243500D01*
X167748868Y-76243500D01*
X169751132Y-76243500D01*
X169751138Y-76243500D01*
X169751145Y-76243499D01*
X169751149Y-76243499D01*
X169811696Y-76236990D01*
X169811699Y-76236989D01*
X169811701Y-76236989D01*
X169948704Y-76185889D01*
X169949852Y-76185030D01*
X170065761Y-76098261D01*
X170153387Y-75981207D01*
X170153387Y-75981206D01*
X170153389Y-75981204D01*
X170204489Y-75844201D01*
X170204549Y-75843649D01*
X170210999Y-75783649D01*
X170211000Y-75783632D01*
X170211000Y-73813869D01*
X170231002Y-73745748D01*
X170247900Y-73724779D01*
X172040774Y-71931904D01*
X172054613Y-71919944D01*
X172074058Y-71905469D01*
X172108007Y-71865008D01*
X172111706Y-71860972D01*
X172117580Y-71855100D01*
X172137616Y-71829757D01*
X172138651Y-71828487D01*
X172188032Y-71769640D01*
X172188035Y-71769633D01*
X172192065Y-71763508D01*
X172192122Y-71763545D01*
X172196170Y-71757191D01*
X172196112Y-71757155D01*
X172199965Y-71750907D01*
X172199967Y-71750905D01*
X172232421Y-71681304D01*
X172233167Y-71679765D01*
X172267609Y-71611188D01*
X172267610Y-71611181D01*
X172270119Y-71604291D01*
X172270184Y-71604314D01*
X172272658Y-71597197D01*
X172272594Y-71597176D01*
X172274903Y-71590207D01*
X172278650Y-71572057D01*
X172290432Y-71514994D01*
X172290805Y-71513312D01*
X172308500Y-71438656D01*
X172308500Y-71438655D01*
X172309352Y-71431368D01*
X172309419Y-71431375D01*
X172310185Y-71423877D01*
X172310119Y-71423872D01*
X172310757Y-71416566D01*
X172310759Y-71416558D01*
X172309443Y-71371332D01*
X172308527Y-71339824D01*
X172308500Y-71337992D01*
X172308500Y-65551693D01*
X172328502Y-65483572D01*
X172382158Y-65437079D01*
X172452432Y-65426975D01*
X172474133Y-65432089D01*
X172580669Y-65467392D01*
X172580681Y-65467394D01*
X172684483Y-65477999D01*
X172684483Y-65478000D01*
X172793500Y-65478000D01*
X172793500Y-64349000D01*
X173301500Y-64349000D01*
X173301500Y-65478000D01*
X173410517Y-65478000D01*
X173410516Y-65477999D01*
X173514318Y-65467394D01*
X173514321Y-65467393D01*
X173682525Y-65411657D01*
X173833339Y-65318634D01*
X173833345Y-65318629D01*
X173958629Y-65193345D01*
X173958634Y-65193339D01*
X174051657Y-65042525D01*
X174107393Y-64874321D01*
X174107394Y-64874318D01*
X174117999Y-64770516D01*
X174118000Y-64770516D01*
X174118000Y-64349000D01*
X173301500Y-64349000D01*
X172793500Y-64349000D01*
X172793500Y-62769169D01*
X172810286Y-62712000D01*
X173301500Y-62712000D01*
X173301500Y-63841000D01*
X174118000Y-63841000D01*
X174118000Y-63419483D01*
X174107394Y-63315681D01*
X174107393Y-63315678D01*
X174051657Y-63147474D01*
X173958634Y-62996660D01*
X173958629Y-62996654D01*
X173833345Y-62871370D01*
X173833339Y-62871365D01*
X173682525Y-62778342D01*
X173514321Y-62722606D01*
X173514318Y-62722605D01*
X173410516Y-62712000D01*
X173301500Y-62712000D01*
X172810286Y-62712000D01*
X172813502Y-62701048D01*
X172830397Y-62680083D01*
X175274268Y-60236211D01*
X175274287Y-60236201D01*
X175274283Y-60236197D01*
X175370620Y-60139896D01*
X175740265Y-59770386D01*
X175802584Y-59736374D01*
X175829344Y-59733499D01*
X176450544Y-59733499D01*
X176554426Y-59722887D01*
X176722738Y-59667115D01*
X176873652Y-59574030D01*
X176999030Y-59448652D01*
X177092115Y-59297738D01*
X177147887Y-59129426D01*
X177158500Y-59025545D01*
X177158499Y-57674456D01*
X177157378Y-57663487D01*
X177147887Y-57570574D01*
X177124760Y-57500781D01*
X177092115Y-57402262D01*
X176999030Y-57251348D01*
X176999029Y-57251347D01*
X176999024Y-57251341D01*
X176873658Y-57125975D01*
X176873652Y-57125970D01*
X176786605Y-57072279D01*
X176722738Y-57032885D01*
X176635573Y-57004002D01*
X176554427Y-56977113D01*
X176554420Y-56977112D01*
X176450553Y-56966500D01*
X175724455Y-56966500D01*
X175620574Y-56977112D01*
X175452261Y-57032885D01*
X175301347Y-57125970D01*
X175301341Y-57125975D01*
X175175975Y-57251341D01*
X175175970Y-57251347D01*
X175082885Y-57402262D01*
X175027113Y-57570572D01*
X175027112Y-57570579D01*
X175016499Y-57674446D01*
X175016499Y-58296715D01*
X174996497Y-58364836D01*
X174979578Y-58385827D01*
X174264953Y-59100188D01*
X174264731Y-59100387D01*
X174198291Y-59166827D01*
X174167345Y-59197762D01*
X174167133Y-59197985D01*
X171059225Y-62305892D01*
X171045376Y-62317862D01*
X171025943Y-62332330D01*
X170992007Y-62372771D01*
X170988300Y-62376817D01*
X170982421Y-62382697D01*
X170982414Y-62382705D01*
X170962430Y-62407977D01*
X170961276Y-62409394D01*
X170911964Y-62468164D01*
X170907935Y-62474291D01*
X170907880Y-62474255D01*
X170903825Y-62480620D01*
X170903882Y-62480655D01*
X170900030Y-62486899D01*
X170867609Y-62556423D01*
X170866812Y-62558070D01*
X170832393Y-62626606D01*
X170829882Y-62633507D01*
X170829820Y-62633484D01*
X170827343Y-62640610D01*
X170827404Y-62640631D01*
X170825096Y-62647595D01*
X170809574Y-62722760D01*
X170809178Y-62724547D01*
X170791500Y-62799141D01*
X170790648Y-62806434D01*
X170790581Y-62806426D01*
X170789814Y-62813926D01*
X170789881Y-62813932D01*
X170789241Y-62821243D01*
X170791473Y-62897974D01*
X170791500Y-62899806D01*
X170791500Y-70983629D01*
X170771498Y-71051750D01*
X170754595Y-71072724D01*
X168637724Y-73189595D01*
X168575412Y-73223621D01*
X168548629Y-73226500D01*
X167748850Y-73226500D01*
X167688303Y-73233009D01*
X167688295Y-73233011D01*
X167551297Y-73284110D01*
X167551292Y-73284112D01*
X167434236Y-73371740D01*
X167427866Y-73378111D01*
X167426571Y-73376816D01*
X167378529Y-73412778D01*
X167307713Y-73417841D01*
X167245402Y-73383814D01*
X167211379Y-73321500D01*
X167208500Y-73294721D01*
X167208500Y-69706713D01*
X167228502Y-69638592D01*
X167282158Y-69592099D01*
X167352432Y-69581995D01*
X167417012Y-69611489D01*
X167423595Y-69617618D01*
X167424236Y-69618259D01*
X167541292Y-69705887D01*
X167541294Y-69705888D01*
X167541296Y-69705889D01*
X167599127Y-69727459D01*
X167678295Y-69756988D01*
X167678303Y-69756990D01*
X167738850Y-69763499D01*
X167738855Y-69763499D01*
X167738862Y-69763500D01*
X167738868Y-69763500D01*
X169741132Y-69763500D01*
X169741138Y-69763500D01*
X169741145Y-69763499D01*
X169741149Y-69763499D01*
X169801696Y-69756990D01*
X169801699Y-69756989D01*
X169801701Y-69756989D01*
X169808088Y-69754607D01*
X169844271Y-69741111D01*
X169938704Y-69705889D01*
X169945492Y-69700808D01*
X170055761Y-69618261D01*
X170143387Y-69501207D01*
X170143387Y-69501206D01*
X170143389Y-69501204D01*
X170194489Y-69364201D01*
X170195842Y-69351622D01*
X170200999Y-69303649D01*
X170201000Y-69303632D01*
X170201000Y-67206367D01*
X170200999Y-67206350D01*
X170194490Y-67145803D01*
X170194488Y-67145795D01*
X170159058Y-67050805D01*
X170143389Y-67008796D01*
X170143388Y-67008794D01*
X170143387Y-67008792D01*
X170055761Y-66891738D01*
X169938707Y-66804112D01*
X169938702Y-66804110D01*
X169801704Y-66753011D01*
X169801696Y-66753009D01*
X169741149Y-66746500D01*
X169741138Y-66746500D01*
X168356371Y-66746500D01*
X168288250Y-66726498D01*
X168267276Y-66709595D01*
X168205405Y-66647724D01*
X168171379Y-66585412D01*
X168168500Y-66558629D01*
X168168500Y-66108911D01*
X168168607Y-66105247D01*
X168172372Y-66040597D01*
X168172371Y-66040594D01*
X168172239Y-66039843D01*
X168161121Y-65976795D01*
X168160595Y-65973199D01*
X168153079Y-65908887D01*
X168149221Y-65898290D01*
X168143538Y-65877076D01*
X168141582Y-65865979D01*
X168115930Y-65806512D01*
X168114587Y-65803133D01*
X168092435Y-65742268D01*
X168086234Y-65732841D01*
X168075812Y-65713509D01*
X168071352Y-65703168D01*
X168052765Y-65678201D01*
X168032690Y-65651234D01*
X168030588Y-65648232D01*
X168007203Y-65612678D01*
X167995001Y-65594126D01*
X167986795Y-65586384D01*
X167972198Y-65569981D01*
X167965469Y-65560942D01*
X167954446Y-65551693D01*
X167915875Y-65519328D01*
X167913137Y-65516891D01*
X167882352Y-65487847D01*
X167866029Y-65472447D01*
X167856265Y-65466810D01*
X167838272Y-65454212D01*
X167829640Y-65446968D01*
X167809949Y-65437079D01*
X167794668Y-65429404D01*
X167742771Y-65380956D01*
X167725305Y-65312141D01*
X167747816Y-65244808D01*
X167803157Y-65200334D01*
X167840229Y-65191287D01*
X167979371Y-65179115D01*
X168192076Y-65122120D01*
X168391654Y-65029056D01*
X168572038Y-64902749D01*
X168727749Y-64747038D01*
X168854056Y-64566654D01*
X168947120Y-64367076D01*
X169004115Y-64154371D01*
X169023307Y-63935000D01*
X169004115Y-63715629D01*
X168947120Y-63502924D01*
X168854056Y-63303347D01*
X168727749Y-63122962D01*
X168572038Y-62967251D01*
X168572035Y-62967249D01*
X168474393Y-62898879D01*
X168391654Y-62840944D01*
X168380987Y-62835970D01*
X168192079Y-62747881D01*
X168192073Y-62747879D01*
X168058172Y-62712000D01*
X167979371Y-62690885D01*
X167760000Y-62671693D01*
X167540629Y-62690885D01*
X167327926Y-62747879D01*
X167327920Y-62747881D01*
X167128346Y-62840944D01*
X166947965Y-62967248D01*
X166947959Y-62967253D01*
X166792253Y-63122959D01*
X166792248Y-63122965D01*
X166665944Y-63303346D01*
X166604195Y-63435768D01*
X166557278Y-63489053D01*
X166489000Y-63508514D01*
X166421040Y-63487972D01*
X166375805Y-63435768D01*
X166351873Y-63384446D01*
X166314056Y-63303347D01*
X166187749Y-63122962D01*
X166032038Y-62967251D01*
X166032037Y-62967250D01*
X166032036Y-62967249D01*
X166027822Y-62963713D01*
X166028574Y-62962815D01*
X165987896Y-62911916D01*
X165978500Y-62864171D01*
X165978500Y-61921370D01*
X165998502Y-61853249D01*
X166015400Y-61832280D01*
X167678824Y-60168855D01*
X167741134Y-60134832D01*
X167811949Y-60139896D01*
X167868785Y-60182443D01*
X167875157Y-60191804D01*
X167900968Y-60233649D01*
X167900975Y-60233658D01*
X168026341Y-60359024D01*
X168026347Y-60359029D01*
X168026348Y-60359030D01*
X168177262Y-60452115D01*
X168345574Y-60507887D01*
X168449455Y-60518500D01*
X169175544Y-60518499D01*
X169279426Y-60507887D01*
X169447738Y-60452115D01*
X169598652Y-60359030D01*
X169724030Y-60233652D01*
X169817115Y-60082738D01*
X169872887Y-59914426D01*
X169883500Y-59810545D01*
X169883499Y-58459456D01*
X169879342Y-58418767D01*
X169872887Y-58355574D01*
X169868967Y-58343745D01*
X169817115Y-58187262D01*
X169724030Y-58036348D01*
X169724029Y-58036347D01*
X169724024Y-58036341D01*
X169598658Y-57910975D01*
X169598652Y-57910970D01*
X169598652Y-57910969D01*
X169447738Y-57817885D01*
X169336355Y-57780977D01*
X169279427Y-57762113D01*
X169279420Y-57762112D01*
X169175553Y-57751500D01*
X168449455Y-57751500D01*
X168345574Y-57762112D01*
X168177261Y-57817885D01*
X168026347Y-57910970D01*
X168026341Y-57910975D01*
X167900975Y-58036341D01*
X167900970Y-58036347D01*
X167807885Y-58187261D01*
X167797634Y-58218197D01*
X167777639Y-58278542D01*
X167775375Y-58285374D01*
X167734961Y-58343745D01*
X167669404Y-58371001D01*
X167666751Y-58371262D01*
X167662211Y-58371659D01*
X167651030Y-58372637D01*
X167609616Y-58376260D01*
X167604122Y-58376500D01*
X167595817Y-58376500D01*
X167574897Y-58378945D01*
X167563791Y-58380243D01*
X167562004Y-58380425D01*
X167543046Y-58382084D01*
X167485574Y-58387112D01*
X167478389Y-58388596D01*
X167478376Y-58388533D01*
X167471003Y-58390168D01*
X167471018Y-58390231D01*
X167463881Y-58391922D01*
X167391773Y-58418166D01*
X167390045Y-58418767D01*
X167344627Y-58433818D01*
X167317262Y-58442886D01*
X167317260Y-58442886D01*
X167317260Y-58442887D01*
X167310612Y-58445987D01*
X167310583Y-58445926D01*
X167303792Y-58449214D01*
X167303822Y-58449273D01*
X167297269Y-58452563D01*
X167233154Y-58494732D01*
X167231609Y-58495716D01*
X167166351Y-58535968D01*
X167160588Y-58540525D01*
X167160547Y-58540473D01*
X167154704Y-58545233D01*
X167154746Y-58545283D01*
X167149128Y-58549997D01*
X167096458Y-58605822D01*
X167095182Y-58607136D01*
X164729225Y-60973092D01*
X164715376Y-60985062D01*
X164695943Y-60999530D01*
X164662007Y-61039971D01*
X164658300Y-61044017D01*
X164652421Y-61049897D01*
X164652414Y-61049905D01*
X164632430Y-61075177D01*
X164631276Y-61076594D01*
X164581964Y-61135364D01*
X164577935Y-61141491D01*
X164577880Y-61141455D01*
X164573825Y-61147820D01*
X164573882Y-61147855D01*
X164570030Y-61154099D01*
X164537609Y-61223623D01*
X164536812Y-61225270D01*
X164502393Y-61293806D01*
X164499882Y-61300707D01*
X164499820Y-61300684D01*
X164497343Y-61307810D01*
X164497404Y-61307831D01*
X164495096Y-61314795D01*
X164479574Y-61389960D01*
X164479178Y-61391747D01*
X164461500Y-61466341D01*
X164460648Y-61473634D01*
X164460581Y-61473626D01*
X164459814Y-61481126D01*
X164459881Y-61481132D01*
X164459241Y-61488443D01*
X164461473Y-61565174D01*
X164461500Y-61567006D01*
X164461500Y-62864171D01*
X164441498Y-62932292D01*
X164411769Y-62963225D01*
X164412178Y-62963713D01*
X164407963Y-62967249D01*
X164252248Y-63122965D01*
X164167713Y-63243694D01*
X164112256Y-63288022D01*
X164041636Y-63295331D01*
X163978276Y-63263300D01*
X163942291Y-63202099D01*
X163938500Y-63171423D01*
X163938500Y-63136367D01*
X163938499Y-63136350D01*
X163931990Y-63075803D01*
X163931988Y-63075795D01*
X163891502Y-62967250D01*
X163880889Y-62938796D01*
X163880888Y-62938794D01*
X163880887Y-62938792D01*
X163793261Y-62821738D01*
X163676207Y-62734112D01*
X163676202Y-62734110D01*
X163539204Y-62683011D01*
X163539196Y-62683009D01*
X163478649Y-62676500D01*
X163478638Y-62676500D01*
X161881362Y-62676500D01*
X161881350Y-62676500D01*
X161820803Y-62683009D01*
X161820795Y-62683011D01*
X161683797Y-62734110D01*
X161683792Y-62734112D01*
X161566738Y-62821738D01*
X161479112Y-62938792D01*
X161479110Y-62938797D01*
X161428011Y-63075795D01*
X161428009Y-63075803D01*
X161421500Y-63136350D01*
X161421500Y-63160500D01*
X161401498Y-63228621D01*
X161347842Y-63275114D01*
X161295500Y-63286500D01*
X160935836Y-63286500D01*
X160867715Y-63266498D01*
X160821222Y-63212842D01*
X160816235Y-63200142D01*
X160787115Y-63112262D01*
X160694030Y-62961348D01*
X160694029Y-62961347D01*
X160694024Y-62961341D01*
X160568658Y-62835975D01*
X160568652Y-62835970D01*
X160527036Y-62810301D01*
X160417738Y-62742885D01*
X160333581Y-62714998D01*
X160249427Y-62687113D01*
X160249420Y-62687112D01*
X160145553Y-62676500D01*
X158794455Y-62676500D01*
X158690574Y-62687112D01*
X158522261Y-62742885D01*
X158371347Y-62835970D01*
X158371341Y-62835975D01*
X158245975Y-62961341D01*
X158245970Y-62961347D01*
X158152885Y-63112262D01*
X158097113Y-63280572D01*
X158097112Y-63280579D01*
X158086500Y-63384446D01*
X158086500Y-64110544D01*
X158097112Y-64214425D01*
X158152885Y-64382738D01*
X158245970Y-64533652D01*
X158245975Y-64533658D01*
X158371341Y-64659024D01*
X158371347Y-64659029D01*
X158371348Y-64659030D01*
X158522262Y-64752115D01*
X158690574Y-64807887D01*
X158794455Y-64818500D01*
X160145544Y-64818499D01*
X160249426Y-64807887D01*
X160249429Y-64807885D01*
X160256146Y-64806448D01*
X160256432Y-64807784D01*
X160282997Y-64803500D01*
X161343996Y-64803500D01*
X161412117Y-64823502D01*
X161458610Y-64877158D01*
X161462051Y-64885466D01*
X161479111Y-64931205D01*
X161566738Y-65048261D01*
X161683792Y-65135887D01*
X161683794Y-65135888D01*
X161683796Y-65135889D01*
X161742875Y-65157924D01*
X161820795Y-65186988D01*
X161820803Y-65186990D01*
X161881350Y-65193499D01*
X161881355Y-65193499D01*
X161881362Y-65193500D01*
X162813629Y-65193500D01*
X162881750Y-65213502D01*
X162902724Y-65230405D01*
X164248092Y-66575773D01*
X164260065Y-66589627D01*
X164274531Y-66609058D01*
X164290061Y-66622090D01*
X164329387Y-66681200D01*
X164330513Y-66752187D01*
X164293081Y-66812515D01*
X164228976Y-66843028D01*
X164168157Y-66837784D01*
X164019760Y-66786839D01*
X164019749Y-66786836D01*
X163914000Y-66769189D01*
X163914000Y-67765748D01*
X163881181Y-67745791D01*
X163735596Y-67705000D01*
X163622378Y-67705000D01*
X163510217Y-67720416D01*
X163406000Y-67765683D01*
X163406000Y-66769189D01*
X163405999Y-66769189D01*
X163300250Y-66786836D01*
X163300239Y-66786839D01*
X163071315Y-66865428D01*
X163071313Y-66865430D01*
X162858445Y-66980627D01*
X162858444Y-66980628D01*
X162667437Y-67129295D01*
X162503508Y-67307371D01*
X162371126Y-67509997D01*
X162273901Y-67731647D01*
X162273898Y-67731654D01*
X162214484Y-67966278D01*
X162211606Y-68001000D01*
X163166569Y-68001000D01*
X163116441Y-68142047D01*
X163106123Y-68292886D01*
X163136884Y-68440915D01*
X163172163Y-68509000D01*
X162211607Y-68509000D01*
X162214484Y-68543721D01*
X162273898Y-68778345D01*
X162273901Y-68778352D01*
X162371126Y-69000002D01*
X162503508Y-69202628D01*
X162667437Y-69380704D01*
X162858444Y-69529371D01*
X162858445Y-69529372D01*
X163071313Y-69644569D01*
X163071315Y-69644571D01*
X163300235Y-69723159D01*
X163300244Y-69723161D01*
X163405999Y-69740808D01*
X163406000Y-69740808D01*
X163406000Y-68744251D01*
X163438819Y-68764209D01*
X163584404Y-68805000D01*
X163697622Y-68805000D01*
X163809783Y-68789584D01*
X163914000Y-68744316D01*
X163914000Y-69740808D01*
X164019755Y-69723161D01*
X164019764Y-69723159D01*
X164248684Y-69644571D01*
X164248686Y-69644569D01*
X164461554Y-69529372D01*
X164461555Y-69529371D01*
X164652562Y-69380704D01*
X164816490Y-69202630D01*
X164824213Y-69190808D01*
X164878214Y-69144716D01*
X164948561Y-69135137D01*
X165012920Y-69165110D01*
X165035181Y-69190798D01*
X165043114Y-69202940D01*
X165043116Y-69202942D01*
X165158201Y-69327957D01*
X165189622Y-69391622D01*
X165191500Y-69413295D01*
X165191500Y-73587567D01*
X165171498Y-73655688D01*
X165158201Y-73672904D01*
X165053118Y-73787054D01*
X165053114Y-73787059D01*
X165045481Y-73798743D01*
X164991476Y-73844830D01*
X164921128Y-73854404D01*
X164856772Y-73824424D01*
X164834516Y-73798739D01*
X164826884Y-73787057D01*
X164662906Y-73608929D01*
X164635460Y-73587567D01*
X164471830Y-73460208D01*
X164471829Y-73460207D01*
X164369755Y-73404968D01*
X164258888Y-73344970D01*
X164258885Y-73344969D01*
X164258884Y-73344968D01*
X164029887Y-73266353D01*
X164029880Y-73266351D01*
X163927670Y-73249295D01*
X163791062Y-73226500D01*
X163548938Y-73226500D01*
X163429421Y-73246443D01*
X163310119Y-73266351D01*
X163310112Y-73266353D01*
X163081115Y-73344968D01*
X163081112Y-73344970D01*
X162868170Y-73460207D01*
X162868169Y-73460208D01*
X162677093Y-73608929D01*
X162513113Y-73787059D01*
X162380684Y-73989758D01*
X162283426Y-74211484D01*
X162283423Y-74211491D01*
X162223989Y-74446190D01*
X162223987Y-74446199D01*
X162209000Y-74627069D01*
X162209000Y-74842930D01*
X162223987Y-75023800D01*
X162223989Y-75023809D01*
X162283423Y-75258508D01*
X162283426Y-75258515D01*
X162380684Y-75480241D01*
X162513113Y-75682940D01*
X162677093Y-75861070D01*
X162677098Y-75861074D01*
X162677100Y-75861076D01*
X162868170Y-76009792D01*
X163081112Y-76125030D01*
X163310117Y-76203648D01*
X163548938Y-76243500D01*
X163548942Y-76243500D01*
X163791058Y-76243500D01*
X163791062Y-76243500D01*
X164029883Y-76203648D01*
X164258888Y-76125030D01*
X164471830Y-76009792D01*
X164662900Y-75861076D01*
X164678440Y-75844196D01*
X164826884Y-75682942D01*
X164826883Y-75682942D01*
X164826886Y-75682940D01*
X164834516Y-75671260D01*
X164888519Y-75625172D01*
X164958866Y-75615595D01*
X165023224Y-75645572D01*
X165045484Y-75671261D01*
X165053114Y-75682940D01*
X165053116Y-75682942D01*
X165168201Y-75807957D01*
X165199622Y-75871622D01*
X165201500Y-75893295D01*
X165201500Y-84221818D01*
X165181498Y-84289939D01*
X165127842Y-84336432D01*
X165075379Y-84347818D01*
X149499379Y-84332910D01*
X149431278Y-84312843D01*
X149384836Y-84259143D01*
X149373500Y-84206910D01*
X149373500Y-71404018D01*
X149374040Y-71395786D01*
X149378751Y-71360000D01*
X149378751Y-71359999D01*
X149357838Y-71201150D01*
X149304643Y-71072724D01*
X149296524Y-71053124D01*
X149295470Y-71051750D01*
X149221901Y-70955873D01*
X149221871Y-70955836D01*
X149198986Y-70926012D01*
X149170346Y-70904035D01*
X149164153Y-70898604D01*
X144531792Y-66266242D01*
X144497767Y-66203932D01*
X144502832Y-66133117D01*
X144545379Y-66076281D01*
X144611899Y-66051470D01*
X144662503Y-66058220D01*
X144694518Y-66069422D01*
X144781953Y-66100017D01*
X144963000Y-66120416D01*
X145144047Y-66100017D01*
X145316015Y-66039843D01*
X145470281Y-65942911D01*
X145599111Y-65814081D01*
X145696043Y-65659815D01*
X145717436Y-65598672D01*
X145747299Y-65551162D01*
X146510435Y-64788493D01*
X146511019Y-64787950D01*
X146511555Y-64787403D01*
X146512156Y-64786801D01*
X146512165Y-64786795D01*
X146537832Y-64761116D01*
X146600136Y-64727078D01*
X146639750Y-64724846D01*
X146724455Y-64733500D01*
X147450544Y-64733499D01*
X147554426Y-64722887D01*
X147722738Y-64667115D01*
X147784354Y-64629109D01*
X147852831Y-64610372D01*
X147920570Y-64631631D01*
X147966062Y-64686137D01*
X147976500Y-64736350D01*
X147976500Y-67631778D01*
X147975960Y-67640011D01*
X147971250Y-67675786D01*
X147971250Y-67675788D01*
X147976203Y-67713416D01*
X147976210Y-67713491D01*
X147984451Y-67776084D01*
X147992159Y-67834643D01*
X148016026Y-67892264D01*
X148053472Y-67982671D01*
X148053491Y-67982703D01*
X148053811Y-67983112D01*
X148080041Y-68017295D01*
X148080042Y-68017299D01*
X148080044Y-68017299D01*
X148127714Y-68079427D01*
X148127750Y-68079470D01*
X148151013Y-68109787D01*
X148176630Y-68129443D01*
X148179641Y-68131754D01*
X148185843Y-68137193D01*
X154951300Y-74902930D01*
X155037340Y-74988973D01*
X155071364Y-75051286D01*
X155066298Y-75122102D01*
X155037339Y-75167162D01*
X154993801Y-75210700D01*
X154862477Y-75398250D01*
X154765717Y-75605753D01*
X154765715Y-75605759D01*
X154718050Y-75783649D01*
X154706457Y-75826913D01*
X154686502Y-76055000D01*
X154706457Y-76283087D01*
X154765716Y-76504243D01*
X154862477Y-76711749D01*
X154993802Y-76899300D01*
X155155700Y-77061198D01*
X155343251Y-77192523D01*
X155378359Y-77208894D01*
X155382457Y-77210805D01*
X155435742Y-77257722D01*
X155455203Y-77325999D01*
X155434661Y-77393959D01*
X155382457Y-77439195D01*
X155343250Y-77457477D01*
X155155703Y-77588799D01*
X155155697Y-77588804D01*
X154993804Y-77750697D01*
X154993799Y-77750703D01*
X154862477Y-77938250D01*
X154765717Y-78145753D01*
X154765715Y-78145759D01*
X154706457Y-78366913D01*
X154686502Y-78595000D01*
X154706457Y-78823086D01*
X154765715Y-79044240D01*
X154765717Y-79044246D01*
X154862477Y-79251749D01*
X154993799Y-79439296D01*
X154993804Y-79439302D01*
X155155697Y-79601195D01*
X155155706Y-79601203D01*
X155159001Y-79603510D01*
X155203329Y-79658968D01*
X155210637Y-79729587D01*
X155178605Y-79792947D01*
X155117403Y-79828931D01*
X155100197Y-79832000D01*
X155090803Y-79833009D01*
X155090795Y-79833011D01*
X154953797Y-79884110D01*
X154953792Y-79884112D01*
X154836738Y-79971738D01*
X154749112Y-80088792D01*
X154749110Y-80088797D01*
X154698011Y-80225795D01*
X154698009Y-80225803D01*
X154691500Y-80286350D01*
X154691500Y-81983649D01*
X154698009Y-82044196D01*
X154698011Y-82044204D01*
X154749110Y-82181202D01*
X154749112Y-82181207D01*
X154836738Y-82298261D01*
X154953792Y-82385887D01*
X154953794Y-82385888D01*
X154953796Y-82385889D01*
X155012875Y-82407924D01*
X155090795Y-82436988D01*
X155090803Y-82436990D01*
X155151350Y-82443499D01*
X155151355Y-82443499D01*
X155151362Y-82443500D01*
X155151368Y-82443500D01*
X156848632Y-82443500D01*
X156848638Y-82443500D01*
X156848645Y-82443499D01*
X156848649Y-82443499D01*
X156909196Y-82436990D01*
X156909199Y-82436989D01*
X156909201Y-82436989D01*
X157046204Y-82385889D01*
X157069018Y-82368811D01*
X157163261Y-82298261D01*
X157250887Y-82181207D01*
X157250887Y-82181206D01*
X157250889Y-82181204D01*
X157301989Y-82044201D01*
X157308500Y-81983638D01*
X157308500Y-81869500D01*
X157328502Y-81801379D01*
X157382158Y-81754886D01*
X157434500Y-81743500D01*
X158943824Y-81743500D01*
X159011945Y-81763502D01*
X159058438Y-81817158D01*
X159069172Y-81856695D01*
X159077112Y-81934425D01*
X159132885Y-82102738D01*
X159225970Y-82253652D01*
X159225975Y-82253658D01*
X159351341Y-82379024D01*
X159351347Y-82379029D01*
X159351348Y-82379030D01*
X159502262Y-82472115D01*
X159670574Y-82527887D01*
X159774455Y-82538500D01*
X160500544Y-82538499D01*
X160604426Y-82527887D01*
X160772738Y-82472115D01*
X160923652Y-82379030D01*
X161049030Y-82253652D01*
X161142115Y-82102738D01*
X161197887Y-81934426D01*
X161208500Y-81830545D01*
X161208500Y-81830544D01*
X161991500Y-81830544D01*
X162002112Y-81934425D01*
X162057885Y-82102738D01*
X162150970Y-82253652D01*
X162150975Y-82253658D01*
X162276341Y-82379024D01*
X162276347Y-82379029D01*
X162276348Y-82379030D01*
X162427262Y-82472115D01*
X162595574Y-82527887D01*
X162699455Y-82538500D01*
X163425544Y-82538499D01*
X163529426Y-82527887D01*
X163697738Y-82472115D01*
X163848652Y-82379030D01*
X163974030Y-82253652D01*
X164067115Y-82102738D01*
X164122887Y-81934426D01*
X164133500Y-81830545D01*
X164133499Y-80479456D01*
X164133401Y-80478501D01*
X164122887Y-80375574D01*
X164122886Y-80375572D01*
X164067115Y-80207262D01*
X163974030Y-80056348D01*
X163974029Y-80056347D01*
X163974024Y-80056341D01*
X163848658Y-79930975D01*
X163848652Y-79930970D01*
X163772683Y-79884112D01*
X163697738Y-79837885D01*
X163572283Y-79796314D01*
X163529427Y-79782113D01*
X163529420Y-79782112D01*
X163425553Y-79771500D01*
X162699455Y-79771500D01*
X162595574Y-79782112D01*
X162427261Y-79837885D01*
X162276347Y-79930970D01*
X162276341Y-79930975D01*
X162150975Y-80056341D01*
X162150970Y-80056347D01*
X162057885Y-80207262D01*
X162002113Y-80375572D01*
X162002112Y-80375579D01*
X161991500Y-80479446D01*
X161991500Y-81830544D01*
X161208500Y-81830544D01*
X161208499Y-80479456D01*
X161208401Y-80478501D01*
X161197887Y-80375574D01*
X161197886Y-80375572D01*
X161142115Y-80207262D01*
X161049030Y-80056348D01*
X161049029Y-80056347D01*
X161049024Y-80056341D01*
X160923658Y-79930975D01*
X160923652Y-79930970D01*
X160847683Y-79884112D01*
X160772738Y-79837885D01*
X160647283Y-79796314D01*
X160604427Y-79782113D01*
X160604420Y-79782112D01*
X160500553Y-79771500D01*
X159774455Y-79771500D01*
X159670574Y-79782112D01*
X159502261Y-79837885D01*
X159351347Y-79930970D01*
X159351341Y-79930975D01*
X159225975Y-80056341D01*
X159225970Y-80056347D01*
X159205955Y-80088797D01*
X159132885Y-80207262D01*
X159077113Y-80375574D01*
X159073257Y-80413308D01*
X159046437Y-80479041D01*
X158988333Y-80519840D01*
X158947911Y-80526500D01*
X157434500Y-80526500D01*
X157366379Y-80506498D01*
X157319886Y-80452842D01*
X157308500Y-80400500D01*
X157308500Y-80286367D01*
X157308499Y-80286350D01*
X157301990Y-80225803D01*
X157301988Y-80225795D01*
X157250889Y-80088797D01*
X157250887Y-80088792D01*
X157163261Y-79971738D01*
X157046207Y-79884112D01*
X157046202Y-79884110D01*
X156909204Y-79833011D01*
X156909196Y-79833009D01*
X156899802Y-79832000D01*
X156834210Y-79804832D01*
X156793718Y-79746514D01*
X156791184Y-79675563D01*
X156827410Y-79614504D01*
X156841004Y-79603506D01*
X156841278Y-79603313D01*
X156844300Y-79601198D01*
X157006198Y-79439300D01*
X157137523Y-79251749D01*
X157234284Y-79044243D01*
X157293543Y-78823087D01*
X157313498Y-78595000D01*
X157293543Y-78366913D01*
X157234284Y-78145757D01*
X157137523Y-77938251D01*
X157006198Y-77750700D01*
X156844300Y-77588802D01*
X156656749Y-77457477D01*
X156617543Y-77439195D01*
X156564258Y-77392279D01*
X156544796Y-77324002D01*
X156565337Y-77256042D01*
X156617543Y-77210805D01*
X156619997Y-77209660D01*
X156656749Y-77192523D01*
X156844300Y-77061198D01*
X157006198Y-76899300D01*
X157137523Y-76711749D01*
X157234284Y-76504243D01*
X157293543Y-76283087D01*
X157313498Y-76055000D01*
X157293543Y-75826913D01*
X157234284Y-75605757D01*
X157137523Y-75398251D01*
X157006198Y-75210700D01*
X156844300Y-75048802D01*
X156844296Y-75048799D01*
X156656751Y-74917478D01*
X156656747Y-74917476D01*
X156617541Y-74899194D01*
X156564257Y-74852278D01*
X156544796Y-74784001D01*
X156565338Y-74716041D01*
X156617543Y-74670805D01*
X156619997Y-74669660D01*
X156656749Y-74652523D01*
X156844300Y-74521198D01*
X157006198Y-74359300D01*
X157137523Y-74171749D01*
X157234284Y-73964243D01*
X157293543Y-73743087D01*
X157313498Y-73515000D01*
X157293543Y-73286913D01*
X157234284Y-73065757D01*
X157137523Y-72858251D01*
X157006198Y-72670700D01*
X156844300Y-72508802D01*
X156656749Y-72377477D01*
X156656740Y-72377473D01*
X156617543Y-72359195D01*
X156564258Y-72312279D01*
X156544796Y-72244002D01*
X156565337Y-72176042D01*
X156617543Y-72130805D01*
X156619997Y-72129660D01*
X156656749Y-72112523D01*
X156844300Y-71981198D01*
X157006198Y-71819300D01*
X157137523Y-71631749D01*
X157234284Y-71424243D01*
X157293543Y-71203087D01*
X157313498Y-70975000D01*
X157293543Y-70746913D01*
X157234284Y-70525757D01*
X157137523Y-70318251D01*
X157006198Y-70130700D01*
X156844300Y-69968802D01*
X156656749Y-69837477D01*
X156617543Y-69819195D01*
X156564258Y-69772279D01*
X156544796Y-69704002D01*
X156565337Y-69636042D01*
X156617543Y-69590805D01*
X156619997Y-69589660D01*
X156656749Y-69572523D01*
X156844300Y-69441198D01*
X157006198Y-69279300D01*
X157137523Y-69091749D01*
X157234284Y-68884243D01*
X157293543Y-68663087D01*
X157313498Y-68435000D01*
X157293543Y-68206913D01*
X157234284Y-67985757D01*
X157137523Y-67778251D01*
X157006198Y-67590700D01*
X156844300Y-67428802D01*
X156837096Y-67423758D01*
X156710137Y-67334860D01*
X156656749Y-67297477D01*
X156617543Y-67279195D01*
X156564258Y-67232279D01*
X156544796Y-67164002D01*
X156565337Y-67096042D01*
X156617543Y-67050805D01*
X156619997Y-67049660D01*
X156656749Y-67032523D01*
X156844300Y-66901198D01*
X157006198Y-66739300D01*
X157137523Y-66551749D01*
X157234284Y-66344243D01*
X157293543Y-66123087D01*
X157313498Y-65895000D01*
X157293543Y-65666913D01*
X157234284Y-65445757D01*
X157137523Y-65238251D01*
X157006198Y-65050700D01*
X156844300Y-64888802D01*
X156798936Y-64857038D01*
X156751042Y-64823502D01*
X156656749Y-64757477D01*
X156617543Y-64739195D01*
X156564258Y-64692279D01*
X156544796Y-64624002D01*
X156565337Y-64556042D01*
X156617543Y-64510805D01*
X156628992Y-64505466D01*
X156656749Y-64492523D01*
X156844300Y-64361198D01*
X157006198Y-64199300D01*
X157137523Y-64011749D01*
X157234284Y-63804243D01*
X157293543Y-63583087D01*
X157313498Y-63355000D01*
X157293543Y-63126913D01*
X157234284Y-62905757D01*
X157137523Y-62698251D01*
X157006198Y-62510700D01*
X156844300Y-62348802D01*
X156656749Y-62217477D01*
X156617543Y-62199195D01*
X156564258Y-62152279D01*
X156544796Y-62084002D01*
X156565337Y-62016042D01*
X156617543Y-61970805D01*
X156626775Y-61966500D01*
X156656749Y-61952523D01*
X156844300Y-61821198D01*
X157006198Y-61659300D01*
X157137523Y-61471749D01*
X157234284Y-61264243D01*
X157284590Y-61076500D01*
X158087000Y-61076500D01*
X158087000Y-61185516D01*
X158097605Y-61289318D01*
X158097606Y-61289321D01*
X158153342Y-61457525D01*
X158246365Y-61608339D01*
X158246370Y-61608345D01*
X158371654Y-61733629D01*
X158371660Y-61733634D01*
X158522474Y-61826657D01*
X158690678Y-61882393D01*
X158690681Y-61882394D01*
X158794483Y-61892999D01*
X158794483Y-61893000D01*
X159216000Y-61893000D01*
X159216000Y-61076500D01*
X159724000Y-61076500D01*
X159724000Y-61893000D01*
X160145517Y-61893000D01*
X160145516Y-61892999D01*
X160249318Y-61882394D01*
X160249321Y-61882393D01*
X160417525Y-61826657D01*
X160568339Y-61733634D01*
X160568345Y-61733629D01*
X160693629Y-61608345D01*
X160693634Y-61608339D01*
X160786657Y-61457525D01*
X160842393Y-61289321D01*
X160842394Y-61289318D01*
X160852999Y-61185516D01*
X160853000Y-61185516D01*
X160853000Y-61076500D01*
X159724000Y-61076500D01*
X159216000Y-61076500D01*
X158087000Y-61076500D01*
X157284590Y-61076500D01*
X157293543Y-61043087D01*
X157313498Y-60815000D01*
X157293543Y-60586913D01*
X157288609Y-60568500D01*
X158087000Y-60568500D01*
X159216000Y-60568500D01*
X159216000Y-59752000D01*
X159724000Y-59752000D01*
X159724000Y-60568500D01*
X160853000Y-60568500D01*
X160853000Y-60459483D01*
X160842394Y-60355681D01*
X160842393Y-60355678D01*
X160786657Y-60187474D01*
X160693634Y-60036660D01*
X160693629Y-60036654D01*
X160568345Y-59911370D01*
X160568339Y-59911365D01*
X160417525Y-59818342D01*
X160249321Y-59762606D01*
X160249318Y-59762605D01*
X160145516Y-59752000D01*
X159724000Y-59752000D01*
X159216000Y-59752000D01*
X158794483Y-59752000D01*
X158690681Y-59762605D01*
X158690678Y-59762606D01*
X158522474Y-59818342D01*
X158371660Y-59911365D01*
X158371654Y-59911370D01*
X158246370Y-60036654D01*
X158246365Y-60036660D01*
X158153342Y-60187474D01*
X158097606Y-60355678D01*
X158097605Y-60355681D01*
X158087000Y-60459483D01*
X158087000Y-60568500D01*
X157288609Y-60568500D01*
X157234284Y-60365757D01*
X157137523Y-60158251D01*
X157006198Y-59970700D01*
X156844300Y-59808802D01*
X156656749Y-59677477D01*
X156634527Y-59667115D01*
X156617543Y-59659195D01*
X156564258Y-59612279D01*
X156544796Y-59544002D01*
X156565337Y-59476042D01*
X156617543Y-59430805D01*
X156619997Y-59429660D01*
X156656749Y-59412523D01*
X156844300Y-59281198D01*
X157006198Y-59119300D01*
X157137523Y-58931749D01*
X157234284Y-58724243D01*
X157293543Y-58503087D01*
X157313498Y-58275000D01*
X157293543Y-58046913D01*
X157234284Y-57825757D01*
X157137523Y-57618251D01*
X157006198Y-57430700D01*
X156844300Y-57268802D01*
X156656749Y-57137477D01*
X156617543Y-57119195D01*
X156564258Y-57072279D01*
X156544796Y-57004002D01*
X156565337Y-56936042D01*
X156617543Y-56890805D01*
X156619997Y-56889660D01*
X156656749Y-56872523D01*
X156844300Y-56741198D01*
X157006198Y-56579300D01*
X157137523Y-56391749D01*
X157234284Y-56184243D01*
X157293543Y-55963087D01*
X157313498Y-55735000D01*
X157293543Y-55506913D01*
X157234284Y-55285757D01*
X157137523Y-55078251D01*
X157006198Y-54890700D01*
X156844300Y-54728802D01*
X156656749Y-54597477D01*
X156617543Y-54579195D01*
X156564258Y-54532279D01*
X156544796Y-54464002D01*
X156565337Y-54396042D01*
X156617543Y-54350805D01*
X156619997Y-54349660D01*
X156656749Y-54332523D01*
X156844300Y-54201198D01*
X156850798Y-54194699D01*
X156913103Y-54160671D01*
X156983919Y-54165729D01*
X157028994Y-54194695D01*
X158743093Y-55908872D01*
X158755056Y-55922714D01*
X158769531Y-55942158D01*
X158769532Y-55942159D01*
X158809965Y-55976086D01*
X158814007Y-55979790D01*
X158819886Y-55985669D01*
X158819892Y-55985674D01*
X158819899Y-55985680D01*
X158845165Y-56005658D01*
X158846585Y-56006815D01*
X158905361Y-56056133D01*
X158911496Y-56060168D01*
X158911458Y-56060224D01*
X158917801Y-56064265D01*
X158917838Y-56064207D01*
X158924077Y-56068055D01*
X158924080Y-56068058D01*
X158924083Y-56068059D01*
X158924084Y-56068060D01*
X158935577Y-56073419D01*
X158993645Y-56100498D01*
X158995238Y-56101269D01*
X159063812Y-56135709D01*
X159063813Y-56135709D01*
X159063815Y-56135710D01*
X159070708Y-56138219D01*
X159070684Y-56138282D01*
X159077793Y-56140753D01*
X159077815Y-56140689D01*
X159084772Y-56142994D01*
X159084777Y-56142997D01*
X159084782Y-56142998D01*
X159084785Y-56142999D01*
X159159916Y-56158514D01*
X159161703Y-56158910D01*
X159178678Y-56162933D01*
X159236344Y-56176600D01*
X159236345Y-56176600D01*
X159243633Y-56177452D01*
X159243625Y-56177519D01*
X159251111Y-56178284D01*
X159251117Y-56178217D01*
X159258416Y-56178855D01*
X159258425Y-56178857D01*
X159305501Y-56177488D01*
X159335147Y-56176627D01*
X159336978Y-56176600D01*
X170521532Y-56176600D01*
X170539801Y-56177931D01*
X170563732Y-56181439D01*
X170616366Y-56176838D01*
X170621837Y-56176600D01*
X170630186Y-56176600D01*
X170653106Y-56173919D01*
X170662188Y-56172858D01*
X170663944Y-56172678D01*
X170740371Y-56165999D01*
X170740377Y-56165996D01*
X170747561Y-56164515D01*
X170747573Y-56164576D01*
X170754986Y-56162933D01*
X170754972Y-56162872D01*
X170762103Y-56161181D01*
X170762106Y-56161179D01*
X170762113Y-56161179D01*
X170834191Y-56134943D01*
X170835871Y-56134359D01*
X170877480Y-56120575D01*
X170908679Y-56110241D01*
X170908681Y-56110239D01*
X170908687Y-56110238D01*
X170908691Y-56110235D01*
X170915335Y-56107138D01*
X170915362Y-56107197D01*
X170922204Y-56103885D01*
X170922175Y-56103827D01*
X170928721Y-56100538D01*
X170928732Y-56100535D01*
X170976261Y-56069273D01*
X171044166Y-56048552D01*
X171112495Y-56067832D01*
X171159553Y-56120992D01*
X171171500Y-56174545D01*
X171171500Y-57705328D01*
X171151498Y-57773449D01*
X171107293Y-57812063D01*
X171108508Y-57814033D01*
X171102263Y-57817884D01*
X171102262Y-57817885D01*
X171047438Y-57851701D01*
X170951347Y-57910970D01*
X170951341Y-57910975D01*
X170825975Y-58036341D01*
X170825970Y-58036347D01*
X170732885Y-58187262D01*
X170677113Y-58355572D01*
X170677112Y-58355579D01*
X170666500Y-58459446D01*
X170666500Y-59810544D01*
X170677112Y-59914425D01*
X170732885Y-60082738D01*
X170825970Y-60233652D01*
X170825975Y-60233658D01*
X170951341Y-60359024D01*
X170951347Y-60359029D01*
X170951348Y-60359030D01*
X171102262Y-60452115D01*
X171270574Y-60507887D01*
X171374455Y-60518500D01*
X172100544Y-60518499D01*
X172204426Y-60507887D01*
X172372738Y-60452115D01*
X172523652Y-60359030D01*
X172649030Y-60233652D01*
X172742115Y-60082738D01*
X172797887Y-59914426D01*
X172808500Y-59810545D01*
X172808499Y-58459456D01*
X172797887Y-58355574D01*
X172797886Y-58355570D01*
X172797886Y-58355568D01*
X172762964Y-58250181D01*
X172742115Y-58187262D01*
X172738906Y-58182060D01*
X172707259Y-58130751D01*
X172688500Y-58064604D01*
X172688500Y-54164702D01*
X172690183Y-54148227D01*
X172690114Y-54148221D01*
X172690754Y-54140914D01*
X172688527Y-54064165D01*
X172688500Y-54062337D01*
X172688500Y-53938076D01*
X172703206Y-53883194D01*
X172701841Y-53882587D01*
X172704523Y-53876562D01*
X172704527Y-53876556D01*
X172763542Y-53694928D01*
X172783504Y-53505000D01*
X172763542Y-53315072D01*
X172704527Y-53133444D01*
X172609040Y-52968056D01*
X172609038Y-52968054D01*
X172609034Y-52968048D01*
X172481255Y-52826135D01*
X172326752Y-52713882D01*
X172152288Y-52636206D01*
X171965487Y-52596500D01*
X171774513Y-52596500D01*
X171587711Y-52636206D01*
X171413247Y-52713882D01*
X171258744Y-52826135D01*
X171130965Y-52968048D01*
X171130958Y-52968058D01*
X171035476Y-53133438D01*
X171035473Y-53133445D01*
X170976457Y-53315072D01*
X170956496Y-53504999D01*
X170976457Y-53694928D01*
X171016401Y-53817862D01*
X171018428Y-53888830D01*
X170985657Y-53945900D01*
X170308755Y-54622702D01*
X170246440Y-54656722D01*
X170219666Y-54659600D01*
X167767375Y-54659600D01*
X167699254Y-54639598D01*
X167652761Y-54585942D01*
X167642657Y-54515668D01*
X167666507Y-54458090D01*
X167750445Y-54345963D01*
X167801494Y-54209093D01*
X167807999Y-54148597D01*
X167808000Y-54148585D01*
X167808000Y-52604000D01*
X166981116Y-52604000D01*
X167009493Y-52559844D01*
X167050000Y-52421889D01*
X167050000Y-52278111D01*
X167009493Y-52140156D01*
X166981116Y-52096000D01*
X167808000Y-52096000D01*
X167808000Y-50551414D01*
X167807999Y-50551402D01*
X167801494Y-50490906D01*
X167750444Y-50354035D01*
X167750444Y-50354034D01*
X167662904Y-50237095D01*
X167545965Y-50149555D01*
X167409093Y-50098505D01*
X167348597Y-50092000D01*
X165804000Y-50092000D01*
X165804000Y-51850000D01*
X165296000Y-51850000D01*
X165296000Y-50092000D01*
X163751402Y-50092000D01*
X163690906Y-50098505D01*
X163554035Y-50149555D01*
X163554034Y-50149555D01*
X163437095Y-50237095D01*
X163349555Y-50354034D01*
X163345238Y-50361943D01*
X163342000Y-50360175D01*
X163309717Y-50403043D01*
X163243126Y-50427662D01*
X163173796Y-50412371D01*
X163123738Y-50362025D01*
X163108499Y-50301961D01*
X163108499Y-48380830D01*
X163105689Y-48327908D01*
X163060970Y-48096686D01*
X162977818Y-47876348D01*
X162977816Y-47876344D01*
X162977815Y-47876342D01*
X162858626Y-47673233D01*
X162706819Y-47493180D01*
X162526766Y-47341373D01*
X162323657Y-47222184D01*
X162323652Y-47222182D01*
X162171166Y-47164636D01*
X163291500Y-47164636D01*
X163301970Y-47297669D01*
X163351234Y-47493181D01*
X163357320Y-47517332D01*
X163357323Y-47517341D01*
X163451004Y-47723588D01*
X163451009Y-47723597D01*
X163580011Y-47909799D01*
X163580015Y-47909804D01*
X163740195Y-48069984D01*
X163740200Y-48069988D01*
X163926402Y-48198990D01*
X163926408Y-48198993D01*
X163926409Y-48198994D01*
X164132664Y-48292679D01*
X164352331Y-48348030D01*
X164485364Y-48358500D01*
X164485367Y-48358500D01*
X166614633Y-48358500D01*
X166614636Y-48358500D01*
X166747669Y-48348030D01*
X166967336Y-48292679D01*
X167173591Y-48198994D01*
X167294829Y-48115000D01*
X167359799Y-48069988D01*
X167359798Y-48069988D01*
X167359802Y-48069986D01*
X167519986Y-47909802D01*
X167648994Y-47723591D01*
X167742679Y-47517336D01*
X167798030Y-47297669D01*
X167808500Y-47164636D01*
X167808500Y-45535364D01*
X167798030Y-45402331D01*
X167742679Y-45182664D01*
X167648994Y-44976409D01*
X167648993Y-44976408D01*
X167648990Y-44976402D01*
X167519988Y-44790200D01*
X167519984Y-44790195D01*
X167359804Y-44630015D01*
X167359799Y-44630011D01*
X167173597Y-44501009D01*
X167173588Y-44501004D01*
X166967341Y-44407323D01*
X166967338Y-44407322D01*
X166967336Y-44407321D01*
X166747669Y-44351970D01*
X166614636Y-44341500D01*
X164485364Y-44341500D01*
X164352331Y-44351970D01*
X164352327Y-44351970D01*
X164352326Y-44351971D01*
X164132667Y-44407320D01*
X164132658Y-44407323D01*
X163926411Y-44501004D01*
X163926402Y-44501009D01*
X163740200Y-44630011D01*
X163740195Y-44630015D01*
X163580015Y-44790195D01*
X163580011Y-44790200D01*
X163451009Y-44976402D01*
X163451004Y-44976411D01*
X163357323Y-45182658D01*
X163357321Y-45182664D01*
X163301970Y-45402331D01*
X163291500Y-45535364D01*
X163291500Y-47164636D01*
X162171166Y-47164636D01*
X162103318Y-47139031D01*
X162103315Y-47139030D01*
X162103314Y-47139030D01*
X161872092Y-47094311D01*
X161819171Y-47091500D01*
X161819158Y-47091500D01*
X159880840Y-47091500D01*
X159841329Y-47093598D01*
X159827908Y-47094311D01*
X159827907Y-47094311D01*
X159752971Y-47108804D01*
X159596686Y-47139030D01*
X159596684Y-47139030D01*
X159596682Y-47139031D01*
X159376347Y-47222182D01*
X159376342Y-47222184D01*
X159173233Y-47341373D01*
X158993180Y-47493180D01*
X158841373Y-47673233D01*
X158722184Y-47876342D01*
X158722182Y-47876347D01*
X158639031Y-48096681D01*
X158639030Y-48096685D01*
X158639030Y-48096686D01*
X158594311Y-48327908D01*
X158591500Y-48380829D01*
X158591500Y-48380840D01*
X158591500Y-48380841D01*
X158591500Y-50319159D01*
X158591501Y-50319170D01*
X158594311Y-50372092D01*
X158632879Y-50571511D01*
X158639031Y-50603317D01*
X158722182Y-50823652D01*
X158722184Y-50823657D01*
X158841373Y-51026766D01*
X158993180Y-51206819D01*
X159173233Y-51358626D01*
X159376342Y-51477815D01*
X159376344Y-51477816D01*
X159376348Y-51477818D01*
X159596686Y-51560970D01*
X159827908Y-51605689D01*
X159880829Y-51608500D01*
X161819170Y-51608499D01*
X161872092Y-51605689D01*
X162103314Y-51560970D01*
X162323652Y-51477818D01*
X162526768Y-51358625D01*
X162706819Y-51206819D01*
X162858625Y-51026768D01*
X162977818Y-50823652D01*
X163048115Y-50637376D01*
X163090881Y-50580706D01*
X163157497Y-50556152D01*
X163226812Y-50571511D01*
X163276820Y-50621907D01*
X163292000Y-50681865D01*
X163292000Y-52096000D01*
X164118884Y-52096000D01*
X164090507Y-52140156D01*
X164050000Y-52278111D01*
X164050000Y-52421889D01*
X164090507Y-52559844D01*
X164118884Y-52604000D01*
X163292000Y-52604000D01*
X163292000Y-54148597D01*
X163298505Y-54209093D01*
X163349554Y-54345963D01*
X163433493Y-54458090D01*
X163458304Y-54524611D01*
X163443213Y-54593985D01*
X163393011Y-54644187D01*
X163332625Y-54659600D01*
X159691383Y-54659600D01*
X159623262Y-54639598D01*
X159602286Y-54622693D01*
X158674561Y-53694927D01*
X157683908Y-52704229D01*
X157671948Y-52690391D01*
X157657469Y-52670942D01*
X157657466Y-52670940D01*
X157657466Y-52670939D01*
X157617028Y-52637007D01*
X157612975Y-52633293D01*
X157607122Y-52627439D01*
X157607107Y-52627426D01*
X157581832Y-52607440D01*
X157580413Y-52606284D01*
X157521640Y-52556968D01*
X157515506Y-52552933D01*
X157515542Y-52552877D01*
X157509200Y-52548836D01*
X157509165Y-52548894D01*
X157502917Y-52545040D01*
X157433392Y-52512618D01*
X157431745Y-52511820D01*
X157363191Y-52477392D01*
X157356291Y-52474881D01*
X157356313Y-52474818D01*
X157349213Y-52472349D01*
X157349193Y-52472412D01*
X157342227Y-52470104D01*
X157342223Y-52470103D01*
X157320371Y-52465590D01*
X157267066Y-52454581D01*
X157265280Y-52454185D01*
X157190658Y-52436500D01*
X157183366Y-52435648D01*
X157183373Y-52435579D01*
X157175888Y-52434815D01*
X157175883Y-52434883D01*
X157168576Y-52434243D01*
X157168575Y-52434243D01*
X157168573Y-52434243D01*
X157134673Y-52435228D01*
X157066000Y-52417213D01*
X157027801Y-52381552D01*
X157006200Y-52350703D01*
X157006195Y-52350697D01*
X156844302Y-52188804D01*
X156844296Y-52188799D01*
X156656747Y-52057475D01*
X156617541Y-52039193D01*
X156564256Y-51992276D01*
X156544796Y-51923998D01*
X156565338Y-51856039D01*
X156617542Y-51810805D01*
X156656749Y-51792523D01*
X156844300Y-51661198D01*
X157006198Y-51499300D01*
X157137523Y-51311749D01*
X157234284Y-51104243D01*
X157293543Y-50883087D01*
X157313498Y-50655000D01*
X157293543Y-50426913D01*
X157234284Y-50205757D01*
X157137523Y-49998251D01*
X157006198Y-49810700D01*
X156844300Y-49648802D01*
X156656749Y-49517477D01*
X156617543Y-49499195D01*
X156564258Y-49452279D01*
X156544796Y-49384002D01*
X156565337Y-49316042D01*
X156617543Y-49270805D01*
X156619997Y-49269660D01*
X156656749Y-49252523D01*
X156844300Y-49121198D01*
X157006198Y-48959300D01*
X157137523Y-48771749D01*
X157234284Y-48564243D01*
X157293543Y-48343087D01*
X157313498Y-48115000D01*
X157293543Y-47886913D01*
X157234284Y-47665757D01*
X157137523Y-47458251D01*
X157006198Y-47270700D01*
X156844300Y-47108802D01*
X156656749Y-46977477D01*
X156617543Y-46959195D01*
X156564258Y-46912279D01*
X156544796Y-46844002D01*
X156565337Y-46776042D01*
X156617543Y-46730805D01*
X156619997Y-46729660D01*
X156656749Y-46712523D01*
X156844300Y-46581198D01*
X157006198Y-46419300D01*
X157137523Y-46231749D01*
X157234284Y-46024243D01*
X157293543Y-45803087D01*
X157313498Y-45575000D01*
X157293543Y-45346913D01*
X157234284Y-45125757D01*
X157137523Y-44918251D01*
X157006198Y-44730700D01*
X156844300Y-44568802D01*
X156656749Y-44437477D01*
X156473380Y-44351971D01*
X156449246Y-44340717D01*
X156449240Y-44340715D01*
X156355771Y-44315670D01*
X156228087Y-44281457D01*
X156000000Y-44261502D01*
X155771913Y-44281457D01*
X155550759Y-44340715D01*
X155550753Y-44340717D01*
X155343250Y-44437477D01*
X155155703Y-44568799D01*
X155155697Y-44568804D01*
X154993804Y-44730697D01*
X154993799Y-44730703D01*
X154862477Y-44918250D01*
X154765717Y-45125753D01*
X154765715Y-45125759D01*
X154750467Y-45182667D01*
X154706457Y-45346913D01*
X154686502Y-45575000D01*
X154706457Y-45803087D01*
X154765716Y-46024243D01*
X154862477Y-46231749D01*
X154993802Y-46419300D01*
X155155700Y-46581198D01*
X155155703Y-46581200D01*
X155343249Y-46712522D01*
X155343250Y-46712522D01*
X155343251Y-46712523D01*
X155382457Y-46730805D01*
X155435741Y-46777719D01*
X155455203Y-46845996D01*
X155434663Y-46913956D01*
X155382459Y-46959193D01*
X155343251Y-46977476D01*
X155155703Y-47108799D01*
X155155697Y-47108804D01*
X154993804Y-47270697D01*
X154993799Y-47270703D01*
X154862477Y-47458250D01*
X154765717Y-47665753D01*
X154765715Y-47665759D01*
X154709288Y-47876347D01*
X154706457Y-47886913D01*
X154686502Y-48115000D01*
X154706457Y-48343087D01*
X154765716Y-48564243D01*
X154862477Y-48771749D01*
X154993802Y-48959300D01*
X155155700Y-49121198D01*
X155343251Y-49252523D01*
X155378359Y-49268894D01*
X155382457Y-49270805D01*
X155435742Y-49317722D01*
X155455203Y-49385999D01*
X155434661Y-49453959D01*
X155382457Y-49499195D01*
X155343250Y-49517477D01*
X155155703Y-49648799D01*
X155155697Y-49648804D01*
X154993804Y-49810697D01*
X154993799Y-49810703D01*
X154862477Y-49998250D01*
X154765717Y-50205753D01*
X154765715Y-50205759D01*
X154706457Y-50426913D01*
X154686502Y-50655000D01*
X154706457Y-50883086D01*
X154765715Y-51104240D01*
X154765717Y-51104246D01*
X154862477Y-51311748D01*
X154862477Y-51311749D01*
X154993802Y-51499300D01*
X155155700Y-51661198D01*
X155343251Y-51792523D01*
X155378359Y-51808894D01*
X155382457Y-51810805D01*
X155435742Y-51857722D01*
X155455203Y-51925999D01*
X155434661Y-51993959D01*
X155382457Y-52039195D01*
X155343250Y-52057477D01*
X155155703Y-52188799D01*
X155155697Y-52188804D01*
X154993804Y-52350697D01*
X154993799Y-52350703D01*
X154862477Y-52538250D01*
X154765717Y-52745753D01*
X154765715Y-52745759D01*
X154741889Y-52834680D01*
X154706457Y-52966913D01*
X154686502Y-53195000D01*
X154706457Y-53423087D01*
X154728406Y-53505000D01*
X154765715Y-53644240D01*
X154765717Y-53644246D01*
X154846675Y-53817862D01*
X154862477Y-53851749D01*
X154993802Y-54039300D01*
X155155700Y-54201198D01*
X155343251Y-54332523D01*
X155378359Y-54348894D01*
X155382457Y-54350805D01*
X155435742Y-54397722D01*
X155455203Y-54465999D01*
X155434661Y-54533959D01*
X155382457Y-54579195D01*
X155343250Y-54597477D01*
X155155703Y-54728799D01*
X155155697Y-54728804D01*
X154993804Y-54890697D01*
X154993799Y-54890703D01*
X154862477Y-55078250D01*
X154765717Y-55285753D01*
X154765715Y-55285759D01*
X154706457Y-55506913D01*
X154686502Y-55735000D01*
X154706457Y-55963087D01*
X154731389Y-56056132D01*
X154764964Y-56181439D01*
X154765716Y-56184243D01*
X154862477Y-56391749D01*
X154993802Y-56579300D01*
X155155700Y-56741198D01*
X155343251Y-56872523D01*
X155378359Y-56888894D01*
X155382457Y-56890805D01*
X155435742Y-56937722D01*
X155455203Y-57005999D01*
X155434661Y-57073959D01*
X155382457Y-57119195D01*
X155343250Y-57137477D01*
X155155703Y-57268799D01*
X155155697Y-57268804D01*
X154993804Y-57430697D01*
X154993799Y-57430703D01*
X154862477Y-57618250D01*
X154765717Y-57825753D01*
X154765715Y-57825759D01*
X154713011Y-58022453D01*
X154706457Y-58046913D01*
X154686502Y-58275000D01*
X154706457Y-58503087D01*
X154719027Y-58549997D01*
X154765715Y-58724240D01*
X154765717Y-58724246D01*
X154862477Y-58931749D01*
X154980419Y-59100188D01*
X154993802Y-59119300D01*
X155155700Y-59281198D01*
X155343251Y-59412523D01*
X155378359Y-59428894D01*
X155382457Y-59430805D01*
X155435742Y-59477722D01*
X155455203Y-59545999D01*
X155434661Y-59613959D01*
X155382457Y-59659195D01*
X155343250Y-59677477D01*
X155155703Y-59808799D01*
X155155697Y-59808804D01*
X154993804Y-59970697D01*
X154993799Y-59970703D01*
X154862477Y-60158250D01*
X154765717Y-60365753D01*
X154765715Y-60365759D01*
X154724788Y-60518500D01*
X154706457Y-60586913D01*
X154686502Y-60815000D01*
X154706457Y-61043087D01*
X154733855Y-61145336D01*
X154765715Y-61264240D01*
X154765717Y-61264246D01*
X154862477Y-61471749D01*
X154958118Y-61608339D01*
X154993802Y-61659300D01*
X155155700Y-61821198D01*
X155343251Y-61952523D01*
X155363120Y-61961788D01*
X155382457Y-61970805D01*
X155435742Y-62017722D01*
X155455203Y-62085999D01*
X155434661Y-62153959D01*
X155382457Y-62199195D01*
X155343250Y-62217477D01*
X155155703Y-62348799D01*
X155155697Y-62348804D01*
X154993804Y-62510697D01*
X154993799Y-62510703D01*
X154862477Y-62698250D01*
X154765717Y-62905753D01*
X154765715Y-62905759D01*
X154719764Y-63077250D01*
X154706457Y-63126913D01*
X154686502Y-63355000D01*
X154706457Y-63583087D01*
X154715950Y-63618514D01*
X154765715Y-63804240D01*
X154765717Y-63804246D01*
X154862477Y-64011749D01*
X154966008Y-64159607D01*
X154993802Y-64199300D01*
X155155700Y-64361198D01*
X155343251Y-64492523D01*
X155371008Y-64505466D01*
X155382457Y-64510805D01*
X155435742Y-64557722D01*
X155455203Y-64625999D01*
X155434661Y-64693959D01*
X155382457Y-64739195D01*
X155343250Y-64757477D01*
X155155703Y-64888799D01*
X155155697Y-64888804D01*
X154993804Y-65050697D01*
X154993799Y-65050703D01*
X154862477Y-65238250D01*
X154765717Y-65445753D01*
X154765715Y-65445759D01*
X154734852Y-65560942D01*
X154706457Y-65666913D01*
X154686502Y-65895000D01*
X154706457Y-66123087D01*
X154709145Y-66133117D01*
X154765715Y-66344240D01*
X154765717Y-66344246D01*
X154862477Y-66551749D01*
X154991046Y-66735365D01*
X154993802Y-66739300D01*
X155155700Y-66901198D01*
X155343251Y-67032523D01*
X155378359Y-67048894D01*
X155382457Y-67050805D01*
X155435742Y-67097722D01*
X155455203Y-67165999D01*
X155434661Y-67233959D01*
X155382457Y-67279195D01*
X155343250Y-67297477D01*
X155155703Y-67428799D01*
X155155697Y-67428804D01*
X154993804Y-67590697D01*
X154993799Y-67590703D01*
X154862477Y-67778250D01*
X154765717Y-67985753D01*
X154765715Y-67985759D01*
X154732482Y-68109787D01*
X154706457Y-68206913D01*
X154686502Y-68435000D01*
X154706457Y-68663087D01*
X154726624Y-68738352D01*
X154765715Y-68884240D01*
X154765717Y-68884246D01*
X154862477Y-69091749D01*
X154971567Y-69247546D01*
X154993802Y-69279300D01*
X155155700Y-69441198D01*
X155343251Y-69572523D01*
X155363564Y-69581995D01*
X155382457Y-69590805D01*
X155435742Y-69637722D01*
X155455203Y-69705999D01*
X155434661Y-69773959D01*
X155382457Y-69819195D01*
X155343250Y-69837477D01*
X155155703Y-69968799D01*
X155155697Y-69968804D01*
X154993804Y-70130697D01*
X154993799Y-70130703D01*
X154862477Y-70318250D01*
X154765717Y-70525753D01*
X154765715Y-70525759D01*
X154739679Y-70622928D01*
X154706457Y-70746913D01*
X154686502Y-70975000D01*
X154706457Y-71203087D01*
X154726275Y-71277049D01*
X154765715Y-71424240D01*
X154765717Y-71424246D01*
X154862477Y-71631749D01*
X154959029Y-71769640D01*
X154993802Y-71819300D01*
X155155700Y-71981198D01*
X155343251Y-72112523D01*
X155378359Y-72128894D01*
X155382457Y-72130805D01*
X155435742Y-72177722D01*
X155455203Y-72245999D01*
X155434661Y-72313959D01*
X155382457Y-72359195D01*
X155343250Y-72377477D01*
X155155703Y-72508799D01*
X155155697Y-72508804D01*
X154993804Y-72670697D01*
X154993795Y-72670708D01*
X154862477Y-72858250D01*
X154859721Y-72863024D01*
X154857940Y-72861995D01*
X154816932Y-72908539D01*
X154748649Y-72927978D01*
X154680695Y-72907414D01*
X154660592Y-72891076D01*
X154627768Y-72858251D01*
X152295367Y-70525753D01*
X149230403Y-67460662D01*
X149196379Y-67398349D01*
X149193500Y-67371568D01*
X149193500Y-64779205D01*
X149213502Y-64711084D01*
X149267158Y-64664591D01*
X149337432Y-64654487D01*
X149372755Y-64665013D01*
X149377258Y-64667112D01*
X149377262Y-64667115D01*
X149545574Y-64722887D01*
X149649455Y-64733500D01*
X150375544Y-64733499D01*
X150479426Y-64722887D01*
X150647738Y-64667115D01*
X150798652Y-64574030D01*
X150924030Y-64448652D01*
X151017115Y-64297738D01*
X151072887Y-64129426D01*
X151083500Y-64025545D01*
X151083499Y-62674456D01*
X151080041Y-62640610D01*
X151072887Y-62570574D01*
X151068198Y-62556423D01*
X151017115Y-62402262D01*
X150924030Y-62251348D01*
X150924029Y-62251347D01*
X150924024Y-62251341D01*
X150798658Y-62125975D01*
X150798652Y-62125970D01*
X150721307Y-62078263D01*
X150686102Y-62056548D01*
X150638625Y-62003763D01*
X150629035Y-61961563D01*
X150627328Y-61961788D01*
X150621040Y-61914021D01*
X150620500Y-61905790D01*
X150620500Y-61015826D01*
X150640502Y-60947705D01*
X150680353Y-60908585D01*
X150682734Y-60907116D01*
X150682738Y-60907115D01*
X150833652Y-60814030D01*
X150959030Y-60688652D01*
X151052115Y-60537738D01*
X151107887Y-60369426D01*
X151118500Y-60265545D01*
X151118499Y-58914456D01*
X151107887Y-58810574D01*
X151052115Y-58642262D01*
X150959030Y-58491348D01*
X150959029Y-58491347D01*
X150959024Y-58491341D01*
X150833658Y-58365975D01*
X150833650Y-58365968D01*
X150740352Y-58308421D01*
X150692875Y-58255635D01*
X150680500Y-58201181D01*
X150680500Y-57774238D01*
X150700502Y-57706117D01*
X150740350Y-57666999D01*
X150858652Y-57594030D01*
X150984030Y-57468652D01*
X151077115Y-57317738D01*
X151132887Y-57149426D01*
X151143500Y-57045545D01*
X151143499Y-55694456D01*
X151132887Y-55590574D01*
X151077115Y-55422262D01*
X150984030Y-55271348D01*
X150984029Y-55271347D01*
X150984024Y-55271341D01*
X150858658Y-55145975D01*
X150858652Y-55145970D01*
X150707738Y-55052885D01*
X150623581Y-55024999D01*
X150539427Y-54997113D01*
X150539420Y-54997112D01*
X150435553Y-54986500D01*
X149709454Y-54986500D01*
X149623841Y-54995246D01*
X149554040Y-54982269D01*
X149521923Y-54958975D01*
X149304429Y-54741392D01*
X149298999Y-54735199D01*
X149276987Y-54706513D01*
X149276986Y-54706512D01*
X149215849Y-54659600D01*
X149149984Y-54609039D01*
X149149983Y-54609038D01*
X149149981Y-54609037D01*
X149149924Y-54609004D01*
X149149877Y-54608976D01*
X149074419Y-54577721D01*
X149001970Y-54547694D01*
X149001853Y-54547663D01*
X149001850Y-54547662D01*
X148977195Y-54544415D01*
X148922827Y-54537257D01*
X148922823Y-54537257D01*
X148918744Y-54536720D01*
X148843125Y-54526750D01*
X148843123Y-54526750D01*
X148807269Y-54531462D01*
X148799051Y-54532000D01*
X146636864Y-54532000D01*
X146628662Y-54531464D01*
X146610854Y-54529127D01*
X146592736Y-54526750D01*
X146592735Y-54526750D01*
X146592734Y-54526750D01*
X146514417Y-54537094D01*
X146468507Y-54543138D01*
X146434140Y-54547663D01*
X146434013Y-54547698D01*
X146433896Y-54547729D01*
X146407760Y-54558568D01*
X146359351Y-54578644D01*
X146341733Y-54585942D01*
X146286107Y-54608983D01*
X146285937Y-54609083D01*
X146285902Y-54609102D01*
X146221770Y-54658356D01*
X146159012Y-54706514D01*
X146136950Y-54735264D01*
X146131531Y-54741445D01*
X145501749Y-55371773D01*
X145495529Y-55377230D01*
X145467013Y-55399112D01*
X145443769Y-55429403D01*
X145443385Y-55429871D01*
X145417161Y-55464079D01*
X145369464Y-55526240D01*
X145369343Y-55526451D01*
X145338832Y-55600203D01*
X145308162Y-55674248D01*
X145308095Y-55674495D01*
X145308094Y-55674506D01*
X145297919Y-55752049D01*
X145296822Y-55760386D01*
X145292262Y-55795015D01*
X145292204Y-55795605D01*
X145287250Y-55833360D01*
X145287250Y-55833364D01*
X145291957Y-55869001D01*
X145292500Y-55877259D01*
X145292500Y-56938664D01*
X145272498Y-57006785D01*
X145255596Y-57027759D01*
X142096958Y-60186460D01*
X142034646Y-60220485D01*
X141963831Y-60215421D01*
X141906995Y-60172875D01*
X141898736Y-60160353D01*
X141897525Y-60158257D01*
X141897523Y-60158251D01*
X141766198Y-59970700D01*
X141604300Y-59808802D01*
X141549421Y-59770375D01*
X141416747Y-59677475D01*
X141377541Y-59659193D01*
X141324256Y-59612276D01*
X141304796Y-59543998D01*
X141325338Y-59476039D01*
X141377542Y-59430805D01*
X141416749Y-59412523D01*
X141604300Y-59281198D01*
X141766198Y-59119300D01*
X141897523Y-58931749D01*
X141994284Y-58724243D01*
X142053543Y-58503087D01*
X142073498Y-58275000D01*
X142053543Y-58046913D01*
X141994284Y-57825757D01*
X141897523Y-57618251D01*
X141766198Y-57430700D01*
X141604300Y-57268802D01*
X141416749Y-57137477D01*
X141377543Y-57119195D01*
X141324258Y-57072279D01*
X141304796Y-57004002D01*
X141325337Y-56936042D01*
X141377543Y-56890805D01*
X141379997Y-56889660D01*
X141416749Y-56872523D01*
X141604300Y-56741198D01*
X141766198Y-56579300D01*
X141897523Y-56391749D01*
X141994284Y-56184243D01*
X142053543Y-55963087D01*
X142073498Y-55735000D01*
X142053543Y-55506913D01*
X141994284Y-55285757D01*
X141897523Y-55078251D01*
X141766198Y-54890700D01*
X141604300Y-54728802D01*
X141416749Y-54597477D01*
X141377543Y-54579195D01*
X141324258Y-54532279D01*
X141304796Y-54464002D01*
X141325337Y-54396042D01*
X141377543Y-54350805D01*
X141379997Y-54349660D01*
X141416749Y-54332523D01*
X141604300Y-54201198D01*
X141766198Y-54039300D01*
X141897523Y-53851749D01*
X141994284Y-53644243D01*
X142053543Y-53423087D01*
X142073498Y-53195000D01*
X142053543Y-52966913D01*
X141994284Y-52745757D01*
X141897523Y-52538251D01*
X141766198Y-52350700D01*
X141604300Y-52188802D01*
X141416749Y-52057477D01*
X141377543Y-52039195D01*
X141324258Y-51992279D01*
X141304796Y-51924002D01*
X141325337Y-51856042D01*
X141377543Y-51810805D01*
X141379997Y-51809660D01*
X141416749Y-51792523D01*
X141604300Y-51661198D01*
X141766198Y-51499300D01*
X141897523Y-51311749D01*
X141994284Y-51104243D01*
X142053543Y-50883087D01*
X142073498Y-50655000D01*
X142053543Y-50426913D01*
X141994284Y-50205757D01*
X141897523Y-49998251D01*
X141766198Y-49810700D01*
X141604300Y-49648802D01*
X141416749Y-49517477D01*
X141377543Y-49499195D01*
X141324258Y-49452279D01*
X141304796Y-49384002D01*
X141325337Y-49316042D01*
X141377543Y-49270805D01*
X141379997Y-49269660D01*
X141416749Y-49252523D01*
X141604300Y-49121198D01*
X141766198Y-48959300D01*
X141897523Y-48771749D01*
X141994284Y-48564243D01*
X142053543Y-48343087D01*
X142073498Y-48115000D01*
X142053543Y-47886913D01*
X141994284Y-47665757D01*
X141897523Y-47458251D01*
X141766198Y-47270700D01*
X141604300Y-47108802D01*
X141416749Y-46977477D01*
X141377543Y-46959195D01*
X141324258Y-46912279D01*
X141304796Y-46844002D01*
X141325337Y-46776042D01*
X141377543Y-46730805D01*
X141379997Y-46729660D01*
X141416749Y-46712523D01*
X141604300Y-46581198D01*
X141766198Y-46419300D01*
X141897523Y-46231749D01*
X141994284Y-46024243D01*
X142053543Y-45803087D01*
X142073498Y-45575000D01*
X142053543Y-45346913D01*
X141994284Y-45125757D01*
X141897523Y-44918251D01*
X141766198Y-44730700D01*
X141604300Y-44568802D01*
X141416749Y-44437477D01*
X141233380Y-44351971D01*
X141209246Y-44340717D01*
X141209240Y-44340715D01*
X141115771Y-44315670D01*
X140988087Y-44281457D01*
X140760000Y-44261502D01*
X140531913Y-44281457D01*
X140310759Y-44340715D01*
X140310753Y-44340717D01*
X140103250Y-44437477D01*
X139915703Y-44568799D01*
X139915697Y-44568804D01*
X139753804Y-44730697D01*
X139753799Y-44730703D01*
X139622477Y-44918250D01*
X139525717Y-45125753D01*
X139525715Y-45125759D01*
X139510467Y-45182667D01*
X139466457Y-45346913D01*
X139446502Y-45575000D01*
X139466457Y-45803087D01*
X139525716Y-46024243D01*
X139622477Y-46231749D01*
X139753802Y-46419300D01*
X139915700Y-46581198D01*
X140103251Y-46712523D01*
X140138359Y-46728894D01*
X140142457Y-46730805D01*
X140195742Y-46777722D01*
X140215203Y-46845999D01*
X140194661Y-46913959D01*
X140142457Y-46959195D01*
X140103250Y-46977477D01*
X139915703Y-47108799D01*
X139915697Y-47108804D01*
X139753804Y-47270697D01*
X139753799Y-47270703D01*
X139622477Y-47458250D01*
X139525717Y-47665753D01*
X139525715Y-47665759D01*
X139469288Y-47876347D01*
X139466457Y-47886913D01*
X139446502Y-48115000D01*
X139466457Y-48343087D01*
X139525716Y-48564243D01*
X139622477Y-48771749D01*
X139753802Y-48959300D01*
X139915700Y-49121198D01*
X140103251Y-49252523D01*
X140138359Y-49268894D01*
X140142457Y-49270805D01*
X140195742Y-49317722D01*
X140215203Y-49385999D01*
X140194661Y-49453959D01*
X140142457Y-49499195D01*
X140103250Y-49517477D01*
X139915703Y-49648799D01*
X139915697Y-49648804D01*
X139753804Y-49810697D01*
X139753799Y-49810703D01*
X139622477Y-49998250D01*
X139525717Y-50205753D01*
X139525715Y-50205759D01*
X139466457Y-50426913D01*
X139446502Y-50655000D01*
X139466457Y-50883086D01*
X139525715Y-51104240D01*
X139525717Y-51104246D01*
X139622477Y-51311748D01*
X139622477Y-51311749D01*
X139753802Y-51499300D01*
X139915700Y-51661198D01*
X140103251Y-51792523D01*
X140138359Y-51808894D01*
X140142457Y-51810805D01*
X140195742Y-51857722D01*
X140215203Y-51925999D01*
X140194661Y-51993959D01*
X140142457Y-52039195D01*
X140103250Y-52057477D01*
X139915703Y-52188799D01*
X139915697Y-52188804D01*
X139753804Y-52350697D01*
X139753799Y-52350703D01*
X139622477Y-52538250D01*
X139525717Y-52745753D01*
X139525715Y-52745759D01*
X139501889Y-52834680D01*
X139466457Y-52966913D01*
X139446502Y-53195000D01*
X139466457Y-53423087D01*
X139488406Y-53505000D01*
X139525715Y-53644240D01*
X139525717Y-53644246D01*
X139606675Y-53817862D01*
X139622477Y-53851749D01*
X139753802Y-54039300D01*
X139915700Y-54201198D01*
X140103251Y-54332523D01*
X140138359Y-54348894D01*
X140142457Y-54350805D01*
X140195742Y-54397722D01*
X140215203Y-54465999D01*
X140194661Y-54533959D01*
X140142457Y-54579195D01*
X140103250Y-54597477D01*
X139915703Y-54728799D01*
X139915697Y-54728804D01*
X139753804Y-54890697D01*
X139753799Y-54890703D01*
X139622477Y-55078250D01*
X139525717Y-55285753D01*
X139525715Y-55285759D01*
X139466457Y-55506913D01*
X139446502Y-55735000D01*
X139466457Y-55963087D01*
X139491389Y-56056132D01*
X139524964Y-56181439D01*
X139525716Y-56184243D01*
X139622477Y-56391749D01*
X139753802Y-56579300D01*
X139915700Y-56741198D01*
X140103251Y-56872523D01*
X140138359Y-56888894D01*
X140142457Y-56890805D01*
X140195742Y-56937722D01*
X140215203Y-57005999D01*
X140194661Y-57073959D01*
X140142457Y-57119195D01*
X140103250Y-57137477D01*
X139915703Y-57268799D01*
X139915697Y-57268804D01*
X139753804Y-57430697D01*
X139753799Y-57430703D01*
X139622477Y-57618250D01*
X139525717Y-57825753D01*
X139525715Y-57825759D01*
X139473011Y-58022453D01*
X139466457Y-58046913D01*
X139446502Y-58275000D01*
X139466457Y-58503087D01*
X139479027Y-58549997D01*
X139525715Y-58724240D01*
X139525717Y-58724246D01*
X139622477Y-58931749D01*
X139740419Y-59100188D01*
X139753802Y-59119300D01*
X139915700Y-59281198D01*
X140103251Y-59412523D01*
X140138359Y-59428894D01*
X140142457Y-59430805D01*
X140195742Y-59477722D01*
X140215203Y-59545999D01*
X140194661Y-59613959D01*
X140142457Y-59659195D01*
X140103250Y-59677477D01*
X139915703Y-59808799D01*
X139915697Y-59808804D01*
X139753804Y-59970697D01*
X139753799Y-59970703D01*
X139622477Y-60158250D01*
X139525717Y-60365753D01*
X139525715Y-60365759D01*
X139484788Y-60518500D01*
X139466457Y-60586913D01*
X139446502Y-60815000D01*
X139466457Y-61043087D01*
X139493855Y-61145336D01*
X139525715Y-61264240D01*
X139525717Y-61264246D01*
X139622477Y-61471749D01*
X139753799Y-61659296D01*
X139753804Y-61659302D01*
X139780812Y-61686310D01*
X139814838Y-61748622D01*
X139809773Y-61819437D01*
X139780783Y-61864530D01*
X139254920Y-62390049D01*
X139248735Y-62395472D01*
X139220012Y-62417513D01*
X139172010Y-62480070D01*
X139122571Y-62544457D01*
X139122547Y-62544500D01*
X139122479Y-62544615D01*
X139092136Y-62617869D01*
X139061209Y-62692466D01*
X139061193Y-62692530D01*
X139061164Y-62692635D01*
X139050516Y-62773506D01*
X139047942Y-62793011D01*
X139042273Y-62835975D01*
X139040250Y-62851302D01*
X139044963Y-62887187D01*
X139045500Y-62895399D01*
X139045500Y-71401204D01*
X139044961Y-71409431D01*
X139041116Y-71438655D01*
X139040250Y-71445233D01*
X139040250Y-71445235D01*
X139048598Y-71508621D01*
X139061161Y-71604051D01*
X139061167Y-71604073D01*
X139087185Y-71666879D01*
X139122481Y-71752089D01*
X139122484Y-71752093D01*
X139174059Y-71819300D01*
X139178060Y-71824513D01*
X139220013Y-71879187D01*
X139220015Y-71879189D01*
X139248657Y-71901167D01*
X139254857Y-71906604D01*
X139797305Y-72448995D01*
X139831333Y-72511305D01*
X139826272Y-72582121D01*
X139797311Y-72627189D01*
X139753801Y-72670699D01*
X139622477Y-72858250D01*
X139525717Y-73065753D01*
X139525716Y-73065757D01*
X139466457Y-73286913D01*
X139446502Y-73515000D01*
X139466457Y-73743087D01*
X139478240Y-73787060D01*
X139525715Y-73964240D01*
X139525717Y-73964246D01*
X139551806Y-74020194D01*
X139622477Y-74171749D01*
X139753802Y-74359300D01*
X139915700Y-74521198D01*
X140103251Y-74652523D01*
X140138359Y-74668894D01*
X140142457Y-74670805D01*
X140195742Y-74717722D01*
X140215203Y-74785999D01*
X140194661Y-74853959D01*
X140142457Y-74899195D01*
X140103250Y-74917477D01*
X139915703Y-75048799D01*
X139915697Y-75048804D01*
X139753804Y-75210697D01*
X139753799Y-75210703D01*
X139622477Y-75398250D01*
X139525717Y-75605753D01*
X139525715Y-75605759D01*
X139478050Y-75783649D01*
X139466457Y-75826913D01*
X139446502Y-76055000D01*
X139466457Y-76283087D01*
X139525716Y-76504243D01*
X139622477Y-76711749D01*
X139753802Y-76899300D01*
X139915700Y-77061198D01*
X140103251Y-77192523D01*
X140138359Y-77208894D01*
X140142457Y-77210805D01*
X140195742Y-77257722D01*
X140215203Y-77325999D01*
X140194661Y-77393959D01*
X140142457Y-77439195D01*
X140103250Y-77457477D01*
X139915703Y-77588799D01*
X139915697Y-77588804D01*
X139753804Y-77750697D01*
X139753799Y-77750703D01*
X139622477Y-77938250D01*
X139525717Y-78145753D01*
X139525716Y-78145757D01*
X139466457Y-78366913D01*
X139446502Y-78595000D01*
X139466457Y-78823087D01*
X139525716Y-79044243D01*
X139622477Y-79251749D01*
X139753802Y-79439300D01*
X139915700Y-79601198D01*
X140103251Y-79732523D01*
X140133255Y-79746514D01*
X140143047Y-79751080D01*
X140196332Y-79797996D01*
X140215794Y-79866273D01*
X140195253Y-79934233D01*
X140143051Y-79979468D01*
X140103504Y-79997910D01*
X139916025Y-80129184D01*
X139916019Y-80129189D01*
X139754189Y-80291019D01*
X139754184Y-80291025D01*
X139622912Y-80478501D01*
X139526188Y-80685926D01*
X139526186Y-80685931D01*
X139473917Y-80881000D01*
X140328884Y-80881000D01*
X140300507Y-80925156D01*
X140260000Y-81063111D01*
X140260000Y-81206889D01*
X140300507Y-81344844D01*
X140328884Y-81389000D01*
X139473918Y-81389000D01*
X139526186Y-81584068D01*
X139526188Y-81584073D01*
X139622912Y-81791498D01*
X139754184Y-81978974D01*
X139754189Y-81978980D01*
X139916019Y-82140810D01*
X139916025Y-82140815D01*
X140103501Y-82272087D01*
X140310926Y-82368811D01*
X140310931Y-82368813D01*
X140506000Y-82421081D01*
X140506000Y-81568674D01*
X140617685Y-81619680D01*
X140724237Y-81635000D01*
X140795763Y-81635000D01*
X140902315Y-81619680D01*
X141014000Y-81568674D01*
X141014000Y-82421081D01*
X141209068Y-82368813D01*
X141209073Y-82368811D01*
X141416498Y-82272087D01*
X141603974Y-82140815D01*
X141603980Y-82140810D01*
X141765810Y-81978980D01*
X141765815Y-81978974D01*
X141897087Y-81791498D01*
X141993811Y-81584073D01*
X141993813Y-81584068D01*
X142046082Y-81389000D01*
X141191116Y-81389000D01*
X141219493Y-81344844D01*
X141260000Y-81206889D01*
X141260000Y-81063111D01*
X141219493Y-80925156D01*
X141191116Y-80881000D01*
X142046082Y-80881000D01*
X141993813Y-80685931D01*
X141993811Y-80685926D01*
X141897087Y-80478501D01*
X141765815Y-80291025D01*
X141765810Y-80291019D01*
X141603980Y-80129189D01*
X141603974Y-80129184D01*
X141416497Y-79997911D01*
X141376949Y-79979469D01*
X141323665Y-79932551D01*
X141304205Y-79864273D01*
X141324748Y-79796314D01*
X141376950Y-79751081D01*
X141416749Y-79732523D01*
X141604300Y-79601198D01*
X141766198Y-79439300D01*
X141897523Y-79251749D01*
X141994284Y-79044243D01*
X142053543Y-78823087D01*
X142073498Y-78595000D01*
X142053543Y-78366913D01*
X141994284Y-78145757D01*
X141897523Y-77938251D01*
X141766198Y-77750700D01*
X141604300Y-77588802D01*
X141416749Y-77457477D01*
X141377543Y-77439195D01*
X141324258Y-77392279D01*
X141304796Y-77324002D01*
X141325337Y-77256042D01*
X141377543Y-77210805D01*
X141379997Y-77209660D01*
X141416749Y-77192523D01*
X141604300Y-77061198D01*
X141766198Y-76899300D01*
X141897523Y-76711749D01*
X141994284Y-76504243D01*
X142053543Y-76283087D01*
X142073498Y-76055000D01*
X142053543Y-75826913D01*
X141994284Y-75605757D01*
X141897523Y-75398251D01*
X141766198Y-75210700D01*
X141604300Y-75048802D01*
X141568606Y-75023809D01*
X141541998Y-75005177D01*
X141416749Y-74917477D01*
X141377543Y-74899195D01*
X141324258Y-74852279D01*
X141304796Y-74784002D01*
X141325337Y-74716042D01*
X141377543Y-74670805D01*
X141379997Y-74669660D01*
X141416749Y-74652523D01*
X141604300Y-74521198D01*
X141766198Y-74359300D01*
X141897523Y-74171749D01*
X141994284Y-73964243D01*
X142053543Y-73743087D01*
X142073498Y-73515000D01*
X142053543Y-73286913D01*
X141994284Y-73065757D01*
X141897523Y-72858251D01*
X141766198Y-72670700D01*
X141604300Y-72508802D01*
X141604296Y-72508799D01*
X141604291Y-72508795D01*
X141416749Y-72377477D01*
X141416741Y-72377473D01*
X141377541Y-72359193D01*
X141324256Y-72312276D01*
X141304796Y-72243998D01*
X141325338Y-72176039D01*
X141377542Y-72130805D01*
X141416749Y-72112523D01*
X141604300Y-71981198D01*
X141766198Y-71819300D01*
X141897523Y-71631749D01*
X141994284Y-71424243D01*
X142053543Y-71203087D01*
X142073498Y-70975000D01*
X142053543Y-70746913D01*
X141994284Y-70525757D01*
X141897523Y-70318251D01*
X141766198Y-70130700D01*
X141604300Y-69968802D01*
X141416749Y-69837477D01*
X141377543Y-69819195D01*
X141324258Y-69772279D01*
X141304796Y-69704002D01*
X141325337Y-69636042D01*
X141377543Y-69590805D01*
X141379997Y-69589660D01*
X141416749Y-69572523D01*
X141604300Y-69441198D01*
X141766198Y-69279300D01*
X141897523Y-69091749D01*
X141994284Y-68884243D01*
X142053543Y-68663087D01*
X142073498Y-68435000D01*
X142068583Y-68378823D01*
X142082571Y-68309220D01*
X142131969Y-68258227D01*
X142201095Y-68242036D01*
X142268001Y-68265788D01*
X142283198Y-68278747D01*
X144753605Y-70749154D01*
X144759037Y-70755348D01*
X144781012Y-70783986D01*
X144810836Y-70806871D01*
X144810847Y-70806880D01*
X144870108Y-70852353D01*
X144870109Y-70852353D01*
X144870110Y-70852354D01*
X144908125Y-70881524D01*
X145056150Y-70942838D01*
X145175115Y-70958500D01*
X145175122Y-70958500D01*
X145215000Y-70963750D01*
X145231336Y-70961599D01*
X145301483Y-70972538D01*
X145336877Y-70997426D01*
X145579595Y-71240144D01*
X145613621Y-71302456D01*
X145616500Y-71329239D01*
X145616500Y-84203073D01*
X145596498Y-84271194D01*
X145542842Y-84317687D01*
X145490379Y-84329073D01*
X138140381Y-84322038D01*
X138072280Y-84301971D01*
X138025838Y-84248271D01*
X138014506Y-84195025D01*
X138382026Y-38596131D01*
X138402577Y-38528177D01*
X138456605Y-38482118D01*
X138508001Y-38471150D01*
X186203754Y-38465016D01*
X186271877Y-38485009D01*
G37*
%TD.AperFunction*%
%TD*%
M02*
