M48
; DRILL file {KiCad 7.0.5} date Tue Dec 19 17:12:41 2023
; FORMAT={-:-/ absolute / inch / decimal}
; #@! TF.CreationDate,2023-12-19T17:12:41-05:00
; #@! TF.GenerationSoftware,Kicad,Pcbnew,7.0.5
; #@! TF.FileFunction,Plated,1,2,PTH
FMAT,2
INCH
; #@! TA.AperFunction,Plated,PTH,ViaDrill
T1C0.0118
; #@! TA.AperFunction,Plated,PTH,ViaDrill
T2C0.0157
; #@! TA.AperFunction,Plated,PTH,ComponentDrill
T3C0.0315
; #@! TA.AperFunction,Plated,PTH,ComponentDrill
T4C0.0394
; #@! TA.AperFunction,Plated,PTH,ComponentDrill
T5C0.0433
; #@! TA.AperFunction,Plated,PTH,ComponentDrill
T6C0.0598
%
G90
G05
T1
X5.7072Y-2.5711
T2
X6.7665Y-2.1065
T3
X6.4047Y-2.5171
X6.5047Y-2.5171
X6.6047Y-2.5171
X6.7587Y-3.622
X6.7587Y-3.8327
X6.7606Y-3.4016
X6.7614Y-4.0366
X7.0043Y-2.5215
X7.0587Y-3.622
X7.0587Y-3.8327
X7.0606Y-3.4016
X7.0614Y-4.0366
X7.1043Y-2.5215
X7.2043Y-2.5215
T4
X5.5417Y-1.7943
X5.5417Y-1.8943
X5.5417Y-1.9943
X5.5417Y-2.0943
X5.5417Y-2.1943
X5.5417Y-2.2943
X5.5417Y-2.3943
X5.5417Y-2.4943
X5.5417Y-2.5943
X5.5417Y-2.6943
X5.5417Y-2.7943
X5.5417Y-2.8943
X5.5417Y-2.9943
X5.5417Y-3.0943
X5.5417Y-3.1943
X5.5569Y-3.9964
X5.6569Y-3.9964
X5.7569Y-3.9964
X5.8569Y-3.9964
X5.9569Y-3.9964
X6.0569Y-3.9964
X6.1417Y-1.7943
X6.1417Y-1.8943
X6.1417Y-1.9943
X6.1417Y-2.0943
X6.1417Y-2.1943
X6.1417Y-2.2943
X6.1417Y-2.3943
X6.1417Y-2.4943
X6.1417Y-2.5943
X6.1417Y-2.6943
X6.1417Y-2.7943
X6.1417Y-2.8943
X6.1417Y-2.9943
X6.1417Y-3.0943
X6.1417Y-3.1943
X6.1569Y-3.9964
X6.2569Y-3.9964
X6.3569Y-3.9964
X6.4569Y-3.9964
T5
X6.4433Y-2.6872
X6.4437Y-2.9423
X6.5433Y-2.6872
X6.5437Y-2.9423
X6.6433Y-2.6872
X6.6437Y-2.9423
X6.9295Y-2.9447
X6.935Y-2.6856
X7.0295Y-2.9447
X7.035Y-2.6856
X7.1295Y-2.9447
X7.135Y-2.6856
T6
X5.5665Y-4.2913
X5.7665Y-4.2913
X5.9665Y-4.2913
X6.1665Y-4.2913
X6.4358Y-4.2913
X6.6358Y-4.2913
X6.8358Y-4.2913
X7.0358Y-4.2913
X7.2358Y-4.2913
T4
G00X6.3327Y-1.9035
M15
G01X6.3327Y-1.9823
M16
G05
G00X6.5571Y-1.8248
M15
G01X6.4783Y-1.8248
M16
G05
G00X6.5571Y-2.061
M15
G01X6.4783Y-2.061
M16
G05
T0
M30
