%TF.GenerationSoftware,KiCad,Pcbnew,7.0.5*%
%TF.CreationDate,2023-12-19T17:12:35-05:00*%
%TF.ProjectId,biphasic_revision_b,62697068-6173-4696-935f-726576697369,rev?*%
%TF.SameCoordinates,Original*%
%TF.FileFunction,Legend,Bot*%
%TF.FilePolarity,Positive*%
%FSLAX46Y46*%
G04 Gerber Fmt 4.6, Leading zero omitted, Abs format (unit mm)*
G04 Created by KiCad (PCBNEW 7.0.5) date 2023-12-19 17:12:35*
%MOMM*%
%LPD*%
G01*
G04 APERTURE LIST*
%ADD10C,0.100000*%
%ADD11C,0.150000*%
G04 APERTURE END LIST*
D10*
X182833332Y-51042419D02*
X182833332Y-50042419D01*
X182833332Y-50518609D02*
X182261904Y-50518609D01*
X182261904Y-51042419D02*
X182261904Y-50042419D01*
X181785713Y-50947180D02*
X181738094Y-50994800D01*
X181738094Y-50994800D02*
X181785713Y-51042419D01*
X181785713Y-51042419D02*
X181833332Y-50994800D01*
X181833332Y-50994800D02*
X181785713Y-50947180D01*
X181785713Y-50947180D02*
X181785713Y-51042419D01*
X180976190Y-50518609D02*
X180833333Y-50566228D01*
X180833333Y-50566228D02*
X180785714Y-50613847D01*
X180785714Y-50613847D02*
X180738095Y-50709085D01*
X180738095Y-50709085D02*
X180738095Y-50851942D01*
X180738095Y-50851942D02*
X180785714Y-50947180D01*
X180785714Y-50947180D02*
X180833333Y-50994800D01*
X180833333Y-50994800D02*
X180928571Y-51042419D01*
X180928571Y-51042419D02*
X181309523Y-51042419D01*
X181309523Y-51042419D02*
X181309523Y-50042419D01*
X181309523Y-50042419D02*
X180976190Y-50042419D01*
X180976190Y-50042419D02*
X180880952Y-50090038D01*
X180880952Y-50090038D02*
X180833333Y-50137657D01*
X180833333Y-50137657D02*
X180785714Y-50232895D01*
X180785714Y-50232895D02*
X180785714Y-50328133D01*
X180785714Y-50328133D02*
X180833333Y-50423371D01*
X180833333Y-50423371D02*
X180880952Y-50470990D01*
X180880952Y-50470990D02*
X180976190Y-50518609D01*
X180976190Y-50518609D02*
X181309523Y-50518609D01*
X180309523Y-50947180D02*
X180261904Y-50994800D01*
X180261904Y-50994800D02*
X180309523Y-51042419D01*
X180309523Y-51042419D02*
X180357142Y-50994800D01*
X180357142Y-50994800D02*
X180309523Y-50947180D01*
X180309523Y-50947180D02*
X180309523Y-51042419D01*
X178738095Y-50518609D02*
X178595238Y-50566228D01*
X178595238Y-50566228D02*
X178547619Y-50613847D01*
X178547619Y-50613847D02*
X178500000Y-50709085D01*
X178500000Y-50709085D02*
X178500000Y-50851942D01*
X178500000Y-50851942D02*
X178547619Y-50947180D01*
X178547619Y-50947180D02*
X178595238Y-50994800D01*
X178595238Y-50994800D02*
X178690476Y-51042419D01*
X178690476Y-51042419D02*
X179071428Y-51042419D01*
X179071428Y-51042419D02*
X179071428Y-50042419D01*
X179071428Y-50042419D02*
X178738095Y-50042419D01*
X178738095Y-50042419D02*
X178642857Y-50090038D01*
X178642857Y-50090038D02*
X178595238Y-50137657D01*
X178595238Y-50137657D02*
X178547619Y-50232895D01*
X178547619Y-50232895D02*
X178547619Y-50328133D01*
X178547619Y-50328133D02*
X178595238Y-50423371D01*
X178595238Y-50423371D02*
X178642857Y-50470990D01*
X178642857Y-50470990D02*
X178738095Y-50518609D01*
X178738095Y-50518609D02*
X179071428Y-50518609D01*
X178071428Y-51042419D02*
X178071428Y-50375752D01*
X178071428Y-50042419D02*
X178119047Y-50090038D01*
X178119047Y-50090038D02*
X178071428Y-50137657D01*
X178071428Y-50137657D02*
X178023809Y-50090038D01*
X178023809Y-50090038D02*
X178071428Y-50042419D01*
X178071428Y-50042419D02*
X178071428Y-50137657D01*
X177595238Y-51042419D02*
X177595238Y-50375752D01*
X177595238Y-50566228D02*
X177547619Y-50470990D01*
X177547619Y-50470990D02*
X177500000Y-50423371D01*
X177500000Y-50423371D02*
X177404762Y-50375752D01*
X177404762Y-50375752D02*
X177309524Y-50375752D01*
X176547619Y-50375752D02*
X176547619Y-51185276D01*
X176547619Y-51185276D02*
X176595238Y-51280514D01*
X176595238Y-51280514D02*
X176642857Y-51328133D01*
X176642857Y-51328133D02*
X176738095Y-51375752D01*
X176738095Y-51375752D02*
X176880952Y-51375752D01*
X176880952Y-51375752D02*
X176976190Y-51328133D01*
X176547619Y-50994800D02*
X176642857Y-51042419D01*
X176642857Y-51042419D02*
X176833333Y-51042419D01*
X176833333Y-51042419D02*
X176928571Y-50994800D01*
X176928571Y-50994800D02*
X176976190Y-50947180D01*
X176976190Y-50947180D02*
X177023809Y-50851942D01*
X177023809Y-50851942D02*
X177023809Y-50566228D01*
X177023809Y-50566228D02*
X176976190Y-50470990D01*
X176976190Y-50470990D02*
X176928571Y-50423371D01*
X176928571Y-50423371D02*
X176833333Y-50375752D01*
X176833333Y-50375752D02*
X176642857Y-50375752D01*
X176642857Y-50375752D02*
X176547619Y-50423371D01*
X176071428Y-51042419D02*
X176071428Y-50375752D01*
X176071428Y-50042419D02*
X176119047Y-50090038D01*
X176119047Y-50090038D02*
X176071428Y-50137657D01*
X176071428Y-50137657D02*
X176023809Y-50090038D01*
X176023809Y-50090038D02*
X176071428Y-50042419D01*
X176071428Y-50042419D02*
X176071428Y-50137657D01*
X175595238Y-50375752D02*
X175595238Y-51042419D01*
X175595238Y-50470990D02*
X175547619Y-50423371D01*
X175547619Y-50423371D02*
X175452381Y-50375752D01*
X175452381Y-50375752D02*
X175309524Y-50375752D01*
X175309524Y-50375752D02*
X175214286Y-50423371D01*
X175214286Y-50423371D02*
X175166667Y-50518609D01*
X175166667Y-50518609D02*
X175166667Y-51042419D01*
X183547618Y-52652419D02*
X183547618Y-51652419D01*
X183547618Y-51652419D02*
X183309523Y-51652419D01*
X183309523Y-51652419D02*
X183166666Y-51700038D01*
X183166666Y-51700038D02*
X183071428Y-51795276D01*
X183071428Y-51795276D02*
X183023809Y-51890514D01*
X183023809Y-51890514D02*
X182976190Y-52080990D01*
X182976190Y-52080990D02*
X182976190Y-52223847D01*
X182976190Y-52223847D02*
X183023809Y-52414323D01*
X183023809Y-52414323D02*
X183071428Y-52509561D01*
X183071428Y-52509561D02*
X183166666Y-52604800D01*
X183166666Y-52604800D02*
X183309523Y-52652419D01*
X183309523Y-52652419D02*
X183547618Y-52652419D01*
X182119047Y-52652419D02*
X182119047Y-52128609D01*
X182119047Y-52128609D02*
X182166666Y-52033371D01*
X182166666Y-52033371D02*
X182261904Y-51985752D01*
X182261904Y-51985752D02*
X182452380Y-51985752D01*
X182452380Y-51985752D02*
X182547618Y-52033371D01*
X182119047Y-52604800D02*
X182214285Y-52652419D01*
X182214285Y-52652419D02*
X182452380Y-52652419D01*
X182452380Y-52652419D02*
X182547618Y-52604800D01*
X182547618Y-52604800D02*
X182595237Y-52509561D01*
X182595237Y-52509561D02*
X182595237Y-52414323D01*
X182595237Y-52414323D02*
X182547618Y-52319085D01*
X182547618Y-52319085D02*
X182452380Y-52271466D01*
X182452380Y-52271466D02*
X182214285Y-52271466D01*
X182214285Y-52271466D02*
X182119047Y-52223847D01*
X181738094Y-51985752D02*
X181499999Y-52652419D01*
X181499999Y-52652419D02*
X181261904Y-51985752D01*
X180880951Y-52652419D02*
X180880951Y-51985752D01*
X180880951Y-51652419D02*
X180928570Y-51700038D01*
X180928570Y-51700038D02*
X180880951Y-51747657D01*
X180880951Y-51747657D02*
X180833332Y-51700038D01*
X180833332Y-51700038D02*
X180880951Y-51652419D01*
X180880951Y-51652419D02*
X180880951Y-51747657D01*
X179976190Y-52652419D02*
X179976190Y-51652419D01*
X179976190Y-52604800D02*
X180071428Y-52652419D01*
X180071428Y-52652419D02*
X180261904Y-52652419D01*
X180261904Y-52652419D02*
X180357142Y-52604800D01*
X180357142Y-52604800D02*
X180404761Y-52557180D01*
X180404761Y-52557180D02*
X180452380Y-52461942D01*
X180452380Y-52461942D02*
X180452380Y-52176228D01*
X180452380Y-52176228D02*
X180404761Y-52080990D01*
X180404761Y-52080990D02*
X180357142Y-52033371D01*
X180357142Y-52033371D02*
X180261904Y-51985752D01*
X180261904Y-51985752D02*
X180071428Y-51985752D01*
X180071428Y-51985752D02*
X179976190Y-52033371D01*
X178833332Y-51652419D02*
X178595237Y-52652419D01*
X178595237Y-52652419D02*
X178404761Y-51938133D01*
X178404761Y-51938133D02*
X178214285Y-52652419D01*
X178214285Y-52652419D02*
X177976190Y-51652419D01*
X177166666Y-52652419D02*
X177166666Y-52128609D01*
X177166666Y-52128609D02*
X177214285Y-52033371D01*
X177214285Y-52033371D02*
X177309523Y-51985752D01*
X177309523Y-51985752D02*
X177499999Y-51985752D01*
X177499999Y-51985752D02*
X177595237Y-52033371D01*
X177166666Y-52604800D02*
X177261904Y-52652419D01*
X177261904Y-52652419D02*
X177499999Y-52652419D01*
X177499999Y-52652419D02*
X177595237Y-52604800D01*
X177595237Y-52604800D02*
X177642856Y-52509561D01*
X177642856Y-52509561D02*
X177642856Y-52414323D01*
X177642856Y-52414323D02*
X177595237Y-52319085D01*
X177595237Y-52319085D02*
X177499999Y-52271466D01*
X177499999Y-52271466D02*
X177261904Y-52271466D01*
X177261904Y-52271466D02*
X177166666Y-52223847D01*
X176690475Y-52652419D02*
X176690475Y-51985752D01*
X176690475Y-52080990D02*
X176642856Y-52033371D01*
X176642856Y-52033371D02*
X176547618Y-51985752D01*
X176547618Y-51985752D02*
X176404761Y-51985752D01*
X176404761Y-51985752D02*
X176309523Y-52033371D01*
X176309523Y-52033371D02*
X176261904Y-52128609D01*
X176261904Y-52128609D02*
X176261904Y-52652419D01*
X176261904Y-52128609D02*
X176214285Y-52033371D01*
X176214285Y-52033371D02*
X176119047Y-51985752D01*
X176119047Y-51985752D02*
X175976190Y-51985752D01*
X175976190Y-51985752D02*
X175880951Y-52033371D01*
X175880951Y-52033371D02*
X175833332Y-52128609D01*
X175833332Y-52128609D02*
X175833332Y-52652419D01*
X174928571Y-52652419D02*
X174928571Y-52128609D01*
X174928571Y-52128609D02*
X174976190Y-52033371D01*
X174976190Y-52033371D02*
X175071428Y-51985752D01*
X175071428Y-51985752D02*
X175261904Y-51985752D01*
X175261904Y-51985752D02*
X175357142Y-52033371D01*
X174928571Y-52604800D02*
X175023809Y-52652419D01*
X175023809Y-52652419D02*
X175261904Y-52652419D01*
X175261904Y-52652419D02*
X175357142Y-52604800D01*
X175357142Y-52604800D02*
X175404761Y-52509561D01*
X175404761Y-52509561D02*
X175404761Y-52414323D01*
X175404761Y-52414323D02*
X175357142Y-52319085D01*
X175357142Y-52319085D02*
X175261904Y-52271466D01*
X175261904Y-52271466D02*
X175023809Y-52271466D01*
X175023809Y-52271466D02*
X174928571Y-52223847D01*
X174452380Y-52652419D02*
X174452380Y-51985752D01*
X174452380Y-51652419D02*
X174499999Y-51700038D01*
X174499999Y-51700038D02*
X174452380Y-51747657D01*
X174452380Y-51747657D02*
X174404761Y-51700038D01*
X174404761Y-51700038D02*
X174452380Y-51652419D01*
X174452380Y-51652419D02*
X174452380Y-51747657D01*
X182904762Y-53262419D02*
X182904762Y-53976704D01*
X182904762Y-53976704D02*
X182952381Y-54119561D01*
X182952381Y-54119561D02*
X183047619Y-54214800D01*
X183047619Y-54214800D02*
X183190476Y-54262419D01*
X183190476Y-54262419D02*
X183285714Y-54262419D01*
X182285714Y-54262419D02*
X182380952Y-54214800D01*
X182380952Y-54214800D02*
X182428571Y-54167180D01*
X182428571Y-54167180D02*
X182476190Y-54071942D01*
X182476190Y-54071942D02*
X182476190Y-53786228D01*
X182476190Y-53786228D02*
X182428571Y-53690990D01*
X182428571Y-53690990D02*
X182380952Y-53643371D01*
X182380952Y-53643371D02*
X182285714Y-53595752D01*
X182285714Y-53595752D02*
X182142857Y-53595752D01*
X182142857Y-53595752D02*
X182047619Y-53643371D01*
X182047619Y-53643371D02*
X182000000Y-53690990D01*
X182000000Y-53690990D02*
X181952381Y-53786228D01*
X181952381Y-53786228D02*
X181952381Y-54071942D01*
X181952381Y-54071942D02*
X182000000Y-54167180D01*
X182000000Y-54167180D02*
X182047619Y-54214800D01*
X182047619Y-54214800D02*
X182142857Y-54262419D01*
X182142857Y-54262419D02*
X182285714Y-54262419D01*
X181095238Y-53595752D02*
X181095238Y-54262419D01*
X181523809Y-53595752D02*
X181523809Y-54119561D01*
X181523809Y-54119561D02*
X181476190Y-54214800D01*
X181476190Y-54214800D02*
X181380952Y-54262419D01*
X181380952Y-54262419D02*
X181238095Y-54262419D01*
X181238095Y-54262419D02*
X181142857Y-54214800D01*
X181142857Y-54214800D02*
X181095238Y-54167180D01*
X180190476Y-54262419D02*
X180190476Y-53262419D01*
X180190476Y-54214800D02*
X180285714Y-54262419D01*
X180285714Y-54262419D02*
X180476190Y-54262419D01*
X180476190Y-54262419D02*
X180571428Y-54214800D01*
X180571428Y-54214800D02*
X180619047Y-54167180D01*
X180619047Y-54167180D02*
X180666666Y-54071942D01*
X180666666Y-54071942D02*
X180666666Y-53786228D01*
X180666666Y-53786228D02*
X180619047Y-53690990D01*
X180619047Y-53690990D02*
X180571428Y-53643371D01*
X180571428Y-53643371D02*
X180476190Y-53595752D01*
X180476190Y-53595752D02*
X180285714Y-53595752D01*
X180285714Y-53595752D02*
X180190476Y-53643371D01*
X178999999Y-54214800D02*
X178857142Y-54262419D01*
X178857142Y-54262419D02*
X178619047Y-54262419D01*
X178619047Y-54262419D02*
X178523809Y-54214800D01*
X178523809Y-54214800D02*
X178476190Y-54167180D01*
X178476190Y-54167180D02*
X178428571Y-54071942D01*
X178428571Y-54071942D02*
X178428571Y-53976704D01*
X178428571Y-53976704D02*
X178476190Y-53881466D01*
X178476190Y-53881466D02*
X178523809Y-53833847D01*
X178523809Y-53833847D02*
X178619047Y-53786228D01*
X178619047Y-53786228D02*
X178809523Y-53738609D01*
X178809523Y-53738609D02*
X178904761Y-53690990D01*
X178904761Y-53690990D02*
X178952380Y-53643371D01*
X178952380Y-53643371D02*
X178999999Y-53548133D01*
X178999999Y-53548133D02*
X178999999Y-53452895D01*
X178999999Y-53452895D02*
X178952380Y-53357657D01*
X178952380Y-53357657D02*
X178904761Y-53310038D01*
X178904761Y-53310038D02*
X178809523Y-53262419D01*
X178809523Y-53262419D02*
X178571428Y-53262419D01*
X178571428Y-53262419D02*
X178428571Y-53310038D01*
X177571428Y-54262419D02*
X177571428Y-53738609D01*
X177571428Y-53738609D02*
X177619047Y-53643371D01*
X177619047Y-53643371D02*
X177714285Y-53595752D01*
X177714285Y-53595752D02*
X177904761Y-53595752D01*
X177904761Y-53595752D02*
X177999999Y-53643371D01*
X177571428Y-54214800D02*
X177666666Y-54262419D01*
X177666666Y-54262419D02*
X177904761Y-54262419D01*
X177904761Y-54262419D02*
X177999999Y-54214800D01*
X177999999Y-54214800D02*
X178047618Y-54119561D01*
X178047618Y-54119561D02*
X178047618Y-54024323D01*
X178047618Y-54024323D02*
X177999999Y-53929085D01*
X177999999Y-53929085D02*
X177904761Y-53881466D01*
X177904761Y-53881466D02*
X177666666Y-53881466D01*
X177666666Y-53881466D02*
X177571428Y-53833847D01*
X177238094Y-53595752D02*
X176857142Y-53595752D01*
X177095237Y-53262419D02*
X177095237Y-54119561D01*
X177095237Y-54119561D02*
X177047618Y-54214800D01*
X177047618Y-54214800D02*
X176952380Y-54262419D01*
X176952380Y-54262419D02*
X176857142Y-54262419D01*
X176523808Y-54262419D02*
X176523808Y-53595752D01*
X176523808Y-53690990D02*
X176476189Y-53643371D01*
X176476189Y-53643371D02*
X176380951Y-53595752D01*
X176380951Y-53595752D02*
X176238094Y-53595752D01*
X176238094Y-53595752D02*
X176142856Y-53643371D01*
X176142856Y-53643371D02*
X176095237Y-53738609D01*
X176095237Y-53738609D02*
X176095237Y-54262419D01*
X176095237Y-53738609D02*
X176047618Y-53643371D01*
X176047618Y-53643371D02*
X175952380Y-53595752D01*
X175952380Y-53595752D02*
X175809523Y-53595752D01*
X175809523Y-53595752D02*
X175714284Y-53643371D01*
X175714284Y-53643371D02*
X175666665Y-53738609D01*
X175666665Y-53738609D02*
X175666665Y-54262419D01*
X174809523Y-54214800D02*
X174904761Y-54262419D01*
X174904761Y-54262419D02*
X175095237Y-54262419D01*
X175095237Y-54262419D02*
X175190475Y-54214800D01*
X175190475Y-54214800D02*
X175238094Y-54119561D01*
X175238094Y-54119561D02*
X175238094Y-53738609D01*
X175238094Y-53738609D02*
X175190475Y-53643371D01*
X175190475Y-53643371D02*
X175095237Y-53595752D01*
X175095237Y-53595752D02*
X174904761Y-53595752D01*
X174904761Y-53595752D02*
X174809523Y-53643371D01*
X174809523Y-53643371D02*
X174761904Y-53738609D01*
X174761904Y-53738609D02*
X174761904Y-53833847D01*
X174761904Y-53833847D02*
X175238094Y-53929085D01*
X185928571Y-55586704D02*
X185452381Y-55586704D01*
X186023809Y-55872419D02*
X185690476Y-54872419D01*
X185690476Y-54872419D02*
X185357143Y-55872419D01*
X184595238Y-55205752D02*
X184595238Y-55872419D01*
X185023809Y-55205752D02*
X185023809Y-55729561D01*
X185023809Y-55729561D02*
X184976190Y-55824800D01*
X184976190Y-55824800D02*
X184880952Y-55872419D01*
X184880952Y-55872419D02*
X184738095Y-55872419D01*
X184738095Y-55872419D02*
X184642857Y-55824800D01*
X184642857Y-55824800D02*
X184595238Y-55777180D01*
X184166666Y-55824800D02*
X184071428Y-55872419D01*
X184071428Y-55872419D02*
X183880952Y-55872419D01*
X183880952Y-55872419D02*
X183785714Y-55824800D01*
X183785714Y-55824800D02*
X183738095Y-55729561D01*
X183738095Y-55729561D02*
X183738095Y-55681942D01*
X183738095Y-55681942D02*
X183785714Y-55586704D01*
X183785714Y-55586704D02*
X183880952Y-55539085D01*
X183880952Y-55539085D02*
X184023809Y-55539085D01*
X184023809Y-55539085D02*
X184119047Y-55491466D01*
X184119047Y-55491466D02*
X184166666Y-55396228D01*
X184166666Y-55396228D02*
X184166666Y-55348609D01*
X184166666Y-55348609D02*
X184119047Y-55253371D01*
X184119047Y-55253371D02*
X184023809Y-55205752D01*
X184023809Y-55205752D02*
X183880952Y-55205752D01*
X183880952Y-55205752D02*
X183785714Y-55253371D01*
X183452380Y-55205752D02*
X183071428Y-55205752D01*
X183309523Y-54872419D02*
X183309523Y-55729561D01*
X183309523Y-55729561D02*
X183261904Y-55824800D01*
X183261904Y-55824800D02*
X183166666Y-55872419D01*
X183166666Y-55872419D02*
X183071428Y-55872419D01*
X182738094Y-55872419D02*
X182738094Y-55205752D01*
X182738094Y-54872419D02*
X182785713Y-54920038D01*
X182785713Y-54920038D02*
X182738094Y-54967657D01*
X182738094Y-54967657D02*
X182690475Y-54920038D01*
X182690475Y-54920038D02*
X182738094Y-54872419D01*
X182738094Y-54872419D02*
X182738094Y-54967657D01*
X182261904Y-55205752D02*
X182261904Y-55872419D01*
X182261904Y-55300990D02*
X182214285Y-55253371D01*
X182214285Y-55253371D02*
X182119047Y-55205752D01*
X182119047Y-55205752D02*
X181976190Y-55205752D01*
X181976190Y-55205752D02*
X181880952Y-55253371D01*
X181880952Y-55253371D02*
X181833333Y-55348609D01*
X181833333Y-55348609D02*
X181833333Y-55872419D01*
X180023809Y-55872419D02*
X180357142Y-55396228D01*
X180595237Y-55872419D02*
X180595237Y-54872419D01*
X180595237Y-54872419D02*
X180214285Y-54872419D01*
X180214285Y-54872419D02*
X180119047Y-54920038D01*
X180119047Y-54920038D02*
X180071428Y-54967657D01*
X180071428Y-54967657D02*
X180023809Y-55062895D01*
X180023809Y-55062895D02*
X180023809Y-55205752D01*
X180023809Y-55205752D02*
X180071428Y-55300990D01*
X180071428Y-55300990D02*
X180119047Y-55348609D01*
X180119047Y-55348609D02*
X180214285Y-55396228D01*
X180214285Y-55396228D02*
X180595237Y-55396228D01*
X179595237Y-55777180D02*
X179547618Y-55824800D01*
X179547618Y-55824800D02*
X179595237Y-55872419D01*
X179595237Y-55872419D02*
X179642856Y-55824800D01*
X179642856Y-55824800D02*
X179595237Y-55777180D01*
X179595237Y-55777180D02*
X179595237Y-55872419D01*
X178833333Y-54872419D02*
X178833333Y-55586704D01*
X178833333Y-55586704D02*
X178880952Y-55729561D01*
X178880952Y-55729561D02*
X178976190Y-55824800D01*
X178976190Y-55824800D02*
X179119047Y-55872419D01*
X179119047Y-55872419D02*
X179214285Y-55872419D01*
X178357142Y-55777180D02*
X178309523Y-55824800D01*
X178309523Y-55824800D02*
X178357142Y-55872419D01*
X178357142Y-55872419D02*
X178404761Y-55824800D01*
X178404761Y-55824800D02*
X178357142Y-55777180D01*
X178357142Y-55777180D02*
X178357142Y-55872419D01*
X177119047Y-55872419D02*
X177119047Y-54872419D01*
X177119047Y-54872419D02*
X176880952Y-54872419D01*
X176880952Y-54872419D02*
X176738095Y-54920038D01*
X176738095Y-54920038D02*
X176642857Y-55015276D01*
X176642857Y-55015276D02*
X176595238Y-55110514D01*
X176595238Y-55110514D02*
X176547619Y-55300990D01*
X176547619Y-55300990D02*
X176547619Y-55443847D01*
X176547619Y-55443847D02*
X176595238Y-55634323D01*
X176595238Y-55634323D02*
X176642857Y-55729561D01*
X176642857Y-55729561D02*
X176738095Y-55824800D01*
X176738095Y-55824800D02*
X176880952Y-55872419D01*
X176880952Y-55872419D02*
X177119047Y-55872419D01*
X175976190Y-55872419D02*
X176071428Y-55824800D01*
X176071428Y-55824800D02*
X176119047Y-55777180D01*
X176119047Y-55777180D02*
X176166666Y-55681942D01*
X176166666Y-55681942D02*
X176166666Y-55396228D01*
X176166666Y-55396228D02*
X176119047Y-55300990D01*
X176119047Y-55300990D02*
X176071428Y-55253371D01*
X176071428Y-55253371D02*
X175976190Y-55205752D01*
X175976190Y-55205752D02*
X175833333Y-55205752D01*
X175833333Y-55205752D02*
X175738095Y-55253371D01*
X175738095Y-55253371D02*
X175690476Y-55300990D01*
X175690476Y-55300990D02*
X175642857Y-55396228D01*
X175642857Y-55396228D02*
X175642857Y-55681942D01*
X175642857Y-55681942D02*
X175690476Y-55777180D01*
X175690476Y-55777180D02*
X175738095Y-55824800D01*
X175738095Y-55824800D02*
X175833333Y-55872419D01*
X175833333Y-55872419D02*
X175976190Y-55872419D01*
X175309523Y-55205752D02*
X175119047Y-55872419D01*
X175119047Y-55872419D02*
X174928571Y-55396228D01*
X174928571Y-55396228D02*
X174738095Y-55872419D01*
X174738095Y-55872419D02*
X174547619Y-55205752D01*
X174166666Y-55205752D02*
X174166666Y-55872419D01*
X174166666Y-55300990D02*
X174119047Y-55253371D01*
X174119047Y-55253371D02*
X174023809Y-55205752D01*
X174023809Y-55205752D02*
X173880952Y-55205752D01*
X173880952Y-55205752D02*
X173785714Y-55253371D01*
X173785714Y-55253371D02*
X173738095Y-55348609D01*
X173738095Y-55348609D02*
X173738095Y-55872419D01*
X172880952Y-55824800D02*
X172976190Y-55872419D01*
X172976190Y-55872419D02*
X173166666Y-55872419D01*
X173166666Y-55872419D02*
X173261904Y-55824800D01*
X173261904Y-55824800D02*
X173309523Y-55729561D01*
X173309523Y-55729561D02*
X173309523Y-55348609D01*
X173309523Y-55348609D02*
X173261904Y-55253371D01*
X173261904Y-55253371D02*
X173166666Y-55205752D01*
X173166666Y-55205752D02*
X172976190Y-55205752D01*
X172976190Y-55205752D02*
X172880952Y-55253371D01*
X172880952Y-55253371D02*
X172833333Y-55348609D01*
X172833333Y-55348609D02*
X172833333Y-55443847D01*
X172833333Y-55443847D02*
X173309523Y-55539085D01*
X172499999Y-55205752D02*
X172261904Y-55872419D01*
X172023809Y-55205752D02*
X172261904Y-55872419D01*
X172261904Y-55872419D02*
X172357142Y-56110514D01*
X172357142Y-56110514D02*
X172404761Y-56158133D01*
X172404761Y-56158133D02*
X172499999Y-56205752D01*
D11*
X181142856Y-48203152D02*
X180904761Y-48869819D01*
X180904761Y-48869819D02*
X180666666Y-48203152D01*
X180095237Y-47869819D02*
X179999999Y-47869819D01*
X179999999Y-47869819D02*
X179904761Y-47917438D01*
X179904761Y-47917438D02*
X179857142Y-47965057D01*
X179857142Y-47965057D02*
X179809523Y-48060295D01*
X179809523Y-48060295D02*
X179761904Y-48250771D01*
X179761904Y-48250771D02*
X179761904Y-48488866D01*
X179761904Y-48488866D02*
X179809523Y-48679342D01*
X179809523Y-48679342D02*
X179857142Y-48774580D01*
X179857142Y-48774580D02*
X179904761Y-48822200D01*
X179904761Y-48822200D02*
X179999999Y-48869819D01*
X179999999Y-48869819D02*
X180095237Y-48869819D01*
X180095237Y-48869819D02*
X180190475Y-48822200D01*
X180190475Y-48822200D02*
X180238094Y-48774580D01*
X180238094Y-48774580D02*
X180285713Y-48679342D01*
X180285713Y-48679342D02*
X180333332Y-48488866D01*
X180333332Y-48488866D02*
X180333332Y-48250771D01*
X180333332Y-48250771D02*
X180285713Y-48060295D01*
X180285713Y-48060295D02*
X180238094Y-47965057D01*
X180238094Y-47965057D02*
X180190475Y-47917438D01*
X180190475Y-47917438D02*
X180095237Y-47869819D01*
X179333332Y-48774580D02*
X179285713Y-48822200D01*
X179285713Y-48822200D02*
X179333332Y-48869819D01*
X179333332Y-48869819D02*
X179380951Y-48822200D01*
X179380951Y-48822200D02*
X179333332Y-48774580D01*
X179333332Y-48774580D02*
X179333332Y-48869819D01*
X178904761Y-47965057D02*
X178857142Y-47917438D01*
X178857142Y-47917438D02*
X178761904Y-47869819D01*
X178761904Y-47869819D02*
X178523809Y-47869819D01*
X178523809Y-47869819D02*
X178428571Y-47917438D01*
X178428571Y-47917438D02*
X178380952Y-47965057D01*
X178380952Y-47965057D02*
X178333333Y-48060295D01*
X178333333Y-48060295D02*
X178333333Y-48155533D01*
X178333333Y-48155533D02*
X178380952Y-48298390D01*
X178380952Y-48298390D02*
X178952380Y-48869819D01*
X178952380Y-48869819D02*
X178333333Y-48869819D01*
X177904761Y-48774580D02*
X177857142Y-48822200D01*
X177857142Y-48822200D02*
X177904761Y-48869819D01*
X177904761Y-48869819D02*
X177952380Y-48822200D01*
X177952380Y-48822200D02*
X177904761Y-48774580D01*
X177904761Y-48774580D02*
X177904761Y-48869819D01*
X176904762Y-48869819D02*
X177476190Y-48869819D01*
X177190476Y-48869819D02*
X177190476Y-47869819D01*
X177190476Y-47869819D02*
X177285714Y-48012676D01*
X177285714Y-48012676D02*
X177380952Y-48107914D01*
X177380952Y-48107914D02*
X177476190Y-48155533D01*
%TO.C,G5*%
G36*
X145624036Y-80357767D02*
G01*
X145729776Y-80375286D01*
X145775403Y-80408012D01*
X145765437Y-80457650D01*
X145757470Y-80463559D01*
X145696321Y-80477615D01*
X145594999Y-80487318D01*
X145475025Y-80492117D01*
X145357923Y-80491465D01*
X145265214Y-80484811D01*
X145218420Y-80471607D01*
X145211288Y-80457789D01*
X145216349Y-80402209D01*
X145218500Y-80397642D01*
X145257252Y-80371911D01*
X145344116Y-80357832D01*
X145489506Y-80353552D01*
X145624036Y-80357767D01*
G37*
G36*
X162854918Y-92160167D02*
G01*
X162854918Y-92398663D01*
X162854261Y-92468505D01*
X162847570Y-92570744D01*
X162831371Y-92622690D01*
X162802869Y-92637158D01*
X162775467Y-92625800D01*
X162756340Y-92572204D01*
X162750819Y-92462794D01*
X162749743Y-92385740D01*
X162739210Y-92317480D01*
X162708443Y-92284804D01*
X162646721Y-92267609D01*
X162616705Y-92260543D01*
X162549526Y-92228432D01*
X162543970Y-92193765D01*
X162595298Y-92166610D01*
X162698770Y-92157033D01*
X162854918Y-92160167D01*
G37*
G36*
X162334426Y-66517271D02*
G01*
X162334426Y-66755767D01*
X162333770Y-66825609D01*
X162327078Y-66927848D01*
X162310879Y-66979794D01*
X162282377Y-66994262D01*
X162254975Y-66982904D01*
X162235848Y-66929307D01*
X162230328Y-66819897D01*
X162229252Y-66742843D01*
X162218718Y-66674584D01*
X162187951Y-66641908D01*
X162126229Y-66624713D01*
X162096213Y-66617647D01*
X162029034Y-66585535D01*
X162023478Y-66550869D01*
X162074806Y-66523713D01*
X162178278Y-66514137D01*
X162334426Y-66517271D01*
G37*
G36*
X161709836Y-92160167D02*
G01*
X161709836Y-92398663D01*
X161709179Y-92468505D01*
X161702488Y-92570744D01*
X161686289Y-92622690D01*
X161657787Y-92637158D01*
X161630385Y-92625800D01*
X161611258Y-92572204D01*
X161605738Y-92462794D01*
X161604661Y-92385740D01*
X161594128Y-92317480D01*
X161563361Y-92284804D01*
X161501639Y-92267609D01*
X161471623Y-92260543D01*
X161404444Y-92228432D01*
X161398888Y-92193765D01*
X161450216Y-92166610D01*
X161553688Y-92157033D01*
X161709836Y-92160167D01*
G37*
G36*
X145209182Y-106000904D02*
G01*
X145314024Y-106018519D01*
X145359094Y-106051156D01*
X145349044Y-106100546D01*
X145346779Y-106103091D01*
X145295745Y-106119387D01*
X145196967Y-106130889D01*
X145069400Y-106135246D01*
X145025736Y-106135151D01*
X144910227Y-106132214D01*
X144845591Y-106122271D01*
X144817394Y-106101442D01*
X144811202Y-106065847D01*
X144811556Y-106054111D01*
X144822481Y-106023064D01*
X144859474Y-106005691D01*
X144936970Y-105998112D01*
X145069400Y-105996448D01*
X145209182Y-106000904D01*
G37*
G36*
X164678145Y-66336629D02*
G01*
X164772272Y-66344288D01*
X164819712Y-66360316D01*
X164832787Y-66387022D01*
X164811333Y-66423553D01*
X164728688Y-66439071D01*
X164624590Y-66439071D01*
X164624590Y-66716666D01*
X164622933Y-66839621D01*
X164615274Y-66933748D01*
X164599247Y-66981187D01*
X164572541Y-66994262D01*
X164549487Y-66985425D01*
X164531838Y-66944577D01*
X164522943Y-66859098D01*
X164520492Y-66716666D01*
X164520492Y-66439071D01*
X164399044Y-66439071D01*
X164387983Y-66438977D01*
X164303931Y-66425518D01*
X164277595Y-66387022D01*
X164286432Y-66363968D01*
X164327280Y-66346319D01*
X164412759Y-66337424D01*
X164555191Y-66334973D01*
X164678145Y-66336629D01*
G37*
G36*
X145539085Y-79833109D02*
G01*
X145755926Y-79835355D01*
X145912138Y-79841899D01*
X146015073Y-79854045D01*
X146072083Y-79873100D01*
X146090519Y-79900369D01*
X146077732Y-79937158D01*
X146069362Y-79942451D01*
X146002911Y-79954582D01*
X145878580Y-79963853D01*
X145704676Y-79969775D01*
X145489506Y-79971858D01*
X145392642Y-79971685D01*
X145199432Y-79969549D01*
X145062953Y-79964379D01*
X144974221Y-79955429D01*
X144924250Y-79941952D01*
X144904054Y-79923201D01*
X144898025Y-79900062D01*
X144906125Y-79853802D01*
X144925913Y-79849052D01*
X145005561Y-79842698D01*
X145134445Y-79837629D01*
X145300479Y-79834274D01*
X145491577Y-79833060D01*
X145539085Y-79833109D01*
G37*
G36*
X145162203Y-105458654D02*
G01*
X145355109Y-105459750D01*
X145491629Y-105463077D01*
X145581676Y-105469667D01*
X145635159Y-105480551D01*
X145661991Y-105496762D01*
X145672083Y-105519330D01*
X145673292Y-105533103D01*
X145663737Y-105551502D01*
X145631493Y-105564374D01*
X145567219Y-105572693D01*
X145461572Y-105577431D01*
X145305212Y-105579561D01*
X145088798Y-105580054D01*
X144953877Y-105579907D01*
X144773867Y-105578570D01*
X144648426Y-105575027D01*
X144568211Y-105568303D01*
X144523881Y-105557428D01*
X144506095Y-105541428D01*
X144505513Y-105519330D01*
X144507467Y-105511533D01*
X144521724Y-105491062D01*
X144555819Y-105476626D01*
X144619663Y-105467195D01*
X144723166Y-105461736D01*
X144876241Y-105459217D01*
X145088798Y-105458606D01*
X145162203Y-105458654D01*
G37*
G36*
X167997604Y-95494189D02*
G01*
X168070745Y-95526718D01*
X168135584Y-95565396D01*
X168163664Y-95595287D01*
X168157962Y-95607214D01*
X168111885Y-95621311D01*
X168084700Y-95632413D01*
X168065408Y-95685703D01*
X168059836Y-95794809D01*
X168063167Y-95885426D01*
X168079153Y-95949732D01*
X168111885Y-95968306D01*
X168136158Y-95974352D01*
X168163934Y-96020355D01*
X168152832Y-96047540D01*
X168099543Y-96066832D01*
X167990437Y-96072404D01*
X167899820Y-96069074D01*
X167835513Y-96053087D01*
X167816940Y-96020355D01*
X167822985Y-95996082D01*
X167868989Y-95968306D01*
X167885284Y-95964764D01*
X167906971Y-95932910D01*
X167917977Y-95857379D01*
X167921038Y-95725410D01*
X167921060Y-95715732D01*
X167925204Y-95597866D01*
X167935127Y-95514277D01*
X167948820Y-95482513D01*
X167997604Y-95494189D01*
G37*
G36*
X163918301Y-92476516D02*
G01*
X163857501Y-92580049D01*
X163757104Y-92644998D01*
X163746917Y-92647563D01*
X163661662Y-92641605D01*
X163568778Y-92606873D01*
X163506770Y-92556914D01*
X163503424Y-92550597D01*
X163487003Y-92482165D01*
X163480039Y-92385587D01*
X163486629Y-92350167D01*
X163594337Y-92350167D01*
X163597706Y-92445716D01*
X163637271Y-92521149D01*
X163702040Y-92547585D01*
X163773449Y-92511757D01*
X163794417Y-92487669D01*
X163824425Y-92397479D01*
X163790582Y-92287883D01*
X163739183Y-92234522D01*
X163679108Y-92233087D01*
X163626148Y-92275463D01*
X163594337Y-92350167D01*
X163486629Y-92350167D01*
X163502575Y-92264460D01*
X163566851Y-92171714D01*
X163658018Y-92122514D01*
X163761120Y-92124688D01*
X163861202Y-92186065D01*
X163901597Y-92239717D01*
X163934626Y-92355903D01*
X163928999Y-92397479D01*
X163918301Y-92476516D01*
G37*
G36*
X161356371Y-92461685D02*
G01*
X161311522Y-92581897D01*
X161224044Y-92647430D01*
X161215538Y-92650178D01*
X161108789Y-92650014D01*
X161010948Y-92596776D01*
X160939455Y-92504905D01*
X160911748Y-92388841D01*
X160914230Y-92376376D01*
X161050546Y-92376376D01*
X161050938Y-92394848D01*
X161073312Y-92494847D01*
X161124877Y-92541949D01*
X161198386Y-92528690D01*
X161227909Y-92500531D01*
X161255685Y-92420015D01*
X161250597Y-92328572D01*
X161211092Y-92259114D01*
X161189922Y-92244393D01*
X161121559Y-92235121D01*
X161070566Y-92282427D01*
X161050546Y-92376376D01*
X160914230Y-92376376D01*
X160925847Y-92318025D01*
X160981493Y-92221456D01*
X161061224Y-92146688D01*
X161145347Y-92116666D01*
X161156978Y-92116925D01*
X161266439Y-92151946D01*
X161337514Y-92239938D01*
X161362841Y-92372248D01*
X161359385Y-92420015D01*
X161356371Y-92461685D01*
G37*
G36*
X168410477Y-69851720D02*
G01*
X168486390Y-69882992D01*
X168525828Y-69905089D01*
X168573121Y-69954819D01*
X168569125Y-69995970D01*
X168510929Y-70013115D01*
X168505943Y-70013174D01*
X168464925Y-70025540D01*
X168446071Y-70071682D01*
X168441530Y-70169262D01*
X168441556Y-70180480D01*
X168447052Y-70272770D01*
X168467560Y-70315193D01*
X168510929Y-70325410D01*
X168551399Y-70335070D01*
X168580328Y-70377459D01*
X168569225Y-70404644D01*
X168515936Y-70423936D01*
X168406830Y-70429508D01*
X168316213Y-70426177D01*
X168251907Y-70410191D01*
X168233333Y-70377459D01*
X168239379Y-70353185D01*
X168285382Y-70325410D01*
X168301677Y-70321868D01*
X168323364Y-70290013D01*
X168334371Y-70214483D01*
X168337431Y-70082513D01*
X168337453Y-70072836D01*
X168341598Y-69954970D01*
X168351520Y-69871381D01*
X168365213Y-69839617D01*
X168410477Y-69851720D01*
G37*
G36*
X164412369Y-69846701D02*
G01*
X164509949Y-69869486D01*
X164548420Y-69915865D01*
X164549190Y-69945683D01*
X164519989Y-69962932D01*
X164440347Y-69955415D01*
X164422969Y-69952824D01*
X164332970Y-69953299D01*
X164301721Y-69987780D01*
X164329074Y-70057477D01*
X164414881Y-70163602D01*
X164475179Y-70234570D01*
X164532890Y-70317816D01*
X164555191Y-70372664D01*
X164553645Y-70386797D01*
X164529781Y-70413164D01*
X164465729Y-70426082D01*
X164346994Y-70429508D01*
X164321909Y-70429405D01*
X164211467Y-70423908D01*
X164154787Y-70407681D01*
X164138798Y-70377459D01*
X164139316Y-70370274D01*
X164172601Y-70336038D01*
X164263840Y-70325410D01*
X164388883Y-70325410D01*
X164281190Y-70202754D01*
X164208516Y-70100788D01*
X164174027Y-69991670D01*
X164197119Y-69907541D01*
X164275033Y-69856351D01*
X164405008Y-69846053D01*
X164412369Y-69846701D01*
G37*
G36*
X164346994Y-92307513D02*
G01*
X164346880Y-92355323D01*
X164343887Y-92496077D01*
X164335458Y-92582212D01*
X164319757Y-92625361D01*
X164294945Y-92637158D01*
X164272869Y-92630809D01*
X164249708Y-92583930D01*
X164242896Y-92481011D01*
X164242896Y-92324863D01*
X164104098Y-92324863D01*
X164064195Y-92323919D01*
X163988220Y-92309005D01*
X163965300Y-92272814D01*
X163967819Y-92257850D01*
X164007588Y-92229360D01*
X164104098Y-92220765D01*
X164184212Y-92216836D01*
X164231257Y-92196769D01*
X164242896Y-92151366D01*
X164242836Y-92146380D01*
X164230471Y-92105363D01*
X164184328Y-92086508D01*
X164086748Y-92081967D01*
X164020520Y-92079851D01*
X163951036Y-92064224D01*
X163930601Y-92029918D01*
X163931011Y-92023647D01*
X163953002Y-91996036D01*
X164017907Y-91981866D01*
X164138798Y-91977869D01*
X164346994Y-91977869D01*
X164346994Y-92307513D01*
G37*
G36*
X163675905Y-66818779D02*
G01*
X163615787Y-66937533D01*
X163536675Y-67005931D01*
X163430002Y-67024378D01*
X163313732Y-66974945D01*
X163285890Y-66951909D01*
X163247325Y-66883535D01*
X163236612Y-66773380D01*
X163237503Y-66745647D01*
X163340710Y-66745647D01*
X163351060Y-66819123D01*
X163382350Y-66883224D01*
X163400259Y-66900261D01*
X163442866Y-66920006D01*
X163505533Y-66901882D01*
X163507819Y-66900838D01*
X163537468Y-66853285D01*
X163547769Y-66770773D01*
X163538364Y-66683366D01*
X163508892Y-66621132D01*
X163476148Y-66600896D01*
X163413645Y-66609162D01*
X163362129Y-66662129D01*
X163340710Y-66745647D01*
X163237503Y-66745647D01*
X163238296Y-66720973D01*
X163266390Y-66596863D01*
X163332927Y-66525707D01*
X163442891Y-66500923D01*
X163557997Y-66525058D01*
X163640712Y-66596637D01*
X163682115Y-66699846D01*
X163678412Y-66770773D01*
X163675905Y-66818779D01*
G37*
G36*
X162005583Y-66836811D02*
G01*
X161936960Y-66943790D01*
X161857152Y-67002908D01*
X161751947Y-67026123D01*
X161660317Y-66991473D01*
X161595577Y-66905159D01*
X161571038Y-66773380D01*
X161571930Y-66745647D01*
X161675136Y-66745647D01*
X161685486Y-66819123D01*
X161716776Y-66883224D01*
X161734686Y-66900261D01*
X161777292Y-66920006D01*
X161839959Y-66901882D01*
X161842245Y-66900838D01*
X161871894Y-66853285D01*
X161882196Y-66770773D01*
X161872790Y-66683366D01*
X161843318Y-66621132D01*
X161810574Y-66600896D01*
X161748072Y-66609162D01*
X161696555Y-66662129D01*
X161675136Y-66745647D01*
X161571930Y-66745647D01*
X161572723Y-66720973D01*
X161600816Y-66596863D01*
X161667354Y-66525707D01*
X161777317Y-66500923D01*
X161803729Y-66501473D01*
X161913455Y-66537607D01*
X161987736Y-66616812D01*
X162020476Y-66722183D01*
X162014163Y-66770773D01*
X162005583Y-66836811D01*
G37*
G36*
X172620335Y-95777459D02*
G01*
X172617617Y-95843163D01*
X172600970Y-95950112D01*
X172573952Y-96016515D01*
X172573736Y-96016773D01*
X172507771Y-96056072D01*
X172414617Y-96072404D01*
X172344372Y-96065266D01*
X172265240Y-96020466D01*
X172222017Y-95927304D01*
X172208899Y-95777459D01*
X172209607Y-95763148D01*
X172334872Y-95763148D01*
X172339156Y-95890926D01*
X172373643Y-95963098D01*
X172417225Y-95982637D01*
X172463292Y-95955115D01*
X172491020Y-95875682D01*
X172494812Y-95753999D01*
X172483963Y-95665425D01*
X172459994Y-95616439D01*
X172414617Y-95603962D01*
X172412964Y-95603969D01*
X172369542Y-95616281D01*
X172346376Y-95663624D01*
X172334872Y-95763148D01*
X172209607Y-95763148D01*
X172213878Y-95676746D01*
X172245125Y-95563291D01*
X172310103Y-95501321D01*
X172414617Y-95482513D01*
X172484863Y-95489652D01*
X172563995Y-95534452D01*
X172607218Y-95627614D01*
X172618281Y-95753999D01*
X172620335Y-95777459D01*
G37*
G36*
X161029808Y-95499901D02*
G01*
X161050546Y-95553133D01*
X161049713Y-95576863D01*
X161032553Y-95605651D01*
X160978436Y-95585161D01*
X160924598Y-95565676D01*
X160856988Y-95565501D01*
X160822773Y-95589185D01*
X160811183Y-95653311D01*
X160853362Y-95740781D01*
X160946448Y-95842730D01*
X160998976Y-95894085D01*
X161061046Y-95969075D01*
X161085246Y-96020265D01*
X161084816Y-96026698D01*
X161062774Y-96054278D01*
X160997887Y-96068420D01*
X160877049Y-96072404D01*
X160851964Y-96072302D01*
X160741522Y-96066804D01*
X160684841Y-96050578D01*
X160668852Y-96020355D01*
X160669844Y-96010582D01*
X160705187Y-95978247D01*
X160798034Y-95968306D01*
X160927215Y-95968306D01*
X160816878Y-95867529D01*
X160742159Y-95784955D01*
X160687020Y-95676886D01*
X160682635Y-95581950D01*
X160728756Y-95511807D01*
X160825135Y-95478120D01*
X160837582Y-95476985D01*
X160961744Y-95475491D01*
X161029808Y-95499901D01*
G37*
G36*
X163349216Y-92151379D02*
G01*
X163387727Y-92157201D01*
X163406385Y-92184486D01*
X163409208Y-92249067D01*
X163400215Y-92366775D01*
X163390206Y-92451686D01*
X163361739Y-92566437D01*
X163318318Y-92627787D01*
X163272210Y-92651232D01*
X163208745Y-92655274D01*
X163150759Y-92643123D01*
X163060277Y-92637158D01*
X162959016Y-92637158D01*
X162959016Y-92394262D01*
X162959024Y-92381885D01*
X162961353Y-92258884D01*
X162970653Y-92189308D01*
X162991033Y-92158390D01*
X163026602Y-92151366D01*
X163040843Y-92152113D01*
X163075586Y-92170382D01*
X163094535Y-92225423D01*
X163104675Y-92333538D01*
X163108096Y-92384341D01*
X163120927Y-92469856D01*
X163146547Y-92511316D01*
X163193238Y-92526798D01*
X163231428Y-92528942D01*
X163258088Y-92510604D01*
X163269131Y-92454419D01*
X163271311Y-92344626D01*
X163272349Y-92264110D01*
X163280744Y-92190409D01*
X163303013Y-92158360D01*
X163345530Y-92151366D01*
X163349216Y-92151379D01*
G37*
G36*
X162854918Y-66660203D02*
G01*
X162853924Y-66813196D01*
X162849145Y-66911600D01*
X162837922Y-66966051D01*
X162817599Y-66989341D01*
X162785519Y-66994262D01*
X162772023Y-66993679D01*
X162728106Y-66968737D01*
X162716120Y-66894501D01*
X162714671Y-66860452D01*
X162689414Y-66802361D01*
X162616204Y-66774757D01*
X162523103Y-66741893D01*
X162435826Y-66665721D01*
X162403825Y-66564673D01*
X162404583Y-66548240D01*
X162542360Y-66548240D01*
X162545867Y-66614141D01*
X162597510Y-66660905D01*
X162603370Y-66663125D01*
X162674655Y-66678967D01*
X162707916Y-66648423D01*
X162716120Y-66560519D01*
X162715846Y-66544609D01*
X162705321Y-66469583D01*
X162684259Y-66439071D01*
X162646530Y-66443998D01*
X162578684Y-66484445D01*
X162542360Y-66548240D01*
X162404583Y-66548240D01*
X162405223Y-66534366D01*
X162440887Y-66436460D01*
X162529058Y-66374386D01*
X162675595Y-66343374D01*
X162854918Y-66326144D01*
X162854918Y-66560519D01*
X162854918Y-66660203D01*
G37*
G36*
X173015031Y-70173178D02*
G01*
X173010520Y-70242619D01*
X172996366Y-70332972D01*
X172968140Y-70385148D01*
X172917759Y-70419624D01*
X172847882Y-70444568D01*
X172784798Y-70446507D01*
X172766207Y-70440360D01*
X172710934Y-70429508D01*
X172699346Y-70426654D01*
X172661542Y-70379388D01*
X172631215Y-70290555D01*
X172614124Y-70181708D01*
X172615241Y-70118868D01*
X172718884Y-70118868D01*
X172730874Y-70226527D01*
X172738639Y-70251033D01*
X172783324Y-70331011D01*
X172832541Y-70350896D01*
X172876672Y-70316830D01*
X172906100Y-70234952D01*
X172911205Y-70111402D01*
X172906209Y-70061710D01*
X172883122Y-69981092D01*
X172840067Y-69950219D01*
X172785714Y-69962609D01*
X172739704Y-70024469D01*
X172718884Y-70118868D01*
X172615241Y-70118868D01*
X172616031Y-70074401D01*
X172648240Y-69956646D01*
X172721686Y-69869076D01*
X172832265Y-69839617D01*
X172879289Y-69844736D01*
X172961880Y-69896835D01*
X173006942Y-70005977D01*
X173012042Y-70111402D01*
X173015031Y-70173178D01*
G37*
G36*
X162195628Y-92307513D02*
G01*
X162195514Y-92355323D01*
X162192521Y-92496077D01*
X162184092Y-92582212D01*
X162168390Y-92625361D01*
X162143579Y-92637158D01*
X162138839Y-92636939D01*
X162102817Y-92605535D01*
X162091530Y-92515710D01*
X162091525Y-92510642D01*
X162085323Y-92431844D01*
X162053822Y-92400122D01*
X161977022Y-92394262D01*
X161975394Y-92394260D01*
X161861009Y-92374964D01*
X161798326Y-92312532D01*
X161785743Y-92237673D01*
X161895712Y-92237673D01*
X161929724Y-92271625D01*
X162003692Y-92290164D01*
X162042549Y-92287617D01*
X162082256Y-92260400D01*
X162091530Y-92186065D01*
X162091149Y-92166507D01*
X162074607Y-92100456D01*
X162026380Y-92081967D01*
X161951362Y-92106063D01*
X161899858Y-92166191D01*
X161895712Y-92237673D01*
X161785743Y-92237673D01*
X161779235Y-92198954D01*
X161781059Y-92160122D01*
X161816935Y-92056198D01*
X161902314Y-91996783D01*
X162041959Y-91977869D01*
X162195628Y-91977869D01*
X162195628Y-92186065D01*
X162195628Y-92307513D01*
G37*
G36*
X160842350Y-92632549D02*
G01*
X160746926Y-92646555D01*
X160621734Y-92648747D01*
X160498181Y-92603666D01*
X160419110Y-92510047D01*
X160396306Y-92397901D01*
X160536155Y-92397901D01*
X160544882Y-92456164D01*
X160575439Y-92507549D01*
X160642828Y-92526690D01*
X160643907Y-92526814D01*
X160707094Y-92527335D01*
X160733155Y-92496406D01*
X160738251Y-92415138D01*
X160725944Y-92323243D01*
X160675657Y-92259106D01*
X160662909Y-92252820D01*
X160588453Y-92244708D01*
X160544177Y-92295082D01*
X160536155Y-92397901D01*
X160396306Y-92397901D01*
X160391257Y-92373068D01*
X160397117Y-92311071D01*
X160444455Y-92202916D01*
X160528868Y-92138258D01*
X160637767Y-92129534D01*
X160697487Y-92137865D01*
X160731670Y-92117745D01*
X160738251Y-92046400D01*
X160748953Y-91974163D01*
X160790300Y-91943169D01*
X160800721Y-91944670D01*
X160821525Y-91966512D01*
X160834246Y-92023361D01*
X160840612Y-92126663D01*
X160842350Y-92287859D01*
X160842350Y-92415138D01*
X160842350Y-92632549D01*
G37*
G36*
X163801171Y-66517838D02*
G01*
X163847216Y-66578334D01*
X163879507Y-66670522D01*
X163906574Y-66803415D01*
X163947719Y-66664617D01*
X163956997Y-66635457D01*
X164003852Y-66541048D01*
X164053873Y-66515509D01*
X164103526Y-66558734D01*
X164149278Y-66670618D01*
X164197852Y-66837202D01*
X164222500Y-66672836D01*
X164222622Y-66672023D01*
X164243446Y-66570184D01*
X164272089Y-66521154D01*
X164318133Y-66508470D01*
X164359015Y-66516520D01*
X164372481Y-66551844D01*
X164361330Y-66588657D01*
X164338161Y-66679250D01*
X164311197Y-66794740D01*
X164288836Y-66878211D01*
X164244421Y-66972288D01*
X164195587Y-66998804D01*
X164144799Y-66957169D01*
X164094519Y-66846789D01*
X164044457Y-66699317D01*
X163999386Y-66846789D01*
X163966111Y-66934981D01*
X163920093Y-66993900D01*
X163873705Y-66984148D01*
X163827944Y-66906124D01*
X163783806Y-66760230D01*
X163782414Y-66754391D01*
X163756757Y-66637303D01*
X163741878Y-66550733D01*
X163740960Y-66513047D01*
X163754684Y-66504162D01*
X163801171Y-66517838D01*
G37*
G36*
X155532179Y-69816681D02*
G01*
X155607202Y-69845043D01*
X155637431Y-69891290D01*
X155637371Y-69893824D01*
X155609286Y-69928364D01*
X155524658Y-69934003D01*
X155471299Y-69934117D01*
X155409183Y-69953141D01*
X155402903Y-69988402D01*
X155459195Y-70030018D01*
X155480018Y-70041105D01*
X155526729Y-70089400D01*
X155522419Y-70132968D01*
X155465982Y-70151912D01*
X155398815Y-70168109D01*
X155371827Y-70217282D01*
X155406497Y-70282844D01*
X155419735Y-70295272D01*
X155474445Y-70319610D01*
X155549401Y-70297608D01*
X155592272Y-70279772D01*
X155629413Y-70279826D01*
X155637431Y-70323609D01*
X155627472Y-70362377D01*
X155576707Y-70405589D01*
X155514203Y-70419238D01*
X155419006Y-70418201D01*
X155334371Y-70376552D01*
X155298975Y-70346134D01*
X155274252Y-70298132D01*
X155264776Y-70219550D01*
X155265926Y-70091109D01*
X155266608Y-70069763D01*
X155273069Y-69952977D01*
X155287026Y-69885371D01*
X155315031Y-69849217D01*
X155363638Y-69826785D01*
X155435858Y-69811741D01*
X155532179Y-69816681D01*
G37*
G36*
X168768540Y-95404440D02*
G01*
X168770009Y-95409184D01*
X168775151Y-95466764D01*
X168735565Y-95482513D01*
X168698748Y-95469560D01*
X168659781Y-95413115D01*
X168653681Y-95395170D01*
X168611056Y-95354979D01*
X168520983Y-95343716D01*
X168489575Y-95344525D01*
X168414872Y-95362998D01*
X168382185Y-95413115D01*
X168360612Y-95452562D01*
X168294973Y-95482513D01*
X168246993Y-95470159D01*
X168250070Y-95421789D01*
X168250609Y-95420430D01*
X168275233Y-95356530D01*
X168315357Y-95250673D01*
X168345795Y-95169678D01*
X168466317Y-95169678D01*
X168466631Y-95223952D01*
X168517890Y-95239617D01*
X168563994Y-95229109D01*
X168566690Y-95184730D01*
X168557156Y-95156186D01*
X168545628Y-95095934D01*
X168544099Y-95082784D01*
X168523664Y-95075753D01*
X168492243Y-95109825D01*
X168466317Y-95169678D01*
X168345795Y-95169678D01*
X168362568Y-95125045D01*
X168407340Y-95017586D01*
X168461619Y-94929210D01*
X168514520Y-94899396D01*
X168568852Y-94930078D01*
X168627426Y-95023190D01*
X168693052Y-95180666D01*
X168694423Y-95184730D01*
X168768540Y-95404440D01*
G37*
G36*
X173524955Y-69583820D02*
G01*
X173569361Y-69702790D01*
X173600199Y-69788509D01*
X173611748Y-69825232D01*
X173606259Y-69839215D01*
X173567767Y-69841433D01*
X173514531Y-69814946D01*
X173472951Y-69770218D01*
X173431549Y-69725439D01*
X173329683Y-69700819D01*
X173328281Y-69700822D01*
X173243265Y-69716853D01*
X173205409Y-69770218D01*
X173183836Y-69809666D01*
X173118197Y-69839617D01*
X173070217Y-69827263D01*
X173073294Y-69778893D01*
X173073663Y-69777963D01*
X173098089Y-69714608D01*
X173138064Y-69609162D01*
X173169026Y-69526781D01*
X173289541Y-69526781D01*
X173289855Y-69581056D01*
X173341114Y-69596721D01*
X173387218Y-69586213D01*
X173389914Y-69541834D01*
X173380380Y-69513290D01*
X173368852Y-69453037D01*
X173367323Y-69439888D01*
X173346888Y-69432857D01*
X173315467Y-69466928D01*
X173289541Y-69526781D01*
X173169026Y-69526781D01*
X173185125Y-69483948D01*
X173222854Y-69389535D01*
X173277882Y-69286536D01*
X173328699Y-69248405D01*
X173380177Y-69275848D01*
X173437190Y-69369573D01*
X173504613Y-69530287D01*
X173509001Y-69541834D01*
X173524955Y-69583820D01*
G37*
G36*
X165058285Y-69560208D02*
G01*
X165102471Y-69680078D01*
X165133420Y-69770154D01*
X165145082Y-69813028D01*
X165137344Y-69834225D01*
X165097742Y-69840878D01*
X165048325Y-69816523D01*
X165016338Y-69770218D01*
X165012542Y-69758055D01*
X164971489Y-69713527D01*
X164883127Y-69700819D01*
X164869928Y-69700980D01*
X164785520Y-69718208D01*
X164746038Y-69770218D01*
X164734774Y-69793281D01*
X164691548Y-69831605D01*
X164645836Y-69841535D01*
X164624250Y-69813593D01*
X164625290Y-69806592D01*
X164642162Y-69747226D01*
X164675422Y-69645083D01*
X164707107Y-69553347D01*
X164833318Y-69553347D01*
X164839051Y-69573470D01*
X164884836Y-69596721D01*
X164912639Y-69592816D01*
X164935350Y-69556960D01*
X164914706Y-69475202D01*
X164891578Y-69438434D01*
X164863189Y-69463689D01*
X164851355Y-69485962D01*
X164833318Y-69553347D01*
X164707107Y-69553347D01*
X164719539Y-69517353D01*
X164760825Y-69408312D01*
X164816900Y-69297165D01*
X164868662Y-69253299D01*
X164920858Y-69276851D01*
X164978237Y-69367959D01*
X165045547Y-69526758D01*
X165057048Y-69556960D01*
X165058285Y-69560208D01*
G37*
G36*
X160959457Y-66644534D02*
G01*
X160984612Y-66752707D01*
X160963385Y-66862880D01*
X160889719Y-66957044D01*
X160833665Y-66992042D01*
X160729413Y-67023205D01*
X160631359Y-67019693D01*
X160558556Y-66983620D01*
X160530054Y-66917104D01*
X160542498Y-66868976D01*
X160590778Y-66873038D01*
X160602783Y-66877931D01*
X160703285Y-66910580D01*
X160769933Y-66907088D01*
X160826317Y-66866833D01*
X160856454Y-66834159D01*
X160858417Y-66811821D01*
X160813325Y-66800436D01*
X160710042Y-66792927D01*
X160650092Y-66788778D01*
X160571982Y-66776113D01*
X160537681Y-66750716D01*
X160530054Y-66704135D01*
X160538072Y-66662972D01*
X160644590Y-66662972D01*
X160656791Y-66677366D01*
X160729576Y-66680863D01*
X160759710Y-66679972D01*
X160826564Y-66663465D01*
X160840586Y-66633894D01*
X160793673Y-66601314D01*
X160750849Y-66600018D01*
X160680900Y-66631198D01*
X160644590Y-66662972D01*
X160538072Y-66662972D01*
X160548311Y-66610407D01*
X160618910Y-66531366D01*
X160736333Y-66500923D01*
X160794223Y-66506216D01*
X160893976Y-66556367D01*
X160951555Y-66633894D01*
X160959457Y-66644534D01*
G37*
G36*
X158569408Y-95226513D02*
G01*
X158613874Y-95345653D01*
X158644732Y-95431419D01*
X158656284Y-95468128D01*
X158650259Y-95474782D01*
X158603491Y-95482513D01*
X158557737Y-95459903D01*
X158511172Y-95395765D01*
X158466250Y-95334616D01*
X158378688Y-95309016D01*
X158305908Y-95324938D01*
X158246204Y-95395765D01*
X158245255Y-95397822D01*
X158199030Y-95461343D01*
X158150542Y-95484479D01*
X158118366Y-95465940D01*
X158121077Y-95404440D01*
X158185072Y-95214696D01*
X158199291Y-95180053D01*
X158323397Y-95180053D01*
X158326116Y-95227964D01*
X158378688Y-95239617D01*
X158396096Y-95239116D01*
X158435902Y-95220729D01*
X158428765Y-95161544D01*
X158417038Y-95125573D01*
X158389590Y-95068494D01*
X158365649Y-95069012D01*
X158352350Y-95094931D01*
X158328611Y-95161544D01*
X158323397Y-95180053D01*
X158199291Y-95180053D01*
X158255237Y-95043748D01*
X158317013Y-94939090D01*
X158371067Y-94899378D01*
X158377238Y-94898640D01*
X158414555Y-94907424D01*
X158450572Y-94948198D01*
X158492716Y-95032349D01*
X158548415Y-95171264D01*
X158567210Y-95220729D01*
X158569408Y-95226513D01*
G37*
G36*
X157961715Y-95466604D02*
G01*
X158036163Y-95494664D01*
X158066393Y-95537637D01*
X158064157Y-95552934D01*
X158028707Y-95578357D01*
X157939926Y-95579439D01*
X157927540Y-95578663D01*
X157843424Y-95587567D01*
X157796515Y-95615246D01*
X157796869Y-95649892D01*
X157854541Y-95679700D01*
X157882038Y-95689907D01*
X157923085Y-95731810D01*
X157914422Y-95774965D01*
X157855783Y-95794809D01*
X157854954Y-95794810D01*
X157801632Y-95811759D01*
X157795066Y-95872882D01*
X157808193Y-95917941D01*
X157848730Y-95942207D01*
X157936278Y-95943319D01*
X157960899Y-95942260D01*
X158041455Y-95950879D01*
X158066393Y-95984149D01*
X158057235Y-96012058D01*
X158005669Y-96048485D01*
X157943714Y-96061640D01*
X157815228Y-96058885D01*
X157719399Y-96003005D01*
X157712078Y-95995341D01*
X157662895Y-95914044D01*
X157651603Y-95833379D01*
X157682415Y-95778871D01*
X157685426Y-95776419D01*
X157700097Y-95725771D01*
X157695769Y-95641384D01*
X157689599Y-95589569D01*
X157701657Y-95524958D01*
X157753757Y-95482696D01*
X157777604Y-95472344D01*
X157867408Y-95457737D01*
X157961715Y-95466604D01*
G37*
G36*
X160337243Y-92363291D02*
G01*
X160332948Y-92483944D01*
X160290796Y-92580726D01*
X160289930Y-92581753D01*
X160212687Y-92623443D01*
X160074713Y-92637158D01*
X160057535Y-92637100D01*
X159962010Y-92631500D01*
X159916840Y-92612359D01*
X159905464Y-92573439D01*
X159913818Y-92537620D01*
X159955944Y-92516426D01*
X160049421Y-92512715D01*
X160071372Y-92512783D01*
X160164957Y-92501038D01*
X160208461Y-92472336D01*
X160208600Y-92456656D01*
X160167395Y-92435555D01*
X160064503Y-92428962D01*
X160002490Y-92428311D01*
X159936149Y-92419065D01*
X159910026Y-92389232D01*
X159905464Y-92326831D01*
X159911707Y-92289075D01*
X160009563Y-92289075D01*
X160009814Y-92291483D01*
X160044857Y-92315138D01*
X160121097Y-92324863D01*
X160190826Y-92322178D01*
X160208197Y-92306761D01*
X160175836Y-92268069D01*
X160163248Y-92257156D01*
X160096913Y-92232078D01*
X160036162Y-92243921D01*
X160009563Y-92289075D01*
X159911707Y-92289075D01*
X159917124Y-92256320D01*
X159982584Y-92170683D01*
X160052474Y-92131957D01*
X160152393Y-92124543D01*
X160256501Y-92182361D01*
X160306314Y-92249349D01*
X160321898Y-92306761D01*
X160337243Y-92363291D01*
G37*
G36*
X169099947Y-69559655D02*
G01*
X169136472Y-69660032D01*
X169168611Y-69757426D01*
X169178536Y-69811455D01*
X169167985Y-69834668D01*
X169138693Y-69839617D01*
X169097949Y-69826691D01*
X169056066Y-69770218D01*
X169054081Y-69763350D01*
X169014342Y-69714883D01*
X168927322Y-69700819D01*
X168916346Y-69700938D01*
X168834667Y-69717921D01*
X168798579Y-69770218D01*
X168775553Y-69804224D01*
X168724037Y-69835845D01*
X168672901Y-69846246D01*
X168649727Y-69825232D01*
X168651677Y-69817392D01*
X168671652Y-69759122D01*
X168708619Y-69658173D01*
X168737275Y-69582209D01*
X168857923Y-69582209D01*
X168869377Y-69590346D01*
X168924074Y-69596721D01*
X168970454Y-69582762D01*
X168972076Y-69527322D01*
X168956348Y-69486750D01*
X168926988Y-69457923D01*
X168905144Y-69472769D01*
X168873130Y-69525481D01*
X168857923Y-69582209D01*
X168737275Y-69582209D01*
X168756862Y-69530287D01*
X168798665Y-69425294D01*
X168848381Y-69320847D01*
X168890143Y-69265779D01*
X168930360Y-69249727D01*
X168967653Y-69252334D01*
X168996721Y-69264709D01*
X168998505Y-69272320D01*
X169017648Y-69330483D01*
X169053318Y-69431564D01*
X169088177Y-69527322D01*
X169099947Y-69559655D01*
G37*
G36*
X161465847Y-66821486D02*
G01*
X161460606Y-66915627D01*
X161448103Y-66968412D01*
X161425227Y-66993480D01*
X161388866Y-67004473D01*
X161366509Y-67008680D01*
X161263283Y-67021804D01*
X161193226Y-67011639D01*
X161127666Y-66974945D01*
X161085660Y-66935849D01*
X161057928Y-66866901D01*
X161050546Y-66753647D01*
X161051641Y-66727440D01*
X161160812Y-66727440D01*
X161163904Y-66804836D01*
X161191086Y-66874912D01*
X161198989Y-66884008D01*
X161265597Y-66927412D01*
X161320222Y-66910499D01*
X161353672Y-66841407D01*
X161356754Y-66728273D01*
X161352885Y-66701868D01*
X161324661Y-66644562D01*
X161258743Y-66629918D01*
X161236469Y-66630779D01*
X161182298Y-66654988D01*
X161160812Y-66727440D01*
X161051641Y-66727440D01*
X161053428Y-66684650D01*
X161082732Y-66574446D01*
X161149267Y-66515978D01*
X161259945Y-66500903D01*
X161303726Y-66500217D01*
X161351547Y-66479572D01*
X161362841Y-66419400D01*
X161372951Y-66365009D01*
X161414891Y-66334973D01*
X161421947Y-66335597D01*
X161444414Y-66354085D01*
X161458165Y-66406906D01*
X161465055Y-66505724D01*
X161466940Y-66662204D01*
X161466938Y-66672348D01*
X161466529Y-66728273D01*
X161465847Y-66821486D01*
G37*
G36*
X161559943Y-95201382D02*
G01*
X161601268Y-95322938D01*
X161630060Y-95413721D01*
X161640777Y-95456489D01*
X161636082Y-95473868D01*
X161600763Y-95484219D01*
X161552862Y-95460808D01*
X161518989Y-95413115D01*
X161515390Y-95403127D01*
X161471271Y-95357043D01*
X161380191Y-95343716D01*
X161363305Y-95343971D01*
X161280201Y-95361499D01*
X161241393Y-95413115D01*
X161230129Y-95436177D01*
X161186903Y-95474501D01*
X161141192Y-95484431D01*
X161119606Y-95456489D01*
X161120590Y-95449738D01*
X161137304Y-95390775D01*
X161170433Y-95288963D01*
X161193812Y-95221261D01*
X161336960Y-95221261D01*
X161376144Y-95239617D01*
X161403905Y-95233748D01*
X161429801Y-95196243D01*
X161419015Y-95143034D01*
X161397646Y-95084589D01*
X161376117Y-95045318D01*
X161364806Y-95048770D01*
X161358866Y-95085208D01*
X161340971Y-95161544D01*
X161336960Y-95221261D01*
X161193812Y-95221261D01*
X161214434Y-95161544D01*
X161258424Y-95043510D01*
X161301274Y-94951778D01*
X161339426Y-94905435D01*
X161380191Y-94892623D01*
X161414166Y-94901079D01*
X161452249Y-94940649D01*
X161493739Y-95023517D01*
X161545948Y-95161544D01*
X161558138Y-95196243D01*
X161559943Y-95201382D01*
G37*
G36*
X156134973Y-69518647D02*
G01*
X156148510Y-69558012D01*
X156189027Y-69679779D01*
X156217247Y-69770741D01*
X156227727Y-69813593D01*
X156217678Y-69839236D01*
X156179445Y-69840304D01*
X156133574Y-69807837D01*
X156102774Y-69752869D01*
X156092006Y-69719583D01*
X156051056Y-69676884D01*
X155967076Y-69666120D01*
X155922902Y-69667958D01*
X155861048Y-69690979D01*
X155831379Y-69752869D01*
X155812743Y-69794472D01*
X155768902Y-69834027D01*
X155726098Y-69838333D01*
X155706830Y-69799049D01*
X155707315Y-69793642D01*
X155723020Y-69732887D01*
X155756415Y-69630065D01*
X155790032Y-69535997D01*
X155917466Y-69535997D01*
X155923590Y-69548854D01*
X155970789Y-69562022D01*
X156002267Y-69553527D01*
X156005488Y-69507135D01*
X155996024Y-69479003D01*
X155981987Y-69411711D01*
X155975398Y-69404226D01*
X155954306Y-69432563D01*
X155930793Y-69484581D01*
X155917466Y-69535997D01*
X155790032Y-69535997D01*
X155801429Y-69504104D01*
X155842347Y-69399221D01*
X155886623Y-69308016D01*
X155926130Y-69262261D01*
X155968920Y-69249727D01*
X156007234Y-69259430D01*
X156044334Y-69299282D01*
X156084389Y-69381600D01*
X156130724Y-69507135D01*
X156134973Y-69518647D01*
G37*
G36*
X173108558Y-95203105D02*
G01*
X173152744Y-95322975D01*
X173183694Y-95413050D01*
X173195355Y-95455924D01*
X173185343Y-95481105D01*
X173145048Y-95482692D01*
X173094562Y-95450970D01*
X173056557Y-95395765D01*
X173055364Y-95392677D01*
X173007675Y-95327312D01*
X172922380Y-95309016D01*
X172903087Y-95309459D01*
X172832968Y-95330603D01*
X172799412Y-95395765D01*
X172773575Y-95451271D01*
X172709774Y-95482513D01*
X172682657Y-95480077D01*
X172666702Y-95463565D01*
X172670730Y-95420256D01*
X172696340Y-95337477D01*
X172741142Y-95213593D01*
X172858312Y-95213593D01*
X172864533Y-95229378D01*
X172915712Y-95239617D01*
X172960798Y-95230069D01*
X172985066Y-95182426D01*
X172953794Y-95101792D01*
X172947006Y-95091505D01*
X172920752Y-95073884D01*
X172896926Y-95119142D01*
X172880723Y-95162005D01*
X172858312Y-95213593D01*
X172741142Y-95213593D01*
X172745135Y-95202551D01*
X172764114Y-95150781D01*
X172807196Y-95030713D01*
X172837139Y-94943490D01*
X172848360Y-94905192D01*
X172863802Y-94896900D01*
X172922323Y-94898884D01*
X172944916Y-94905716D01*
X172989830Y-94945672D01*
X173037684Y-95029831D01*
X173095820Y-95169654D01*
X173100684Y-95182426D01*
X173108558Y-95203105D01*
G37*
G36*
X181792730Y-96983265D02*
G01*
X181801991Y-97876776D01*
X182320860Y-97876776D01*
X182839730Y-97876776D01*
X182849441Y-97434358D01*
X182859153Y-96991940D01*
X183240847Y-96991940D01*
X183312784Y-96992025D01*
X183456288Y-96993741D01*
X183547019Y-96999350D01*
X183596973Y-97011031D01*
X183618148Y-97030967D01*
X183622541Y-97061339D01*
X183620341Y-97084903D01*
X183602418Y-97110150D01*
X183555094Y-97125551D01*
X183465040Y-97134593D01*
X183318921Y-97140763D01*
X183015300Y-97150789D01*
X183015300Y-97577398D01*
X183015296Y-97585861D01*
X183013284Y-97750566D01*
X183008135Y-97888637D01*
X183000602Y-97985822D01*
X182991441Y-98027867D01*
X182990929Y-98028278D01*
X182946931Y-98035163D01*
X182845298Y-98040246D01*
X182697183Y-98043290D01*
X182513742Y-98044062D01*
X182306127Y-98042325D01*
X181644672Y-98032923D01*
X181635401Y-97156762D01*
X181626131Y-96280601D01*
X181106830Y-96280601D01*
X180587530Y-96280601D01*
X180578260Y-97156762D01*
X180568989Y-98032923D01*
X179892350Y-98032923D01*
X179215710Y-98032923D01*
X179206009Y-97591841D01*
X179196307Y-97150759D01*
X178893713Y-97140748D01*
X178792416Y-97136907D01*
X178684320Y-97129259D01*
X178623640Y-97116451D01*
X178597024Y-97094979D01*
X178591120Y-97061339D01*
X178591590Y-97048259D01*
X178601029Y-97022167D01*
X178631874Y-97005671D01*
X178696122Y-96996588D01*
X178805770Y-96992738D01*
X178972814Y-96991940D01*
X179354508Y-96991940D01*
X179364220Y-97434358D01*
X179373931Y-97876776D01*
X179892800Y-97876776D01*
X180411670Y-97876776D01*
X180420930Y-96983265D01*
X180430191Y-96089754D01*
X181106830Y-96089754D01*
X181783470Y-96089754D01*
X181792730Y-96983265D01*
G37*
G36*
X181514549Y-70472149D02*
G01*
X182199863Y-70481557D01*
X182209134Y-71357718D01*
X182218405Y-72233880D01*
X182737264Y-72233880D01*
X183256123Y-72233880D01*
X183265835Y-71791462D01*
X183275546Y-71349044D01*
X183639891Y-71349044D01*
X183713594Y-71349120D01*
X183851431Y-71350835D01*
X183937787Y-71356843D01*
X183985397Y-71369794D01*
X184006997Y-71392336D01*
X184015323Y-71427117D01*
X184017632Y-71462386D01*
X184003614Y-71486486D01*
X183959601Y-71499266D01*
X183872458Y-71504307D01*
X183729053Y-71505191D01*
X183431694Y-71505191D01*
X183431694Y-71933151D01*
X183431688Y-71942883D01*
X183429720Y-72107625D01*
X183424724Y-72245564D01*
X183417428Y-72342503D01*
X183408561Y-72384244D01*
X183407616Y-72384911D01*
X183361602Y-72392016D01*
X183258235Y-72398184D01*
X183108570Y-72403045D01*
X182923663Y-72406233D01*
X182714572Y-72407377D01*
X182043716Y-72407377D01*
X182043716Y-71522541D01*
X182043716Y-70637705D01*
X181523820Y-70637705D01*
X181003924Y-70637705D01*
X180994653Y-71513866D01*
X180985382Y-72390027D01*
X180311267Y-72399473D01*
X180175582Y-72401090D01*
X179961122Y-72401740D01*
X179804699Y-72398802D01*
X179698862Y-72391907D01*
X179636158Y-72380687D01*
X179609135Y-72364773D01*
X179598720Y-72319272D01*
X179589450Y-72217881D01*
X179583077Y-72077235D01*
X179580586Y-71912910D01*
X179580054Y-71505191D01*
X179282696Y-71505191D01*
X179148470Y-71504482D01*
X179057330Y-71499903D01*
X179010365Y-71487870D01*
X178994441Y-71464803D01*
X178996425Y-71427117D01*
X178998510Y-71414233D01*
X179010479Y-71383415D01*
X179040740Y-71363509D01*
X179102068Y-71351498D01*
X179207236Y-71344365D01*
X179369020Y-71339090D01*
X179510953Y-71336734D01*
X179643643Y-71340392D01*
X179723254Y-71352475D01*
X179758857Y-71373790D01*
X179769384Y-71419446D01*
X179778758Y-71521001D01*
X179785202Y-71661773D01*
X179787720Y-71826161D01*
X179788251Y-72233880D01*
X180308743Y-72233880D01*
X180829235Y-72233880D01*
X180829235Y-71348310D01*
X180829235Y-70462740D01*
X181514549Y-70472149D01*
G37*
G36*
X165977869Y-80995492D02*
G01*
X165977869Y-88091530D01*
X158968579Y-88091530D01*
X151959289Y-88091530D01*
X151959289Y-87987432D01*
X152028688Y-87987432D01*
X158968579Y-87987432D01*
X165908470Y-87987432D01*
X165908470Y-80995492D01*
X165908470Y-74003552D01*
X164889552Y-74003552D01*
X163870635Y-74003552D01*
X163848569Y-74164542D01*
X163848369Y-74166086D01*
X163844447Y-74232328D01*
X163840752Y-74361124D01*
X163837346Y-74545950D01*
X163834294Y-74780284D01*
X163831656Y-75057606D01*
X163829495Y-75371391D01*
X163827874Y-75715120D01*
X163826856Y-76082269D01*
X163826503Y-76466316D01*
X163826495Y-76522704D01*
X163826109Y-76913425D01*
X163825173Y-77361304D01*
X163823733Y-77855791D01*
X163821836Y-78386332D01*
X163819528Y-78942375D01*
X163816854Y-79513368D01*
X163813862Y-80088758D01*
X163810597Y-80657993D01*
X163807105Y-81210521D01*
X163803433Y-81735790D01*
X163780364Y-84864481D01*
X163610457Y-84864481D01*
X163440549Y-84864481D01*
X163460172Y-80813319D01*
X163460361Y-80774444D01*
X163463191Y-80216910D01*
X163466245Y-79657438D01*
X163469477Y-79102513D01*
X163472841Y-78558620D01*
X163476291Y-78032245D01*
X163479780Y-77529872D01*
X163483263Y-77057987D01*
X163486692Y-76623074D01*
X163490022Y-76231620D01*
X163493205Y-75890108D01*
X163496197Y-75605025D01*
X163498950Y-75382855D01*
X163518105Y-74003552D01*
X159184433Y-74003552D01*
X154850762Y-74003552D01*
X154827728Y-76684085D01*
X154826710Y-76804616D01*
X154822739Y-77315859D01*
X154819001Y-77860678D01*
X154815560Y-78426201D01*
X154812475Y-78999557D01*
X154809810Y-79567875D01*
X154807624Y-80118282D01*
X154805980Y-80637909D01*
X154804939Y-81113883D01*
X154804563Y-81533333D01*
X154804237Y-81895602D01*
X154803200Y-82294839D01*
X154801520Y-82682391D01*
X154799264Y-83050014D01*
X154796500Y-83389463D01*
X154793296Y-83692492D01*
X154789721Y-83950857D01*
X154785842Y-84156313D01*
X154781727Y-84300615D01*
X154759022Y-84899180D01*
X154592075Y-84899180D01*
X154528429Y-84897505D01*
X154454319Y-84884119D01*
X154438610Y-84855806D01*
X154439387Y-84845222D01*
X154441154Y-84773740D01*
X154443131Y-84638456D01*
X154445295Y-84443132D01*
X154447619Y-84191531D01*
X154450081Y-83887415D01*
X154452655Y-83534547D01*
X154455316Y-83136689D01*
X154458040Y-82697602D01*
X154460802Y-82221051D01*
X154463577Y-81710796D01*
X154466341Y-81170600D01*
X154469070Y-80604226D01*
X154471738Y-80015436D01*
X154474320Y-79407992D01*
X154496550Y-74003552D01*
X153262619Y-74003552D01*
X152028688Y-74003552D01*
X152028688Y-80995492D01*
X152028688Y-87987432D01*
X151959289Y-87987432D01*
X151959289Y-80995492D01*
X151959289Y-73899453D01*
X153224824Y-73899453D01*
X154490358Y-73899453D01*
X154500029Y-72849795D01*
X154501526Y-72670698D01*
X154502863Y-72398028D01*
X154502238Y-72183716D01*
X154499402Y-72020673D01*
X154494104Y-71901811D01*
X154486095Y-71820039D01*
X154475126Y-71768269D01*
X154460947Y-71739412D01*
X154457366Y-71735517D01*
X154444765Y-71727053D01*
X154423370Y-71719471D01*
X154389617Y-71712723D01*
X154339939Y-71706759D01*
X154270772Y-71701533D01*
X154178552Y-71696995D01*
X154059712Y-71693098D01*
X153910689Y-71689792D01*
X153727917Y-71687031D01*
X153507831Y-71684765D01*
X153246866Y-71682947D01*
X152941457Y-71681527D01*
X152588039Y-71680459D01*
X152183048Y-71679693D01*
X151722917Y-71679181D01*
X151204083Y-71678875D01*
X150622980Y-71678727D01*
X149976043Y-71678688D01*
X145539891Y-71678688D01*
X145539891Y-74610792D01*
X145539928Y-74795291D01*
X145540583Y-75366429D01*
X145542052Y-75872312D01*
X145544328Y-76312423D01*
X145547405Y-76686244D01*
X145551276Y-76993259D01*
X145555937Y-77232949D01*
X145561380Y-77404797D01*
X145567600Y-77508285D01*
X145574590Y-77542896D01*
X145616544Y-77561349D01*
X145678688Y-77612295D01*
X145728163Y-77688810D01*
X145751083Y-77812715D01*
X145728448Y-77939722D01*
X145661339Y-78042999D01*
X145630033Y-78073909D01*
X145606912Y-78107623D01*
X145591322Y-78154603D01*
X145581777Y-78226073D01*
X145576796Y-78333263D01*
X145574894Y-78487397D01*
X145574590Y-78699704D01*
X145574590Y-79276013D01*
X146086407Y-79285616D01*
X146185037Y-79287655D01*
X146359415Y-79293048D01*
X146478311Y-79300549D01*
X146551337Y-79311313D01*
X146588104Y-79326501D01*
X146598224Y-79347268D01*
X146597120Y-79353557D01*
X146582778Y-79366875D01*
X146546468Y-79377388D01*
X146481413Y-79385412D01*
X146380839Y-79391264D01*
X146237971Y-79395264D01*
X146046032Y-79397727D01*
X145798247Y-79398972D01*
X145487841Y-79399317D01*
X145353675Y-79399265D01*
X145069542Y-79398593D01*
X144845275Y-79396891D01*
X144674101Y-79393841D01*
X144549242Y-79389127D01*
X144463924Y-79382430D01*
X144411371Y-79373433D01*
X144384808Y-79361818D01*
X144377459Y-79347268D01*
X144380301Y-79335197D01*
X144403630Y-79317878D01*
X144458451Y-79305367D01*
X144554239Y-79296559D01*
X144700472Y-79290351D01*
X144906625Y-79285640D01*
X145435792Y-79276061D01*
X145436105Y-78713099D01*
X145436418Y-78150136D01*
X145324120Y-78057845D01*
X145264143Y-78002169D01*
X145222036Y-77926612D01*
X145211823Y-77819706D01*
X145214944Y-77751985D01*
X145241406Y-77666868D01*
X145306458Y-77598399D01*
X145401093Y-77522939D01*
X145401093Y-74531415D01*
X145401093Y-71539891D01*
X149912022Y-71539891D01*
X150354728Y-71539856D01*
X150971921Y-71539653D01*
X151525223Y-71539238D01*
X152017956Y-71538575D01*
X152453441Y-71537626D01*
X152835000Y-71536358D01*
X153165953Y-71534732D01*
X153449623Y-71532714D01*
X153689331Y-71530267D01*
X153888399Y-71527355D01*
X154050148Y-71523942D01*
X154177900Y-71519992D01*
X154274975Y-71515469D01*
X154344697Y-71510337D01*
X154390385Y-71504560D01*
X154415363Y-71498101D01*
X154422951Y-71490926D01*
X154424553Y-71481020D01*
X154459907Y-71422485D01*
X154527049Y-71354368D01*
X154631147Y-71266775D01*
X154631147Y-70742822D01*
X154631144Y-70730307D01*
X154629521Y-70518181D01*
X154624254Y-70363748D01*
X154614348Y-70255914D01*
X154598806Y-70183586D01*
X154576632Y-70135669D01*
X154556007Y-70095227D01*
X154549569Y-70004621D01*
X154594985Y-69936129D01*
X154683197Y-69909016D01*
X154725290Y-69914235D01*
X154796440Y-69961267D01*
X154820950Y-70041501D01*
X154789761Y-70135669D01*
X154785853Y-70141941D01*
X154765080Y-70192030D01*
X154750591Y-70267740D01*
X154741427Y-70380004D01*
X154736631Y-70539757D01*
X154735246Y-70757932D01*
X154735247Y-70764856D01*
X154737677Y-70994561D01*
X154744625Y-71161199D01*
X154755954Y-71262701D01*
X154771522Y-71296994D01*
X154775053Y-71297325D01*
X154825758Y-71324566D01*
X154892970Y-71382166D01*
X154898955Y-71388313D01*
X154966050Y-71504013D01*
X154969533Y-71632339D01*
X154908743Y-71757556D01*
X154890533Y-71783247D01*
X154874459Y-71816866D01*
X154862148Y-71863746D01*
X154853101Y-71931908D01*
X154846817Y-72029370D01*
X154842799Y-72164153D01*
X154840547Y-72344275D01*
X154839562Y-72577757D01*
X154839344Y-72872618D01*
X154839344Y-73899453D01*
X159176776Y-73899453D01*
X163514207Y-73899453D01*
X163514207Y-72865102D01*
X163514039Y-72678534D01*
X163512830Y-72410838D01*
X163510169Y-72200961D01*
X163505717Y-72041604D01*
X163499138Y-71925468D01*
X163490095Y-71845253D01*
X163478248Y-71793662D01*
X163463262Y-71763394D01*
X163449182Y-71742490D01*
X163412170Y-71621607D01*
X163428301Y-71492397D01*
X163495280Y-71382166D01*
X163502934Y-71374653D01*
X163569626Y-71319563D01*
X163616729Y-71296994D01*
X163617889Y-71296840D01*
X163633063Y-71257956D01*
X163644058Y-71151832D01*
X163650748Y-70980381D01*
X163653005Y-70745516D01*
X163652526Y-70581792D01*
X163649903Y-70415685D01*
X163644152Y-70301675D01*
X163634333Y-70229860D01*
X163619509Y-70190340D01*
X163598740Y-70173213D01*
X163561373Y-70133445D01*
X163555365Y-70039378D01*
X163562664Y-69989437D01*
X163592966Y-69935506D01*
X163661387Y-69915415D01*
X163673387Y-69914233D01*
X163748566Y-69927333D01*
X163797015Y-69993347D01*
X163806936Y-70016541D01*
X163817522Y-70084930D01*
X163779959Y-70145829D01*
X163766147Y-70164166D01*
X163747616Y-70208588D01*
X163735020Y-70278498D01*
X163727316Y-70384867D01*
X163723458Y-70538667D01*
X163722404Y-70750872D01*
X163722485Y-70855151D01*
X163723665Y-71031320D01*
X163727302Y-71153591D01*
X163734711Y-71232510D01*
X163747207Y-71278626D01*
X163766108Y-71302486D01*
X163792728Y-71314637D01*
X163853241Y-71350671D01*
X163918166Y-71421074D01*
X163973282Y-71505191D01*
X165756313Y-71505191D01*
X166145534Y-71504861D01*
X166505954Y-71503696D01*
X166804912Y-71501596D01*
X167046540Y-71498468D01*
X167234968Y-71494215D01*
X167374331Y-71488742D01*
X167468760Y-71481955D01*
X167522387Y-71473757D01*
X167539344Y-71464053D01*
X167556260Y-71418010D01*
X167610548Y-71348287D01*
X167678732Y-71287989D01*
X167736240Y-71262295D01*
X167744739Y-71259637D01*
X167759937Y-71231947D01*
X167770650Y-71167543D01*
X167777513Y-71058261D01*
X167781165Y-70895936D01*
X167782240Y-70672404D01*
X167782109Y-70551137D01*
X167780677Y-70365818D01*
X167776731Y-70233299D01*
X167769122Y-70142675D01*
X167756703Y-70083040D01*
X167738326Y-70043488D01*
X167712841Y-70013115D01*
X167658832Y-69948337D01*
X167650592Y-69889206D01*
X167697970Y-69824746D01*
X167779354Y-69775976D01*
X167858389Y-69780382D01*
X167916498Y-69827455D01*
X167937735Y-69904013D01*
X167906154Y-69996871D01*
X167895471Y-70015834D01*
X167877416Y-70069870D01*
X167864858Y-70151397D01*
X167856945Y-70270883D01*
X167852823Y-70438799D01*
X167851639Y-70665614D01*
X167851639Y-71251155D01*
X167939362Y-71291124D01*
X168002366Y-71330672D01*
X168047172Y-71383443D01*
X168055059Y-71396959D01*
X168114672Y-71426486D01*
X168232815Y-71435792D01*
X168398369Y-71435792D01*
X168479108Y-71651687D01*
X168559848Y-71867582D01*
X168775295Y-71417466D01*
X168838229Y-71286631D01*
X168919722Y-71121507D01*
X168980465Y-71007479D01*
X169025485Y-70937125D01*
X169059811Y-70903025D01*
X169088470Y-70897759D01*
X169116490Y-70913907D01*
X169125519Y-70924515D01*
X169165470Y-70989824D01*
X169225364Y-71100986D01*
X169298747Y-71245765D01*
X169379162Y-71411921D01*
X169597478Y-71873121D01*
X169832294Y-71397895D01*
X169875776Y-71310615D01*
X169955346Y-71154763D01*
X170022853Y-71027504D01*
X170072237Y-70940127D01*
X170097439Y-70903924D01*
X170104584Y-70900018D01*
X170130951Y-70897302D01*
X170161309Y-70918765D01*
X170200744Y-70972140D01*
X170254342Y-71065163D01*
X170327190Y-71205569D01*
X170424375Y-71401093D01*
X170654898Y-71869535D01*
X170892818Y-71383743D01*
X170936041Y-71296948D01*
X171019886Y-71137194D01*
X171092120Y-71010862D01*
X171146940Y-70927824D01*
X171178537Y-70897951D01*
X171184886Y-70899629D01*
X171223844Y-70943520D01*
X171275185Y-71037031D01*
X171331356Y-71166871D01*
X171436375Y-71435792D01*
X171640315Y-71435792D01*
X171753008Y-71431729D01*
X171831007Y-71415021D01*
X171864720Y-71382460D01*
X171864804Y-71382243D01*
X171908679Y-71329479D01*
X171985079Y-71277470D01*
X172084972Y-71225813D01*
X172084972Y-70675762D01*
X172084710Y-70557870D01*
X172082331Y-70375059D01*
X172076711Y-70246182D01*
X172066926Y-70161029D01*
X172052054Y-70109390D01*
X172031169Y-70081058D01*
X171999300Y-70032423D01*
X171987795Y-69946686D01*
X171998786Y-69896742D01*
X172036051Y-69864376D01*
X172119672Y-69856967D01*
X172187724Y-69860798D01*
X172234413Y-69885548D01*
X172251549Y-69946686D01*
X172246049Y-70013820D01*
X172208175Y-70081058D01*
X172196705Y-70093242D01*
X172179000Y-70132206D01*
X172166838Y-70199694D01*
X172159296Y-70305920D01*
X172155448Y-70461095D01*
X172154371Y-70675432D01*
X172154510Y-70817641D01*
X172155900Y-70984958D01*
X172159959Y-71100796D01*
X172168093Y-71175996D01*
X172181708Y-71221397D01*
X172202211Y-71247841D01*
X172231008Y-71266169D01*
X172285637Y-71302407D01*
X172361131Y-71373080D01*
X172368012Y-71380897D01*
X172382303Y-71392124D01*
X172404627Y-71401654D01*
X172439702Y-71409538D01*
X172492250Y-71415831D01*
X172566989Y-71420585D01*
X172668641Y-71423853D01*
X172801924Y-71425688D01*
X172971559Y-71426143D01*
X173182266Y-71425270D01*
X173438765Y-71423122D01*
X173745775Y-71419753D01*
X174108017Y-71415215D01*
X174530211Y-71409562D01*
X175017076Y-71402845D01*
X175504899Y-71396032D01*
X175982610Y-71389317D01*
X176398902Y-71383508D01*
X176757967Y-71378644D01*
X177063995Y-71374764D01*
X177321177Y-71371904D01*
X177533703Y-71370104D01*
X177705763Y-71369401D01*
X177841549Y-71369834D01*
X177945250Y-71371441D01*
X178021057Y-71374260D01*
X178073160Y-71378329D01*
X178105751Y-71383686D01*
X178123019Y-71390370D01*
X178129155Y-71398419D01*
X178128350Y-71407871D01*
X178124794Y-71418763D01*
X178122677Y-71431135D01*
X178121583Y-71442137D01*
X178113024Y-71456209D01*
X178090672Y-71467851D01*
X178048350Y-71477434D01*
X177979878Y-71485329D01*
X177879081Y-71491906D01*
X177739779Y-71497536D01*
X177555795Y-71502588D01*
X177320952Y-71507432D01*
X177029071Y-71512441D01*
X176673975Y-71517983D01*
X176427847Y-71521741D01*
X176006482Y-71528186D01*
X175552463Y-71535140D01*
X175086198Y-71542290D01*
X174628098Y-71549324D01*
X174198571Y-71555928D01*
X173818025Y-71561790D01*
X172410777Y-71583491D01*
X172354793Y-71681038D01*
X172340167Y-71703443D01*
X172250250Y-71777585D01*
X172136968Y-71807324D01*
X172020599Y-71794138D01*
X171921424Y-71739508D01*
X171859719Y-71644913D01*
X171858543Y-71641318D01*
X171838139Y-71606042D01*
X171796144Y-71585865D01*
X171716644Y-71576733D01*
X171583723Y-71574590D01*
X171330046Y-71574590D01*
X171249197Y-71358403D01*
X171168349Y-71142215D01*
X170937124Y-71627323D01*
X170898719Y-71706686D01*
X170815532Y-71869895D01*
X170744038Y-71998280D01*
X170689723Y-72082304D01*
X170658073Y-72112432D01*
X170645758Y-72104982D01*
X170601763Y-72047951D01*
X170537260Y-71943137D01*
X170458253Y-71800611D01*
X170370748Y-71630446D01*
X170131251Y-71148461D01*
X169884956Y-71630446D01*
X169834561Y-71727668D01*
X169752309Y-71880139D01*
X169682349Y-72002140D01*
X169630844Y-72083096D01*
X169603962Y-72112432D01*
X169591416Y-72101921D01*
X169549252Y-72040760D01*
X169486062Y-71934170D01*
X169407982Y-71792688D01*
X169321149Y-71626850D01*
X169073035Y-71141268D01*
X168835356Y-71626850D01*
X168792316Y-71713332D01*
X168708499Y-71873136D01*
X168636286Y-71999499D01*
X168581478Y-72082554D01*
X168549878Y-72112432D01*
X168543529Y-72110753D01*
X168504571Y-72066862D01*
X168453230Y-71973351D01*
X168397059Y-71843511D01*
X168372957Y-71782537D01*
X168325269Y-71672306D01*
X168287105Y-71609673D01*
X168249119Y-71581820D01*
X168201962Y-71575927D01*
X168118737Y-71602037D01*
X168042012Y-71688700D01*
X168005518Y-71740013D01*
X167936714Y-71791136D01*
X167832716Y-71810436D01*
X167771836Y-71812310D01*
X167684749Y-71792811D01*
X167610270Y-71732363D01*
X167527247Y-71643989D01*
X165753755Y-71643989D01*
X163980263Y-71643989D01*
X163920733Y-71744766D01*
X163917011Y-71751283D01*
X163900476Y-71788764D01*
X163887519Y-71839554D01*
X163877715Y-71911667D01*
X163870643Y-72013115D01*
X163865878Y-72151909D01*
X163862998Y-72336063D01*
X163861581Y-72573589D01*
X163861202Y-72872498D01*
X163861202Y-73899453D01*
X164919535Y-73899453D01*
X165977869Y-73899453D01*
X165977869Y-74003552D01*
X165977869Y-80995492D01*
G37*
G36*
X165596175Y-106621038D02*
G01*
X165596175Y-113699727D01*
X158569535Y-113699727D01*
X151542896Y-113699727D01*
X151542896Y-113630328D01*
X151646994Y-113630328D01*
X158569535Y-113630328D01*
X165492076Y-113630328D01*
X165492076Y-106638388D01*
X165492076Y-99646448D01*
X164474047Y-99646448D01*
X163456017Y-99646448D01*
X163433063Y-100745139D01*
X163430504Y-100880960D01*
X163426345Y-101160763D01*
X163422494Y-101492912D01*
X163419027Y-101866670D01*
X163416019Y-102271301D01*
X163413548Y-102696067D01*
X163411688Y-103130233D01*
X163410517Y-103563062D01*
X163410109Y-103983817D01*
X163410095Y-104059025D01*
X163409493Y-104533280D01*
X163408063Y-105057393D01*
X163405894Y-105614696D01*
X163403075Y-106188518D01*
X163399694Y-106762189D01*
X163395840Y-107319038D01*
X163391601Y-107842395D01*
X163387067Y-108315590D01*
X163364024Y-110507377D01*
X163194137Y-110507377D01*
X163024249Y-110507377D01*
X163043594Y-108017691D01*
X163045792Y-107732223D01*
X163049545Y-107235801D01*
X163053590Y-106690846D01*
X163057838Y-106110095D01*
X163062196Y-105506287D01*
X163066574Y-104892160D01*
X163070881Y-104280452D01*
X163075024Y-103683902D01*
X163078914Y-103115248D01*
X163082459Y-102587227D01*
X163101980Y-99646448D01*
X161734767Y-99646448D01*
X160367554Y-99646448D01*
X160344706Y-100328667D01*
X160341239Y-100457108D01*
X160337265Y-100668755D01*
X160333594Y-100933975D01*
X160330295Y-101244108D01*
X160327438Y-101590492D01*
X160325094Y-101964469D01*
X160323332Y-102357378D01*
X160322221Y-102760557D01*
X160321832Y-103165348D01*
X160321831Y-103180237D01*
X160321429Y-103608381D01*
X160320334Y-104091948D01*
X160318611Y-104617477D01*
X160316325Y-105171504D01*
X160313543Y-105740566D01*
X160310330Y-106311201D01*
X160306752Y-106869945D01*
X160302873Y-107403336D01*
X160298761Y-107897911D01*
X160275716Y-110476013D01*
X160116615Y-110465670D01*
X159957513Y-110455328D01*
X159966854Y-106881284D01*
X159966996Y-106827684D01*
X159968620Y-106284645D01*
X159970601Y-105728034D01*
X159972895Y-105166150D01*
X159975454Y-104607288D01*
X159978233Y-104059746D01*
X159981185Y-103531821D01*
X159984264Y-103031810D01*
X159987424Y-102568010D01*
X159990619Y-102148717D01*
X159993802Y-101782230D01*
X159996928Y-101476844D01*
X160017661Y-99646448D01*
X158631367Y-99646448D01*
X157245072Y-99646448D01*
X157221989Y-103607935D01*
X157219156Y-104105151D01*
X157216121Y-104662855D01*
X157213239Y-105218642D01*
X157210538Y-105765765D01*
X157208047Y-106297476D01*
X157205795Y-106807025D01*
X157203810Y-107287665D01*
X157202122Y-107732649D01*
X157200758Y-108135227D01*
X157199749Y-108488652D01*
X157199122Y-108786175D01*
X157198907Y-109021050D01*
X157198907Y-110472677D01*
X157022285Y-110472677D01*
X156845663Y-110472677D01*
X156871261Y-105059563D01*
X156896858Y-99646448D01*
X155665633Y-99646448D01*
X154434408Y-99646448D01*
X154411329Y-103295637D01*
X154410507Y-103426881D01*
X154407212Y-103975514D01*
X154404070Y-104535228D01*
X154401114Y-105097977D01*
X154398377Y-105655713D01*
X154395895Y-106200386D01*
X154393702Y-106723951D01*
X154391830Y-107218357D01*
X154390316Y-107675559D01*
X154389191Y-108087507D01*
X154388492Y-108446154D01*
X154388251Y-108743451D01*
X154388251Y-110542076D01*
X154210687Y-110542076D01*
X154033122Y-110542076D01*
X154059048Y-105094262D01*
X154084973Y-99646448D01*
X152865984Y-99646448D01*
X151646994Y-99646448D01*
X151646994Y-106638388D01*
X151646994Y-113630328D01*
X151542896Y-113630328D01*
X151542896Y-106621038D01*
X151542896Y-99542350D01*
X152803964Y-99542350D01*
X154065033Y-99542350D01*
X154087738Y-98943784D01*
X154093327Y-98789523D01*
X154104805Y-98391018D01*
X154109607Y-98056829D01*
X154107747Y-97787910D01*
X154099241Y-97585215D01*
X154084104Y-97449696D01*
X154062352Y-97382309D01*
X154059031Y-97378500D01*
X154046882Y-97370021D01*
X154025953Y-97362426D01*
X153992677Y-97355666D01*
X153943488Y-97349692D01*
X153874822Y-97344458D01*
X153783112Y-97339913D01*
X153664792Y-97336010D01*
X153516296Y-97332700D01*
X153334060Y-97329935D01*
X153114516Y-97327666D01*
X152854100Y-97325846D01*
X152549245Y-97324425D01*
X152196387Y-97323355D01*
X151791958Y-97322589D01*
X151332393Y-97322077D01*
X150814127Y-97321771D01*
X150233593Y-97321623D01*
X149587226Y-97321585D01*
X145158197Y-97321585D01*
X145158197Y-100240020D01*
X145158197Y-103158455D01*
X145242281Y-103224595D01*
X145259459Y-103239162D01*
X145334124Y-103348235D01*
X145352243Y-103474054D01*
X145314627Y-103597530D01*
X145222089Y-103699577D01*
X145212320Y-103707196D01*
X145191402Y-103733504D01*
X145176644Y-103777104D01*
X145166997Y-103848419D01*
X145161407Y-103957867D01*
X145158824Y-104115868D01*
X145158197Y-104332842D01*
X145158197Y-104920765D01*
X145681233Y-104920765D01*
X145714601Y-104920774D01*
X145906313Y-104921588D01*
X146039989Y-104924554D01*
X146125540Y-104930850D01*
X146172882Y-104941653D01*
X146191925Y-104958140D01*
X146192585Y-104981489D01*
X146185327Y-104998051D01*
X146165504Y-105011723D01*
X146126086Y-105022500D01*
X146059958Y-105030828D01*
X145960006Y-105037154D01*
X145819115Y-105041925D01*
X145630170Y-105045587D01*
X145386056Y-105048589D01*
X145079658Y-105051375D01*
X144888396Y-105052937D01*
X144621583Y-105054785D01*
X144412784Y-105055355D01*
X144254889Y-105054256D01*
X144140790Y-105051096D01*
X144063378Y-105045482D01*
X144015543Y-105037022D01*
X143990177Y-105025325D01*
X143980171Y-105009999D01*
X143978415Y-104990651D01*
X143978823Y-104978330D01*
X143986547Y-104954971D01*
X144012103Y-104938964D01*
X144065804Y-104928925D01*
X144157963Y-104923468D01*
X144298893Y-104921210D01*
X144498907Y-104920765D01*
X145019399Y-104920765D01*
X145019399Y-104342076D01*
X145019399Y-103763387D01*
X144913003Y-103674112D01*
X144831521Y-103581321D01*
X144803678Y-103473949D01*
X144812082Y-103395840D01*
X144849770Y-103294062D01*
X144906049Y-103216588D01*
X144968149Y-103185792D01*
X144976674Y-103180108D01*
X144984692Y-103158907D01*
X144991662Y-103118022D01*
X144997655Y-103053310D01*
X145002741Y-102960629D01*
X145006992Y-102835836D01*
X145010477Y-102674787D01*
X145013269Y-102473339D01*
X145015436Y-102227351D01*
X145017051Y-101932678D01*
X145018184Y-101585179D01*
X145018906Y-101180710D01*
X145019287Y-100715127D01*
X145019399Y-100184289D01*
X145019399Y-97182787D01*
X149512978Y-97182787D01*
X149775872Y-97182767D01*
X150434785Y-97182512D01*
X151028007Y-97181944D01*
X151558244Y-97181037D01*
X152028195Y-97179767D01*
X152440564Y-97178109D01*
X152798054Y-97176039D01*
X153103365Y-97173531D01*
X153359201Y-97170561D01*
X153568264Y-97167104D01*
X153733255Y-97163135D01*
X153856878Y-97158630D01*
X153941835Y-97153564D01*
X153990827Y-97147911D01*
X154006557Y-97141649D01*
X154019063Y-97093704D01*
X154081191Y-97019364D01*
X154175444Y-96962537D01*
X154279290Y-96939891D01*
X154393415Y-96961395D01*
X154494309Y-97032146D01*
X154552173Y-97136946D01*
X154558905Y-97259910D01*
X154506405Y-97385157D01*
X154493829Y-97408134D01*
X154479734Y-97454018D01*
X154468215Y-97524239D01*
X154458772Y-97626308D01*
X154450902Y-97767735D01*
X154444103Y-97956029D01*
X154437874Y-98198701D01*
X154431714Y-98503260D01*
X154412366Y-99542350D01*
X155644346Y-99542350D01*
X156876326Y-99542350D01*
X156898611Y-99256079D01*
X156904391Y-99148348D01*
X156909770Y-98981157D01*
X156914352Y-98769193D01*
X156917917Y-98524944D01*
X156920241Y-98260900D01*
X156921103Y-97989549D01*
X156921308Y-97707161D01*
X156922147Y-97482089D01*
X156924156Y-97311463D01*
X156927869Y-97187751D01*
X156933820Y-97103420D01*
X156942545Y-97050941D01*
X156954579Y-97022780D01*
X156970455Y-97011407D01*
X156990710Y-97009289D01*
X157010869Y-97007688D01*
X157030850Y-96995643D01*
X157044542Y-96963274D01*
X157053130Y-96900768D01*
X157057797Y-96798308D01*
X157059728Y-96646080D01*
X157060109Y-96434270D01*
X157059750Y-96293995D01*
X157057187Y-96110133D01*
X157051419Y-95979453D01*
X157041578Y-95891840D01*
X157026799Y-95837179D01*
X157006213Y-95805355D01*
X156966544Y-95732674D01*
X156971902Y-95653127D01*
X157013077Y-95587707D01*
X157078233Y-95554836D01*
X157155533Y-95572939D01*
X157197261Y-95616418D01*
X157225595Y-95694038D01*
X157222228Y-95769954D01*
X157183881Y-95816068D01*
X157164291Y-95831687D01*
X157149471Y-95868920D01*
X157139445Y-95937060D01*
X157133350Y-96045724D01*
X157130325Y-96204535D01*
X157129508Y-96423111D01*
X157129788Y-96635738D01*
X157131454Y-96790477D01*
X157135740Y-96895233D01*
X157143881Y-96959748D01*
X157157112Y-96993767D01*
X157176667Y-97007033D01*
X157203780Y-97009289D01*
X157278052Y-97009289D01*
X157252608Y-98275819D01*
X157227164Y-99542350D01*
X158618363Y-99542350D01*
X160009563Y-99542350D01*
X160009563Y-98293169D01*
X160009565Y-98223093D01*
X160009722Y-97908961D01*
X160010398Y-97656232D01*
X160011963Y-97458231D01*
X160014788Y-97308285D01*
X160019244Y-97199718D01*
X160025701Y-97125858D01*
X160034531Y-97080029D01*
X160046104Y-97055557D01*
X160060790Y-97045769D01*
X160078962Y-97043989D01*
X160102963Y-97041301D01*
X160121403Y-97026624D01*
X160134032Y-96990385D01*
X160141946Y-96923018D01*
X160146240Y-96814955D01*
X160148013Y-96656629D01*
X160148360Y-96438473D01*
X160148359Y-96427619D01*
X160147480Y-96207191D01*
X160144401Y-96046097D01*
X160138291Y-95934696D01*
X160128319Y-95863345D01*
X160113651Y-95822404D01*
X160093457Y-95802231D01*
X160050995Y-95747974D01*
X160047140Y-95668938D01*
X160079252Y-95595884D01*
X160141596Y-95557924D01*
X160173050Y-95556018D01*
X160259216Y-95582289D01*
X160311006Y-95643671D01*
X160318008Y-95720923D01*
X160269809Y-95794809D01*
X160255467Y-95812257D01*
X160239848Y-95856351D01*
X160229034Y-95931755D01*
X160222259Y-96047986D01*
X160218757Y-96214562D01*
X160217759Y-96440997D01*
X160218057Y-96646943D01*
X160219721Y-96808209D01*
X160223854Y-96918656D01*
X160231562Y-96987870D01*
X160243946Y-97025439D01*
X160262110Y-97040949D01*
X160287158Y-97043989D01*
X160291051Y-97044024D01*
X160308503Y-97046859D01*
X160322544Y-97059026D01*
X160333544Y-97087197D01*
X160341874Y-97138047D01*
X160347906Y-97218251D01*
X160352009Y-97334483D01*
X160354555Y-97493416D01*
X160355915Y-97701725D01*
X160356458Y-97966085D01*
X160356557Y-98293169D01*
X160356557Y-99542350D01*
X161727186Y-99542350D01*
X163097814Y-99542350D01*
X163096710Y-98492691D01*
X163096298Y-98289171D01*
X163094761Y-98022175D01*
X163091838Y-97812732D01*
X163087194Y-97653609D01*
X163080491Y-97537574D01*
X163071393Y-97457395D01*
X163059562Y-97405840D01*
X163044661Y-97375676D01*
X163012373Y-97322955D01*
X162988202Y-97211031D01*
X163015320Y-97107978D01*
X163081478Y-97022888D01*
X163174427Y-96964853D01*
X163281919Y-96942963D01*
X163391704Y-96966311D01*
X163491533Y-97043989D01*
X163579126Y-97148087D01*
X165342363Y-97147868D01*
X167105601Y-97147648D01*
X167166620Y-97040444D01*
X167171348Y-97032422D01*
X167233233Y-96956364D01*
X167296743Y-96915168D01*
X167317893Y-96907430D01*
X167337166Y-96888443D01*
X167350448Y-96849610D01*
X167358849Y-96781021D01*
X167363476Y-96672766D01*
X167365439Y-96514935D01*
X167365847Y-96297616D01*
X167365846Y-96289171D01*
X167364995Y-96069972D01*
X167361975Y-95910336D01*
X167355956Y-95800758D01*
X167346105Y-95731732D01*
X167331590Y-95693752D01*
X167311581Y-95677311D01*
X167274214Y-95637543D01*
X167268207Y-95543476D01*
X167272084Y-95512794D01*
X167299226Y-95444940D01*
X167359082Y-95419126D01*
X167390536Y-95417220D01*
X167476702Y-95443492D01*
X167528492Y-95504873D01*
X167535494Y-95582125D01*
X167487295Y-95656011D01*
X167484126Y-95659411D01*
X167465269Y-95716553D01*
X167450368Y-95824148D01*
X167439485Y-95968896D01*
X167432686Y-96137498D01*
X167430034Y-96316652D01*
X167431595Y-96493058D01*
X167437432Y-96653416D01*
X167447610Y-96784424D01*
X167462193Y-96872783D01*
X167481246Y-96905191D01*
X167483840Y-96905314D01*
X167539455Y-96931706D01*
X167607127Y-96990220D01*
X167614472Y-96997800D01*
X167709637Y-97059973D01*
X167844138Y-97085643D01*
X167872800Y-97087594D01*
X167948992Y-97097783D01*
X167996358Y-97125063D01*
X168032563Y-97185422D01*
X168075269Y-97294849D01*
X168149270Y-97493660D01*
X168389833Y-97008578D01*
X168439072Y-96911083D01*
X168520668Y-96757505D01*
X168591163Y-96634607D01*
X168644317Y-96553051D01*
X168673885Y-96523497D01*
X168688314Y-96534535D01*
X168731968Y-96597092D01*
X168794956Y-96705618D01*
X168871225Y-96849460D01*
X168954726Y-97017964D01*
X169192078Y-97512432D01*
X169429490Y-97017964D01*
X169467230Y-96940415D01*
X169553937Y-96770846D01*
X169627548Y-96639133D01*
X169683110Y-96553832D01*
X169715674Y-96523497D01*
X169726022Y-96528826D01*
X169768780Y-96582798D01*
X169832583Y-96687926D01*
X169912383Y-96835539D01*
X170003126Y-97016966D01*
X170241808Y-97510434D01*
X170478076Y-97025640D01*
X170491729Y-96997742D01*
X170589520Y-96805682D01*
X170669964Y-96662032D01*
X170729957Y-96572013D01*
X170766393Y-96540847D01*
X170806058Y-96571784D01*
X170859669Y-96663581D01*
X170922541Y-96809647D01*
X171026639Y-97078447D01*
X171223755Y-97078568D01*
X171286035Y-97077117D01*
X171426736Y-97055058D01*
X171543256Y-97000615D01*
X171665642Y-96922541D01*
X171667110Y-96338846D01*
X171667135Y-96210596D01*
X171665157Y-96020089D01*
X171659887Y-95883884D01*
X171650546Y-95792184D01*
X171636353Y-95735189D01*
X171616530Y-95703103D01*
X171576731Y-95642428D01*
X171572392Y-95561109D01*
X171612010Y-95495474D01*
X171682976Y-95463337D01*
X171772677Y-95482513D01*
X171810263Y-95516111D01*
X171839314Y-95589803D01*
X171833307Y-95665180D01*
X171790027Y-95712861D01*
X171772510Y-95727536D01*
X171758017Y-95766094D01*
X171748090Y-95836996D01*
X171741957Y-95949501D01*
X171738844Y-96112870D01*
X171737978Y-96336363D01*
X171739206Y-96557349D01*
X171743521Y-96733690D01*
X171751339Y-96852237D01*
X171763068Y-96918975D01*
X171779116Y-96939891D01*
X171825522Y-96957338D01*
X171891889Y-97006592D01*
X171896338Y-97010646D01*
X171913579Y-97023655D01*
X171937109Y-97034593D01*
X171972184Y-97043547D01*
X172024065Y-97050603D01*
X172098010Y-97055845D01*
X172199277Y-97059361D01*
X172333124Y-97061234D01*
X172504811Y-97061552D01*
X172719597Y-97060399D01*
X172982739Y-97057862D01*
X173299496Y-97054026D01*
X173675127Y-97048976D01*
X174114891Y-97042798D01*
X174440462Y-97038279D01*
X174846842Y-97032890D01*
X175245717Y-97027862D01*
X175628246Y-97023293D01*
X175985588Y-97019283D01*
X176308902Y-97015930D01*
X176589348Y-97013332D01*
X176818084Y-97011588D01*
X176986270Y-97010797D01*
X177100739Y-97010606D01*
X177313874Y-97010906D01*
X177470221Y-97012847D01*
X177578529Y-97017197D01*
X177647542Y-97024725D01*
X177686007Y-97036198D01*
X177702673Y-97052387D01*
X177706284Y-97074058D01*
X177704414Y-97086416D01*
X177694939Y-97098108D01*
X177672699Y-97108092D01*
X177632547Y-97116582D01*
X177569334Y-97123793D01*
X177477912Y-97129939D01*
X177353133Y-97135235D01*
X177189848Y-97139895D01*
X176982908Y-97144134D01*
X176727166Y-97148167D01*
X176417473Y-97152207D01*
X176048681Y-97156470D01*
X175615642Y-97161170D01*
X175322511Y-97164348D01*
X174760860Y-97170768D01*
X174263285Y-97177004D01*
X173826188Y-97183176D01*
X173445973Y-97189400D01*
X173119041Y-97195795D01*
X172841795Y-97202480D01*
X172610639Y-97209572D01*
X172421975Y-97217190D01*
X172272206Y-97225451D01*
X172157734Y-97234475D01*
X172074962Y-97244378D01*
X172020293Y-97255280D01*
X171990129Y-97267297D01*
X171980874Y-97280550D01*
X171958917Y-97341850D01*
X171905427Y-97414772D01*
X171835311Y-97467511D01*
X171715528Y-97498603D01*
X171595052Y-97477101D01*
X171497600Y-97403654D01*
X171494598Y-97399796D01*
X171445824Y-97323255D01*
X171425683Y-97264856D01*
X171424450Y-97256684D01*
X171394617Y-97233537D01*
X171316954Y-97221156D01*
X171180836Y-97217486D01*
X170935988Y-97217486D01*
X170873218Y-97070013D01*
X170856940Y-97031543D01*
X170813831Y-96927686D01*
X170784028Y-96853142D01*
X170780505Y-96845721D01*
X170762007Y-96839734D01*
X170731718Y-96871875D01*
X170685669Y-96948523D01*
X170619892Y-97076059D01*
X170530418Y-97260860D01*
X170440081Y-97445140D01*
X170352575Y-97607876D01*
X170288543Y-97705464D01*
X170247943Y-97737978D01*
X170212928Y-97712368D01*
X170150463Y-97623652D01*
X170064194Y-97472744D01*
X169954910Y-97260929D01*
X169717158Y-96783880D01*
X169478145Y-97260929D01*
X169474381Y-97268434D01*
X169370727Y-97467835D01*
X169286406Y-97615237D01*
X169223883Y-97706623D01*
X169185618Y-97737978D01*
X169148371Y-97707215D01*
X169087368Y-97613905D01*
X169004529Y-97460421D01*
X168901241Y-97249151D01*
X168670378Y-96760324D01*
X168435694Y-97251924D01*
X168402328Y-97321523D01*
X168308737Y-97509966D01*
X168235703Y-97638408D01*
X168177710Y-97709616D01*
X168129237Y-97726354D01*
X168084766Y-97691388D01*
X168038777Y-97607485D01*
X167985753Y-97477410D01*
X167970381Y-97437653D01*
X167923963Y-97327691D01*
X167885292Y-97265069D01*
X167842929Y-97235317D01*
X167785436Y-97223963D01*
X167784864Y-97223905D01*
X167708380Y-97227123D01*
X167678142Y-97251564D01*
X167677827Y-97255189D01*
X167650635Y-97307324D01*
X167592970Y-97375211D01*
X167565299Y-97399941D01*
X167446571Y-97455534D01*
X167321779Y-97446744D01*
X167206545Y-97373634D01*
X167119796Y-97286885D01*
X165348588Y-97286885D01*
X163577381Y-97286885D01*
X163512249Y-97364959D01*
X163497181Y-97385457D01*
X163481742Y-97417857D01*
X163469804Y-97464899D01*
X163460909Y-97534406D01*
X163454595Y-97634200D01*
X163450403Y-97772103D01*
X163447874Y-97955938D01*
X163446547Y-98193526D01*
X163445963Y-98492691D01*
X163444809Y-99542350D01*
X164520492Y-99542350D01*
X165596175Y-99542350D01*
X165596175Y-99646448D01*
X165596175Y-106621038D01*
G37*
%TO.C,G7*%
G36*
X182111637Y-43000000D02*
G01*
X182111637Y-43148173D01*
X181963463Y-43148173D01*
X181815290Y-43148173D01*
X181815290Y-43000000D01*
X181815290Y-42851827D01*
X181963463Y-42851827D01*
X182111637Y-42851827D01*
X182111637Y-43000000D01*
G37*
G36*
X182111637Y-45667117D02*
G01*
X182111637Y-46111636D01*
X181667117Y-46111636D01*
X181222598Y-46111636D01*
X181222598Y-45667117D01*
X181222598Y-45222597D01*
X181667117Y-45222597D01*
X182111637Y-45222597D01*
X182111637Y-45667117D01*
G37*
G36*
X181815290Y-41814615D02*
G01*
X181815290Y-41962788D01*
X181518944Y-41962788D01*
X181222598Y-41962788D01*
X181222598Y-41814615D01*
X181222598Y-41666441D01*
X181518944Y-41666441D01*
X181815290Y-41666441D01*
X181815290Y-41814615D01*
G37*
G36*
X182111637Y-40332883D02*
G01*
X182111637Y-40777402D01*
X181667117Y-40777402D01*
X181222598Y-40777402D01*
X181222598Y-40332883D01*
X181222598Y-39888363D01*
X181667117Y-39888363D01*
X182111637Y-39888363D01*
X182111637Y-40332883D01*
G37*
G36*
X180926251Y-41814615D02*
G01*
X180926251Y-41962788D01*
X180778078Y-41962788D01*
X180629905Y-41962788D01*
X180629905Y-41814615D01*
X180629905Y-41666441D01*
X180778078Y-41666441D01*
X180926251Y-41666441D01*
X180926251Y-41814615D01*
G37*
G36*
X180333559Y-46407983D02*
G01*
X180333559Y-46704329D01*
X180185385Y-46704329D01*
X180037212Y-46704329D01*
X180037212Y-46407983D01*
X180037212Y-46111636D01*
X180185385Y-46111636D01*
X180333559Y-46111636D01*
X180333559Y-46407983D01*
G37*
G36*
X179740866Y-41221922D02*
G01*
X179740866Y-41370095D01*
X179592693Y-41370095D01*
X179444520Y-41370095D01*
X179444520Y-41221922D01*
X179444520Y-41073749D01*
X179592693Y-41073749D01*
X179740866Y-41073749D01*
X179740866Y-41221922D01*
G37*
G36*
X178851827Y-45667117D02*
G01*
X178851827Y-45815290D01*
X178703654Y-45815290D01*
X178555481Y-45815290D01*
X178555481Y-45667117D01*
X178555481Y-45518944D01*
X178703654Y-45518944D01*
X178851827Y-45518944D01*
X178851827Y-45667117D01*
G37*
G36*
X178555481Y-44481732D02*
G01*
X178555481Y-44629905D01*
X178407307Y-44629905D01*
X178259134Y-44629905D01*
X178259134Y-44481732D01*
X178259134Y-44333558D01*
X178407307Y-44333558D01*
X178555481Y-44333558D01*
X178555481Y-44481732D01*
G37*
G36*
X178555481Y-39443844D02*
G01*
X178555481Y-39592017D01*
X178407307Y-39592017D01*
X178259134Y-39592017D01*
X178259134Y-39443844D01*
X178259134Y-39295671D01*
X178407307Y-39295671D01*
X178555481Y-39295671D01*
X178555481Y-39443844D01*
G37*
G36*
X177962788Y-40481056D02*
G01*
X177962788Y-40777402D01*
X177814615Y-40777402D01*
X177666442Y-40777402D01*
X177666442Y-40481056D01*
X177666442Y-40184710D01*
X177814615Y-40184710D01*
X177962788Y-40184710D01*
X177962788Y-40481056D01*
G37*
G36*
X177962788Y-39592017D02*
G01*
X177962788Y-39888363D01*
X177814615Y-39888363D01*
X177666442Y-39888363D01*
X177666442Y-39592017D01*
X177666442Y-39295671D01*
X177814615Y-39295671D01*
X177962788Y-39295671D01*
X177962788Y-39592017D01*
G37*
G36*
X177666442Y-43592693D02*
G01*
X177666442Y-43740866D01*
X177518268Y-43740866D01*
X177370095Y-43740866D01*
X177370095Y-43592693D01*
X177370095Y-43444519D01*
X177518268Y-43444519D01*
X177666442Y-43444519D01*
X177666442Y-43592693D01*
G37*
G36*
X177370095Y-44778078D02*
G01*
X177370095Y-44926251D01*
X177221922Y-44926251D01*
X177073749Y-44926251D01*
X177073749Y-44778078D01*
X177073749Y-44629905D01*
X177221922Y-44629905D01*
X177370095Y-44629905D01*
X177370095Y-44778078D01*
G37*
G36*
X176777403Y-40332883D02*
G01*
X176777403Y-40777402D01*
X176332883Y-40777402D01*
X175888364Y-40777402D01*
X175888364Y-40332883D01*
X175888364Y-39888363D01*
X176332883Y-39888363D01*
X176777403Y-39888363D01*
X176777403Y-40332883D01*
G37*
G36*
X182704329Y-45667117D02*
G01*
X182704329Y-46704329D01*
X181667117Y-46704329D01*
X180629905Y-46704329D01*
X180629905Y-46407983D01*
X180926251Y-46407983D01*
X181667117Y-46407983D01*
X182407983Y-46407983D01*
X182407983Y-45667117D01*
X182407983Y-44926251D01*
X181667117Y-44926251D01*
X180926251Y-44926251D01*
X180926251Y-45667117D01*
X180926251Y-46407983D01*
X180629905Y-46407983D01*
X180629905Y-45667117D01*
X180629905Y-44629905D01*
X181667117Y-44629905D01*
X182704329Y-44629905D01*
X182704329Y-44926251D01*
X182704329Y-45667117D01*
G37*
G36*
X182704329Y-40332883D02*
G01*
X182704329Y-41370095D01*
X181667117Y-41370095D01*
X180629905Y-41370095D01*
X180629905Y-41073749D01*
X180926251Y-41073749D01*
X181667117Y-41073749D01*
X182407983Y-41073749D01*
X182407983Y-40332883D01*
X182407983Y-39592017D01*
X181667117Y-39592017D01*
X180926251Y-39592017D01*
X180926251Y-40332883D01*
X180926251Y-41073749D01*
X180629905Y-41073749D01*
X180629905Y-40332883D01*
X180629905Y-39295671D01*
X181667117Y-39295671D01*
X182704329Y-39295671D01*
X182704329Y-39592017D01*
X182704329Y-40332883D01*
G37*
G36*
X177370095Y-40332883D02*
G01*
X177370095Y-41370095D01*
X176332883Y-41370095D01*
X175295671Y-41370095D01*
X175295671Y-41073749D01*
X175592017Y-41073749D01*
X176332883Y-41073749D01*
X177073749Y-41073749D01*
X177073749Y-40332883D01*
X177073749Y-39592017D01*
X176332883Y-39592017D01*
X175592017Y-39592017D01*
X175592017Y-40332883D01*
X175592017Y-41073749D01*
X175295671Y-41073749D01*
X175295671Y-40332883D01*
X175295671Y-39295671D01*
X176332883Y-39295671D01*
X177370095Y-39295671D01*
X177370095Y-39592017D01*
X177370095Y-40332883D01*
G37*
G36*
X177221922Y-46111636D02*
G01*
X177666442Y-46111636D01*
X177666442Y-46259810D01*
X177666442Y-46407983D01*
X177814615Y-46407983D01*
X177962788Y-46407983D01*
X177962788Y-46556156D01*
X177962788Y-46704329D01*
X177518268Y-46704329D01*
X177073749Y-46704329D01*
X177073749Y-46556156D01*
X177073749Y-46407983D01*
X176777403Y-46407983D01*
X176481056Y-46407983D01*
X176481056Y-46556156D01*
X176481056Y-46704329D01*
X176332883Y-46704329D01*
X176184710Y-46704329D01*
X176184710Y-46556156D01*
X176184710Y-46407983D01*
X176332883Y-46407983D01*
X176481056Y-46407983D01*
X176481056Y-46259810D01*
X176481056Y-46111636D01*
X176332883Y-46111636D01*
X176184710Y-46111636D01*
X176184710Y-46259810D01*
X176184710Y-46407983D01*
X175888364Y-46407983D01*
X175592017Y-46407983D01*
X175592017Y-46556156D01*
X175592017Y-46704329D01*
X175443844Y-46704329D01*
X175295671Y-46704329D01*
X175295671Y-46111636D01*
X175295671Y-45518944D01*
X175443844Y-45518944D01*
X175592017Y-45518944D01*
X175592017Y-45370771D01*
X175592017Y-45222597D01*
X175740190Y-45222597D01*
X175888364Y-45222597D01*
X175888364Y-45518944D01*
X175888364Y-45815290D01*
X176332883Y-45815290D01*
X176777403Y-45815290D01*
X176777403Y-45963463D01*
X176777403Y-46111636D01*
X177221922Y-46111636D01*
G37*
G36*
X175592017Y-44926251D02*
G01*
X175592017Y-45222597D01*
X175443844Y-45222597D01*
X175295671Y-45222597D01*
X175295671Y-44926251D01*
X175295671Y-44629905D01*
X175443844Y-44629905D01*
X175592017Y-44629905D01*
X175592017Y-44926251D01*
G37*
G36*
X179148173Y-41221922D02*
G01*
X179148173Y-41370095D01*
X179296346Y-41370095D01*
X179444520Y-41370095D01*
X179444520Y-41518268D01*
X179444520Y-41666441D01*
X179000000Y-41666441D01*
X178555481Y-41666441D01*
X178555481Y-41518268D01*
X178555481Y-41370095D01*
X178703654Y-41370095D01*
X178851827Y-41370095D01*
X178851827Y-41221922D01*
X178851827Y-41073749D01*
X178703654Y-41073749D01*
X178555481Y-41073749D01*
X178555481Y-41221922D01*
X178555481Y-41370095D01*
X178407307Y-41370095D01*
X178259134Y-41370095D01*
X178259134Y-41518268D01*
X178259134Y-41666441D01*
X178110961Y-41666441D01*
X177962788Y-41666441D01*
X177962788Y-41814615D01*
X177962788Y-41962788D01*
X178110961Y-41962788D01*
X178259134Y-41962788D01*
X178259134Y-42259134D01*
X178259134Y-42555480D01*
X177962788Y-42555480D01*
X177666442Y-42555480D01*
X177666442Y-42703654D01*
X177666442Y-42851827D01*
X178110961Y-42851827D01*
X178555481Y-42851827D01*
X178555481Y-43000000D01*
X178555481Y-43148173D01*
X178407307Y-43148173D01*
X178259134Y-43148173D01*
X178259134Y-43296346D01*
X178259134Y-43444519D01*
X178407307Y-43444519D01*
X178555481Y-43444519D01*
X178555481Y-43296346D01*
X178555481Y-43148173D01*
X178703654Y-43148173D01*
X178851827Y-43148173D01*
X178851827Y-43444519D01*
X178851827Y-43740866D01*
X178555481Y-43740866D01*
X178259134Y-43740866D01*
X178259134Y-44037212D01*
X178259134Y-44333558D01*
X178110961Y-44333558D01*
X177962788Y-44333558D01*
X177962788Y-44629905D01*
X177962788Y-44926251D01*
X178110961Y-44926251D01*
X178259134Y-44926251D01*
X178259134Y-45074424D01*
X178259134Y-45222597D01*
X178407307Y-45222597D01*
X178555481Y-45222597D01*
X178555481Y-45074424D01*
X178555481Y-44926251D01*
X178851827Y-44926251D01*
X179148173Y-44926251D01*
X179148173Y-44778078D01*
X179148173Y-44629905D01*
X179296346Y-44629905D01*
X179444520Y-44629905D01*
X179444520Y-44481732D01*
X179444520Y-44333558D01*
X180037212Y-44333558D01*
X180185385Y-44333558D01*
X180333559Y-44333558D01*
X180333559Y-44037212D01*
X180333559Y-43740866D01*
X180185385Y-43740866D01*
X180037212Y-43740866D01*
X180037212Y-44037212D01*
X180037212Y-44333558D01*
X179444520Y-44333558D01*
X179296346Y-44333558D01*
X179148173Y-44333558D01*
X179148173Y-44037212D01*
X179148173Y-43740866D01*
X179444520Y-43740866D01*
X179740866Y-43740866D01*
X179740866Y-43592693D01*
X179740866Y-43444519D01*
X179889039Y-43444519D01*
X180037212Y-43444519D01*
X180037212Y-43296346D01*
X180037212Y-43148173D01*
X180333559Y-43148173D01*
X180333559Y-43296346D01*
X180333559Y-43444519D01*
X180629905Y-43444519D01*
X180926251Y-43444519D01*
X180926251Y-43296346D01*
X180926251Y-43148173D01*
X180629905Y-43148173D01*
X180333559Y-43148173D01*
X180037212Y-43148173D01*
X179889039Y-43148173D01*
X179740866Y-43148173D01*
X179740866Y-43296346D01*
X179740866Y-43444519D01*
X179592693Y-43444519D01*
X179444520Y-43444519D01*
X179444520Y-43296346D01*
X179444520Y-43148173D01*
X179296346Y-43148173D01*
X179148173Y-43148173D01*
X179148173Y-43000000D01*
X179148173Y-42851827D01*
X179592693Y-42851827D01*
X180037212Y-42851827D01*
X180037212Y-42703654D01*
X180037212Y-42555480D01*
X180185385Y-42555480D01*
X180333559Y-42555480D01*
X180333559Y-42703654D01*
X180333559Y-42851827D01*
X180629905Y-42851827D01*
X180926251Y-42851827D01*
X180926251Y-42703654D01*
X180926251Y-42555480D01*
X180778078Y-42555480D01*
X180629905Y-42555480D01*
X180629905Y-42407307D01*
X180629905Y-42259134D01*
X180778078Y-42259134D01*
X180926251Y-42259134D01*
X180926251Y-42407307D01*
X180926251Y-42555480D01*
X181370771Y-42555480D01*
X181815290Y-42555480D01*
X181815290Y-42407307D01*
X181815290Y-42259134D01*
X181963463Y-42259134D01*
X182111637Y-42259134D01*
X182111637Y-41962788D01*
X182111637Y-41666441D01*
X182407983Y-41666441D01*
X182704329Y-41666441D01*
X182704329Y-41814615D01*
X182704329Y-41962788D01*
X182556156Y-41962788D01*
X182407983Y-41962788D01*
X182407983Y-42259134D01*
X182407983Y-42555480D01*
X182111637Y-42555480D01*
X181815290Y-42555480D01*
X181815290Y-42703654D01*
X181815290Y-42851827D01*
X181667117Y-42851827D01*
X181518944Y-42851827D01*
X181518944Y-43000000D01*
X181518944Y-43148173D01*
X181667117Y-43148173D01*
X181815290Y-43148173D01*
X181815290Y-43444519D01*
X181815290Y-43740866D01*
X181667117Y-43740866D01*
X181518944Y-43740866D01*
X181518944Y-43592693D01*
X181518944Y-43444519D01*
X181222598Y-43444519D01*
X180926251Y-43444519D01*
X180926251Y-43592693D01*
X180926251Y-43740866D01*
X180778078Y-43740866D01*
X180629905Y-43740866D01*
X180629905Y-43889039D01*
X180629905Y-44037212D01*
X181222598Y-44037212D01*
X181815290Y-44037212D01*
X181815290Y-43889039D01*
X181815290Y-43740866D01*
X181963463Y-43740866D01*
X182111637Y-43740866D01*
X182111637Y-43889039D01*
X182111637Y-44037212D01*
X181963463Y-44037212D01*
X181815290Y-44037212D01*
X181815290Y-44185385D01*
X181815290Y-44333558D01*
X181074424Y-44333558D01*
X180333559Y-44333558D01*
X180333559Y-44481732D01*
X180333559Y-44629905D01*
X180037212Y-44629905D01*
X179740866Y-44629905D01*
X179740866Y-44778078D01*
X179740866Y-44926251D01*
X179592693Y-44926251D01*
X179444520Y-44926251D01*
X179444520Y-45074424D01*
X179444520Y-45222597D01*
X179000000Y-45222597D01*
X178555481Y-45222597D01*
X178555481Y-45370771D01*
X178555481Y-45518944D01*
X178407307Y-45518944D01*
X178259134Y-45518944D01*
X178259134Y-45667117D01*
X178259134Y-45815290D01*
X178407307Y-45815290D01*
X178555481Y-45815290D01*
X178555481Y-46111636D01*
X178555481Y-46407983D01*
X179000000Y-46407983D01*
X179444520Y-46407983D01*
X179444520Y-46259810D01*
X179444520Y-46111636D01*
X179296346Y-46111636D01*
X179148173Y-46111636D01*
X179148173Y-45963463D01*
X179148173Y-45815290D01*
X179296346Y-45815290D01*
X179444520Y-45815290D01*
X179444520Y-45518944D01*
X179444520Y-45222597D01*
X179592693Y-45222597D01*
X179740866Y-45222597D01*
X179740866Y-45370771D01*
X179740866Y-45518944D01*
X179889039Y-45518944D01*
X180037212Y-45518944D01*
X180037212Y-45370771D01*
X180037212Y-45222597D01*
X180185385Y-45222597D01*
X180333559Y-45222597D01*
X180333559Y-45518944D01*
X180333559Y-45815290D01*
X180037212Y-45815290D01*
X179740866Y-45815290D01*
X179740866Y-46111636D01*
X179740866Y-46407983D01*
X179592693Y-46407983D01*
X179444520Y-46407983D01*
X179444520Y-46556156D01*
X179444520Y-46704329D01*
X179000000Y-46704329D01*
X178555481Y-46704329D01*
X178555481Y-46556156D01*
X178555481Y-46407983D01*
X178407307Y-46407983D01*
X178259134Y-46407983D01*
X178259134Y-46259810D01*
X178259134Y-46111636D01*
X178110961Y-46111636D01*
X177962788Y-46111636D01*
X177962788Y-45963463D01*
X177962788Y-45815290D01*
X177518268Y-45815290D01*
X177073749Y-45815290D01*
X177073749Y-45667117D01*
X177073749Y-45518944D01*
X176777403Y-45518944D01*
X176481056Y-45518944D01*
X176481056Y-45222597D01*
X176777403Y-45222597D01*
X177221922Y-45222597D01*
X177666442Y-45222597D01*
X177666442Y-44778078D01*
X177666442Y-44333558D01*
X177221922Y-44333558D01*
X176777403Y-44333558D01*
X176777403Y-44778078D01*
X176777403Y-45222597D01*
X176481056Y-45222597D01*
X176481056Y-44778078D01*
X176481056Y-44037212D01*
X176332883Y-44037212D01*
X176184710Y-44037212D01*
X176184710Y-44333558D01*
X176184710Y-44629905D01*
X175888364Y-44629905D01*
X175592017Y-44629905D01*
X175592017Y-44333558D01*
X175592017Y-44037212D01*
X175740190Y-44037212D01*
X175888364Y-44037212D01*
X175888364Y-43889039D01*
X175888364Y-43740866D01*
X175740190Y-43740866D01*
X175592017Y-43740866D01*
X175592017Y-43889039D01*
X175592017Y-44037212D01*
X175443844Y-44037212D01*
X175295671Y-44037212D01*
X175295671Y-43740866D01*
X175295671Y-43444519D01*
X175443844Y-43444519D01*
X175592017Y-43444519D01*
X175592017Y-43296346D01*
X175592017Y-43148173D01*
X175740190Y-43148173D01*
X175888364Y-43148173D01*
X175888364Y-43296346D01*
X175888364Y-43444519D01*
X176184710Y-43444519D01*
X176481056Y-43444519D01*
X176481056Y-43296346D01*
X176481056Y-43148173D01*
X176629229Y-43148173D01*
X176777403Y-43148173D01*
X176777403Y-43444519D01*
X176777403Y-43740866D01*
X176629229Y-43740866D01*
X176481056Y-43740866D01*
X176481056Y-43889039D01*
X176481056Y-44037212D01*
X176629229Y-44037212D01*
X176777403Y-44037212D01*
X176777403Y-43889039D01*
X176777403Y-43740866D01*
X176925576Y-43740866D01*
X177073749Y-43740866D01*
X177073749Y-43889039D01*
X177073749Y-44037212D01*
X177518268Y-44037212D01*
X177962788Y-44037212D01*
X177962788Y-43740866D01*
X177962788Y-43444519D01*
X177814615Y-43444519D01*
X177666442Y-43444519D01*
X177666442Y-43296346D01*
X177666442Y-43148173D01*
X177370095Y-43148173D01*
X177073749Y-43148173D01*
X177073749Y-43000000D01*
X177073749Y-42851827D01*
X177221922Y-42851827D01*
X177370095Y-42851827D01*
X177370095Y-42703654D01*
X177370095Y-42555480D01*
X176925576Y-42555480D01*
X176481056Y-42555480D01*
X176481056Y-42703654D01*
X176481056Y-42851827D01*
X176036537Y-42851827D01*
X175592017Y-42851827D01*
X175592017Y-43000000D01*
X175592017Y-43148173D01*
X175443844Y-43148173D01*
X175295671Y-43148173D01*
X175295671Y-42703654D01*
X175295671Y-42259134D01*
X175443844Y-42259134D01*
X175592017Y-42259134D01*
X175592017Y-42407307D01*
X175592017Y-42555480D01*
X175888364Y-42555480D01*
X176184710Y-42555480D01*
X176184710Y-42407307D01*
X176184710Y-42259134D01*
X175888364Y-42259134D01*
X175592017Y-42259134D01*
X175592017Y-42110961D01*
X175592017Y-41962788D01*
X175443844Y-41962788D01*
X175295671Y-41962788D01*
X175295671Y-41814615D01*
X175295671Y-41666441D01*
X175443844Y-41666441D01*
X175592017Y-41666441D01*
X175592017Y-41814615D01*
X175592017Y-41962788D01*
X176332883Y-41962788D01*
X177073749Y-41962788D01*
X177073749Y-41814615D01*
X177073749Y-41666441D01*
X177221922Y-41666441D01*
X177370095Y-41666441D01*
X177370095Y-41814615D01*
X177370095Y-41962788D01*
X177221922Y-41962788D01*
X177073749Y-41962788D01*
X177073749Y-42110961D01*
X177073749Y-42259134D01*
X177221922Y-42259134D01*
X177370095Y-42259134D01*
X177370095Y-42110961D01*
X177370095Y-41962788D01*
X177518268Y-41962788D01*
X177666442Y-41962788D01*
X177666442Y-41518268D01*
X177666442Y-41073749D01*
X177814615Y-41073749D01*
X177962788Y-41073749D01*
X177962788Y-41221922D01*
X177962788Y-41370095D01*
X178110961Y-41370095D01*
X178259134Y-41370095D01*
X178259134Y-41073749D01*
X178259134Y-40777402D01*
X178555481Y-40777402D01*
X178851827Y-40777402D01*
X178851827Y-40629229D01*
X178851827Y-40481056D01*
X178555481Y-40481056D01*
X178259134Y-40481056D01*
X178259134Y-40184710D01*
X178259134Y-39888363D01*
X178555481Y-39888363D01*
X178851827Y-39888363D01*
X178851827Y-40036537D01*
X178851827Y-40184710D01*
X179000000Y-40184710D01*
X179148173Y-40184710D01*
X179148173Y-40036537D01*
X179148173Y-39888363D01*
X179000000Y-39888363D01*
X178851827Y-39888363D01*
X178851827Y-39740190D01*
X178851827Y-39592017D01*
X179000000Y-39592017D01*
X179148173Y-39592017D01*
X179148173Y-39443844D01*
X179148173Y-39295671D01*
X179740866Y-39295671D01*
X180333559Y-39295671D01*
X180333559Y-39443844D01*
X180333559Y-39592017D01*
X179889039Y-39592017D01*
X179444520Y-39592017D01*
X179444520Y-39888363D01*
X179444520Y-40184710D01*
X179592693Y-40184710D01*
X179740866Y-40184710D01*
X179740866Y-40036537D01*
X179740866Y-39888363D01*
X179889039Y-39888363D01*
X180037212Y-39888363D01*
X180037212Y-40036537D01*
X180037212Y-40184710D01*
X179889039Y-40184710D01*
X179740866Y-40184710D01*
X179740866Y-40481056D01*
X179740866Y-40777402D01*
X179592693Y-40777402D01*
X179444520Y-40777402D01*
X179444520Y-40925576D01*
X179444520Y-41073749D01*
X179296346Y-41073749D01*
X179148173Y-41073749D01*
X179148173Y-41221922D01*
G37*
G36*
X182556156Y-42555480D02*
G01*
X182704329Y-42555480D01*
X182704329Y-43444519D01*
X182704329Y-44333558D01*
X182556156Y-44333558D01*
X182407983Y-44333558D01*
X182407983Y-44037212D01*
X182407983Y-43740866D01*
X182259810Y-43740866D01*
X182111637Y-43740866D01*
X182111637Y-43444519D01*
X182111637Y-43148173D01*
X182259810Y-43148173D01*
X182407983Y-43148173D01*
X182407983Y-42851827D01*
X182407983Y-42555480D01*
X182556156Y-42555480D01*
G37*
G36*
X179889039Y-42259134D02*
G01*
X180037212Y-42259134D01*
X180037212Y-42407307D01*
X180037212Y-42555480D01*
X179889039Y-42555480D01*
X179740866Y-42555480D01*
X179740866Y-42407307D01*
X179740866Y-42259134D01*
X179889039Y-42259134D01*
G37*
G36*
X179740866Y-42110961D02*
G01*
X179740866Y-42259134D01*
X179592693Y-42259134D01*
X179444520Y-42259134D01*
X179444520Y-42407307D01*
X179444520Y-42555480D01*
X179148173Y-42555480D01*
X178851827Y-42555480D01*
X178851827Y-42407307D01*
X178851827Y-42259134D01*
X179000000Y-42259134D01*
X179148173Y-42259134D01*
X179148173Y-42110961D01*
X179148173Y-41962788D01*
X179444520Y-41962788D01*
X179740866Y-41962788D01*
X179740866Y-42110961D01*
G37*
G36*
X180185385Y-41073749D02*
G01*
X180333559Y-41073749D01*
X180333559Y-41370095D01*
X180333559Y-41666441D01*
X180185385Y-41666441D01*
X180037212Y-41666441D01*
X180037212Y-41814615D01*
X180037212Y-41962788D01*
X179889039Y-41962788D01*
X179740866Y-41962788D01*
X179740866Y-41666441D01*
X179740866Y-41370095D01*
X179889039Y-41370095D01*
X180037212Y-41370095D01*
X180037212Y-41221922D01*
X180037212Y-41073749D01*
X180185385Y-41073749D01*
G37*
G36*
X179889039Y-40777402D02*
G01*
X180037212Y-40777402D01*
X180037212Y-40925576D01*
X180037212Y-41073749D01*
X179889039Y-41073749D01*
X179740866Y-41073749D01*
X179740866Y-40925576D01*
X179740866Y-40777402D01*
X179889039Y-40777402D01*
G37*
%TD*%
M02*
