%TF.GenerationSoftware,KiCad,Pcbnew,7.0.5*%
%TF.CreationDate,2023-12-19T17:12:36-05:00*%
%TF.ProjectId,biphasic_revision_b,62697068-6173-4696-935f-726576697369,rev?*%
%TF.SameCoordinates,Original*%
%TF.FileFunction,Profile,NP*%
%FSLAX46Y46*%
G04 Gerber Fmt 4.6, Leading zero omitted, Abs format (unit mm)*
G04 Created by KiCad (PCBNEW 7.0.5) date 2023-12-19 17:12:36*
%MOMM*%
%LPD*%
G01*
G04 APERTURE LIST*
%ADD10C,0.150000*%
%TA.AperFunction,Profile*%
%ADD11C,0.100000*%
%TD*%
G04 APERTURE END LIST*
D10*
X157904762Y-121304819D02*
X157428572Y-121304819D01*
X157428572Y-121304819D02*
X157380953Y-121781009D01*
X157380953Y-121781009D02*
X157428572Y-121733390D01*
X157428572Y-121733390D02*
X157523810Y-121685771D01*
X157523810Y-121685771D02*
X157761905Y-121685771D01*
X157761905Y-121685771D02*
X157857143Y-121733390D01*
X157857143Y-121733390D02*
X157904762Y-121781009D01*
X157904762Y-121781009D02*
X157952381Y-121876247D01*
X157952381Y-121876247D02*
X157952381Y-122114342D01*
X157952381Y-122114342D02*
X157904762Y-122209580D01*
X157904762Y-122209580D02*
X157857143Y-122257200D01*
X157857143Y-122257200D02*
X157761905Y-122304819D01*
X157761905Y-122304819D02*
X157523810Y-122304819D01*
X157523810Y-122304819D02*
X157428572Y-122257200D01*
X157428572Y-122257200D02*
X157380953Y-122209580D01*
X158809524Y-121304819D02*
X158619048Y-121304819D01*
X158619048Y-121304819D02*
X158523810Y-121352438D01*
X158523810Y-121352438D02*
X158476191Y-121400057D01*
X158476191Y-121400057D02*
X158380953Y-121542914D01*
X158380953Y-121542914D02*
X158333334Y-121733390D01*
X158333334Y-121733390D02*
X158333334Y-122114342D01*
X158333334Y-122114342D02*
X158380953Y-122209580D01*
X158380953Y-122209580D02*
X158428572Y-122257200D01*
X158428572Y-122257200D02*
X158523810Y-122304819D01*
X158523810Y-122304819D02*
X158714286Y-122304819D01*
X158714286Y-122304819D02*
X158809524Y-122257200D01*
X158809524Y-122257200D02*
X158857143Y-122209580D01*
X158857143Y-122209580D02*
X158904762Y-122114342D01*
X158904762Y-122114342D02*
X158904762Y-121876247D01*
X158904762Y-121876247D02*
X158857143Y-121781009D01*
X158857143Y-121781009D02*
X158809524Y-121733390D01*
X158809524Y-121733390D02*
X158714286Y-121685771D01*
X158714286Y-121685771D02*
X158523810Y-121685771D01*
X158523810Y-121685771D02*
X158428572Y-121733390D01*
X158428572Y-121733390D02*
X158380953Y-121781009D01*
X158380953Y-121781009D02*
X158333334Y-121876247D01*
X159333334Y-122209580D02*
X159380953Y-122257200D01*
X159380953Y-122257200D02*
X159333334Y-122304819D01*
X159333334Y-122304819D02*
X159285715Y-122257200D01*
X159285715Y-122257200D02*
X159333334Y-122209580D01*
X159333334Y-122209580D02*
X159333334Y-122304819D01*
X160000000Y-121304819D02*
X160095238Y-121304819D01*
X160095238Y-121304819D02*
X160190476Y-121352438D01*
X160190476Y-121352438D02*
X160238095Y-121400057D01*
X160238095Y-121400057D02*
X160285714Y-121495295D01*
X160285714Y-121495295D02*
X160333333Y-121685771D01*
X160333333Y-121685771D02*
X160333333Y-121923866D01*
X160333333Y-121923866D02*
X160285714Y-122114342D01*
X160285714Y-122114342D02*
X160238095Y-122209580D01*
X160238095Y-122209580D02*
X160190476Y-122257200D01*
X160190476Y-122257200D02*
X160095238Y-122304819D01*
X160095238Y-122304819D02*
X160000000Y-122304819D01*
X160000000Y-122304819D02*
X159904762Y-122257200D01*
X159904762Y-122257200D02*
X159857143Y-122209580D01*
X159857143Y-122209580D02*
X159809524Y-122114342D01*
X159809524Y-122114342D02*
X159761905Y-121923866D01*
X159761905Y-121923866D02*
X159761905Y-121685771D01*
X159761905Y-121685771D02*
X159809524Y-121495295D01*
X159809524Y-121495295D02*
X159857143Y-121400057D01*
X159857143Y-121400057D02*
X159904762Y-121352438D01*
X159904762Y-121352438D02*
X160000000Y-121304819D01*
X160952381Y-121304819D02*
X161047619Y-121304819D01*
X161047619Y-121304819D02*
X161142857Y-121352438D01*
X161142857Y-121352438D02*
X161190476Y-121400057D01*
X161190476Y-121400057D02*
X161238095Y-121495295D01*
X161238095Y-121495295D02*
X161285714Y-121685771D01*
X161285714Y-121685771D02*
X161285714Y-121923866D01*
X161285714Y-121923866D02*
X161238095Y-122114342D01*
X161238095Y-122114342D02*
X161190476Y-122209580D01*
X161190476Y-122209580D02*
X161142857Y-122257200D01*
X161142857Y-122257200D02*
X161047619Y-122304819D01*
X161047619Y-122304819D02*
X160952381Y-122304819D01*
X160952381Y-122304819D02*
X160857143Y-122257200D01*
X160857143Y-122257200D02*
X160809524Y-122209580D01*
X160809524Y-122209580D02*
X160761905Y-122114342D01*
X160761905Y-122114342D02*
X160714286Y-121923866D01*
X160714286Y-121923866D02*
X160714286Y-121685771D01*
X160714286Y-121685771D02*
X160761905Y-121495295D01*
X160761905Y-121495295D02*
X160809524Y-121400057D01*
X160809524Y-121400057D02*
X160857143Y-121352438D01*
X160857143Y-121352438D02*
X160952381Y-121304819D01*
X161904762Y-121304819D02*
X162000000Y-121304819D01*
X162000000Y-121304819D02*
X162095238Y-121352438D01*
X162095238Y-121352438D02*
X162142857Y-121400057D01*
X162142857Y-121400057D02*
X162190476Y-121495295D01*
X162190476Y-121495295D02*
X162238095Y-121685771D01*
X162238095Y-121685771D02*
X162238095Y-121923866D01*
X162238095Y-121923866D02*
X162190476Y-122114342D01*
X162190476Y-122114342D02*
X162142857Y-122209580D01*
X162142857Y-122209580D02*
X162095238Y-122257200D01*
X162095238Y-122257200D02*
X162000000Y-122304819D01*
X162000000Y-122304819D02*
X161904762Y-122304819D01*
X161904762Y-122304819D02*
X161809524Y-122257200D01*
X161809524Y-122257200D02*
X161761905Y-122209580D01*
X161761905Y-122209580D02*
X161714286Y-122114342D01*
X161714286Y-122114342D02*
X161666667Y-121923866D01*
X161666667Y-121923866D02*
X161666667Y-121685771D01*
X161666667Y-121685771D02*
X161714286Y-121495295D01*
X161714286Y-121495295D02*
X161761905Y-121400057D01*
X161761905Y-121400057D02*
X161809524Y-121352438D01*
X161809524Y-121352438D02*
X161904762Y-121304819D01*
X162857143Y-121304819D02*
X162952381Y-121304819D01*
X162952381Y-121304819D02*
X163047619Y-121352438D01*
X163047619Y-121352438D02*
X163095238Y-121400057D01*
X163095238Y-121400057D02*
X163142857Y-121495295D01*
X163142857Y-121495295D02*
X163190476Y-121685771D01*
X163190476Y-121685771D02*
X163190476Y-121923866D01*
X163190476Y-121923866D02*
X163142857Y-122114342D01*
X163142857Y-122114342D02*
X163095238Y-122209580D01*
X163095238Y-122209580D02*
X163047619Y-122257200D01*
X163047619Y-122257200D02*
X162952381Y-122304819D01*
X162952381Y-122304819D02*
X162857143Y-122304819D01*
X162857143Y-122304819D02*
X162761905Y-122257200D01*
X162761905Y-122257200D02*
X162714286Y-122209580D01*
X162714286Y-122209580D02*
X162666667Y-122114342D01*
X162666667Y-122114342D02*
X162619048Y-121923866D01*
X162619048Y-121923866D02*
X162619048Y-121685771D01*
X162619048Y-121685771D02*
X162666667Y-121495295D01*
X162666667Y-121495295D02*
X162714286Y-121400057D01*
X162714286Y-121400057D02*
X162761905Y-121352438D01*
X162761905Y-121352438D02*
X162857143Y-121304819D01*
X164380953Y-122304819D02*
X164380953Y-121638152D01*
X164380953Y-121733390D02*
X164428572Y-121685771D01*
X164428572Y-121685771D02*
X164523810Y-121638152D01*
X164523810Y-121638152D02*
X164666667Y-121638152D01*
X164666667Y-121638152D02*
X164761905Y-121685771D01*
X164761905Y-121685771D02*
X164809524Y-121781009D01*
X164809524Y-121781009D02*
X164809524Y-122304819D01*
X164809524Y-121781009D02*
X164857143Y-121685771D01*
X164857143Y-121685771D02*
X164952381Y-121638152D01*
X164952381Y-121638152D02*
X165095238Y-121638152D01*
X165095238Y-121638152D02*
X165190477Y-121685771D01*
X165190477Y-121685771D02*
X165238096Y-121781009D01*
X165238096Y-121781009D02*
X165238096Y-122304819D01*
X165714286Y-122304819D02*
X165714286Y-121638152D01*
X165714286Y-121733390D02*
X165761905Y-121685771D01*
X165761905Y-121685771D02*
X165857143Y-121638152D01*
X165857143Y-121638152D02*
X166000000Y-121638152D01*
X166000000Y-121638152D02*
X166095238Y-121685771D01*
X166095238Y-121685771D02*
X166142857Y-121781009D01*
X166142857Y-121781009D02*
X166142857Y-122304819D01*
X166142857Y-121781009D02*
X166190476Y-121685771D01*
X166190476Y-121685771D02*
X166285714Y-121638152D01*
X166285714Y-121638152D02*
X166428571Y-121638152D01*
X166428571Y-121638152D02*
X166523810Y-121685771D01*
X166523810Y-121685771D02*
X166571429Y-121781009D01*
X166571429Y-121781009D02*
X166571429Y-122304819D01*
D11*
X134000000Y-117500000D02*
X134000000Y-123586420D01*
X190000000Y-117500000D02*
X190000000Y-123586420D01*
X134000000Y-123000000D02*
X190000000Y-123000000D01*
X134000000Y-123000000D02*
X190000000Y-123000000D01*
X134000000Y-123000000D02*
X135126504Y-122413579D01*
X134000000Y-123000000D02*
X135126504Y-123586421D01*
X190000000Y-123000000D02*
X188873496Y-123586421D01*
X190000000Y-123000000D02*
X188873496Y-122413579D01*
D10*
X192304819Y-82166665D02*
X192304819Y-81499999D01*
X192304819Y-81499999D02*
X193304819Y-81928570D01*
X193304819Y-81071427D02*
X193304819Y-80880951D01*
X193304819Y-80880951D02*
X193257200Y-80785713D01*
X193257200Y-80785713D02*
X193209580Y-80738094D01*
X193209580Y-80738094D02*
X193066723Y-80642856D01*
X193066723Y-80642856D02*
X192876247Y-80595237D01*
X192876247Y-80595237D02*
X192495295Y-80595237D01*
X192495295Y-80595237D02*
X192400057Y-80642856D01*
X192400057Y-80642856D02*
X192352438Y-80690475D01*
X192352438Y-80690475D02*
X192304819Y-80785713D01*
X192304819Y-80785713D02*
X192304819Y-80976189D01*
X192304819Y-80976189D02*
X192352438Y-81071427D01*
X192352438Y-81071427D02*
X192400057Y-81119046D01*
X192400057Y-81119046D02*
X192495295Y-81166665D01*
X192495295Y-81166665D02*
X192733390Y-81166665D01*
X192733390Y-81166665D02*
X192828628Y-81119046D01*
X192828628Y-81119046D02*
X192876247Y-81071427D01*
X192876247Y-81071427D02*
X192923866Y-80976189D01*
X192923866Y-80976189D02*
X192923866Y-80785713D01*
X192923866Y-80785713D02*
X192876247Y-80690475D01*
X192876247Y-80690475D02*
X192828628Y-80642856D01*
X192828628Y-80642856D02*
X192733390Y-80595237D01*
X193209580Y-80166665D02*
X193257200Y-80119046D01*
X193257200Y-80119046D02*
X193304819Y-80166665D01*
X193304819Y-80166665D02*
X193257200Y-80214284D01*
X193257200Y-80214284D02*
X193209580Y-80166665D01*
X193209580Y-80166665D02*
X193304819Y-80166665D01*
X192304819Y-79499999D02*
X192304819Y-79404761D01*
X192304819Y-79404761D02*
X192352438Y-79309523D01*
X192352438Y-79309523D02*
X192400057Y-79261904D01*
X192400057Y-79261904D02*
X192495295Y-79214285D01*
X192495295Y-79214285D02*
X192685771Y-79166666D01*
X192685771Y-79166666D02*
X192923866Y-79166666D01*
X192923866Y-79166666D02*
X193114342Y-79214285D01*
X193114342Y-79214285D02*
X193209580Y-79261904D01*
X193209580Y-79261904D02*
X193257200Y-79309523D01*
X193257200Y-79309523D02*
X193304819Y-79404761D01*
X193304819Y-79404761D02*
X193304819Y-79499999D01*
X193304819Y-79499999D02*
X193257200Y-79595237D01*
X193257200Y-79595237D02*
X193209580Y-79642856D01*
X193209580Y-79642856D02*
X193114342Y-79690475D01*
X193114342Y-79690475D02*
X192923866Y-79738094D01*
X192923866Y-79738094D02*
X192685771Y-79738094D01*
X192685771Y-79738094D02*
X192495295Y-79690475D01*
X192495295Y-79690475D02*
X192400057Y-79642856D01*
X192400057Y-79642856D02*
X192352438Y-79595237D01*
X192352438Y-79595237D02*
X192304819Y-79499999D01*
X192304819Y-78547618D02*
X192304819Y-78452380D01*
X192304819Y-78452380D02*
X192352438Y-78357142D01*
X192352438Y-78357142D02*
X192400057Y-78309523D01*
X192400057Y-78309523D02*
X192495295Y-78261904D01*
X192495295Y-78261904D02*
X192685771Y-78214285D01*
X192685771Y-78214285D02*
X192923866Y-78214285D01*
X192923866Y-78214285D02*
X193114342Y-78261904D01*
X193114342Y-78261904D02*
X193209580Y-78309523D01*
X193209580Y-78309523D02*
X193257200Y-78357142D01*
X193257200Y-78357142D02*
X193304819Y-78452380D01*
X193304819Y-78452380D02*
X193304819Y-78547618D01*
X193304819Y-78547618D02*
X193257200Y-78642856D01*
X193257200Y-78642856D02*
X193209580Y-78690475D01*
X193209580Y-78690475D02*
X193114342Y-78738094D01*
X193114342Y-78738094D02*
X192923866Y-78785713D01*
X192923866Y-78785713D02*
X192685771Y-78785713D01*
X192685771Y-78785713D02*
X192495295Y-78738094D01*
X192495295Y-78738094D02*
X192400057Y-78690475D01*
X192400057Y-78690475D02*
X192352438Y-78642856D01*
X192352438Y-78642856D02*
X192304819Y-78547618D01*
X192304819Y-77595237D02*
X192304819Y-77499999D01*
X192304819Y-77499999D02*
X192352438Y-77404761D01*
X192352438Y-77404761D02*
X192400057Y-77357142D01*
X192400057Y-77357142D02*
X192495295Y-77309523D01*
X192495295Y-77309523D02*
X192685771Y-77261904D01*
X192685771Y-77261904D02*
X192923866Y-77261904D01*
X192923866Y-77261904D02*
X193114342Y-77309523D01*
X193114342Y-77309523D02*
X193209580Y-77357142D01*
X193209580Y-77357142D02*
X193257200Y-77404761D01*
X193257200Y-77404761D02*
X193304819Y-77499999D01*
X193304819Y-77499999D02*
X193304819Y-77595237D01*
X193304819Y-77595237D02*
X193257200Y-77690475D01*
X193257200Y-77690475D02*
X193209580Y-77738094D01*
X193209580Y-77738094D02*
X193114342Y-77785713D01*
X193114342Y-77785713D02*
X192923866Y-77833332D01*
X192923866Y-77833332D02*
X192685771Y-77833332D01*
X192685771Y-77833332D02*
X192495295Y-77785713D01*
X192495295Y-77785713D02*
X192400057Y-77738094D01*
X192400057Y-77738094D02*
X192352438Y-77690475D01*
X192352438Y-77690475D02*
X192304819Y-77595237D01*
X192304819Y-76642856D02*
X192304819Y-76547618D01*
X192304819Y-76547618D02*
X192352438Y-76452380D01*
X192352438Y-76452380D02*
X192400057Y-76404761D01*
X192400057Y-76404761D02*
X192495295Y-76357142D01*
X192495295Y-76357142D02*
X192685771Y-76309523D01*
X192685771Y-76309523D02*
X192923866Y-76309523D01*
X192923866Y-76309523D02*
X193114342Y-76357142D01*
X193114342Y-76357142D02*
X193209580Y-76404761D01*
X193209580Y-76404761D02*
X193257200Y-76452380D01*
X193257200Y-76452380D02*
X193304819Y-76547618D01*
X193304819Y-76547618D02*
X193304819Y-76642856D01*
X193304819Y-76642856D02*
X193257200Y-76738094D01*
X193257200Y-76738094D02*
X193209580Y-76785713D01*
X193209580Y-76785713D02*
X193114342Y-76833332D01*
X193114342Y-76833332D02*
X192923866Y-76880951D01*
X192923866Y-76880951D02*
X192685771Y-76880951D01*
X192685771Y-76880951D02*
X192495295Y-76833332D01*
X192495295Y-76833332D02*
X192400057Y-76785713D01*
X192400057Y-76785713D02*
X192352438Y-76738094D01*
X192352438Y-76738094D02*
X192304819Y-76642856D01*
X193304819Y-75119046D02*
X192638152Y-75119046D01*
X192733390Y-75119046D02*
X192685771Y-75071427D01*
X192685771Y-75071427D02*
X192638152Y-74976189D01*
X192638152Y-74976189D02*
X192638152Y-74833332D01*
X192638152Y-74833332D02*
X192685771Y-74738094D01*
X192685771Y-74738094D02*
X192781009Y-74690475D01*
X192781009Y-74690475D02*
X193304819Y-74690475D01*
X192781009Y-74690475D02*
X192685771Y-74642856D01*
X192685771Y-74642856D02*
X192638152Y-74547618D01*
X192638152Y-74547618D02*
X192638152Y-74404761D01*
X192638152Y-74404761D02*
X192685771Y-74309522D01*
X192685771Y-74309522D02*
X192781009Y-74261903D01*
X192781009Y-74261903D02*
X193304819Y-74261903D01*
X193304819Y-73785713D02*
X192638152Y-73785713D01*
X192733390Y-73785713D02*
X192685771Y-73738094D01*
X192685771Y-73738094D02*
X192638152Y-73642856D01*
X192638152Y-73642856D02*
X192638152Y-73499999D01*
X192638152Y-73499999D02*
X192685771Y-73404761D01*
X192685771Y-73404761D02*
X192781009Y-73357142D01*
X192781009Y-73357142D02*
X193304819Y-73357142D01*
X192781009Y-73357142D02*
X192685771Y-73309523D01*
X192685771Y-73309523D02*
X192638152Y-73214285D01*
X192638152Y-73214285D02*
X192638152Y-73071428D01*
X192638152Y-73071428D02*
X192685771Y-72976189D01*
X192685771Y-72976189D02*
X192781009Y-72928570D01*
X192781009Y-72928570D02*
X193304819Y-72928570D01*
D11*
X190500000Y-38000000D02*
X194586420Y-38000000D01*
X190500000Y-117000000D02*
X194586420Y-117000000D01*
X194000000Y-38000000D02*
X194000000Y-117000000D01*
X194000000Y-38000000D02*
X194000000Y-117000000D01*
X194000000Y-38000000D02*
X194586421Y-39126504D01*
X194000000Y-38000000D02*
X193413579Y-39126504D01*
X194000000Y-117000000D02*
X193413579Y-115873496D01*
X194000000Y-117000000D02*
X194586421Y-115873496D01*
G36*
X189943039Y-38019685D02*
G01*
X189988794Y-38072489D01*
X190000000Y-38124000D01*
X190000000Y-116876000D01*
X189980315Y-116943039D01*
X189927511Y-116988794D01*
X189876000Y-117000000D01*
X134124000Y-117000000D01*
X134056961Y-116980315D01*
X134011206Y-116927511D01*
X134000000Y-116876000D01*
X134000000Y-38124000D01*
X134019685Y-38056961D01*
X134072489Y-38011206D01*
X134124000Y-38000000D01*
X189876000Y-38000000D01*
X189943039Y-38019685D01*
G37*
M02*
