0
SECTION
2
HEADER
9
$INSUNITS
70
4
9
$ACADVER
1
AC1014
9
$HANDSEED
5
FFFF
0
ENDSEC
0
SECTION
2
TABLES
0
TABLE
2
VPORT
5
8
100
AcDbSymbolTable
0
ENDTAB
0
TABLE
2
LTYPE
5
5
100
AcDbSymbolTable
0
LTYPE
5
14
100
AcDbSymbolTableRecord
100
AcDbLinetypeTableRecord
2
BYBLOCK
70
0
0
LTYPE
5
15
100
AcDbSymbolTableRecord
100
AcDbLinetypeTableRecord
2
BYLAYER
70
0
0
ENDTAB
0
TABLE
2
LAYER
5
2
100
AcDbSymbolTable
70
2
0
LAYER
5
50
100
AcDbSymbolTableRecord
100
AcDbLayerTableRecord
2
0
70
0
6
CONTINUOUS
0
ENDTAB
0
TABLE
2
STYLE
5
3
100
AcDbSymbolTable
70
1
0
STYLE
5
11
100
AcDbSymbolTableRecord
100
AcDbTextStyleTableRecord
2
STANDARD
70
0
0
ENDTAB
0
TABLE
2
VIEW
5
6
100
AcDbSymbolTable
70
0
0
ENDTAB
0
TABLE
2
UCS
5
7
100
AcDbSymbolTable
70
0
0
ENDTAB
0
TABLE
2
APPID
5
9
100
AcDbSymbolTable
70
2
0
APPID
5
12
100
AcDbSymbolTableRecord
100
AcDbRegAppTableRecord
2
ACAD
70
0
0
ENDTAB
0
TABLE
2
DIMSTYLE
5
A
100
AcDbSymbolTable
70
1
0
ENDTAB
0
TABLE
2
BLOCK_RECORD
5
1
100
AcDbSymbolTable
70
1
0
BLOCK_RECORD
5
1F
100
AcDbSymbolTableRecord
100
AcDbBlockTableRecord
2
*MODEL_SPACE
0
BLOCK_RECORD
5
1B
100
AcDbSymbolTableRecord
100
AcDbBlockTableRecord
2
*PAPER_SPACE
0
ENDTAB
0
ENDSEC
0
SECTION
2
BLOCKS
0
BLOCK
5
20
100
AcDbEntity
100
AcDbBlockBegin
2
*MODEL_SPACE
0
ENDBLK
5
21
100
AcDbEntity
100
AcDbBlockEnd
0
BLOCK
5
1C
100
AcDbEntity
100
AcDbBlockBegin
2
*PAPER_SPACE
0
ENDBLK
5
1D
100
AcDbEntity
100
AcDbBlockEnd
0
ENDSEC
0
SECTION
2
ENTITIES
0
LWPOLYLINE
5
100
100
AcDbEntity
8
0
100
AcDbPolyline
90
8
70
1
43
0.0
10
-38.94700000149755
20
-38.71300072479243
42
0.41421356237309503
10
-34.957000001497548
20
-42.703000724792432
10
35.040999998502457
20
-42.703000724792339
42
0.41421356237309503
10
39.030999998502452
20
-38.713000724792337
10
39.030999998502402
20
-3.7670007247923332
42
0.41421356237309503
10
35.040999998502407
20
0.22299927520766261
10
-34.957000001497597
20
0.22299927520757379
42
0.41421356237309503
10
-38.947000001497599
20
-3.7670007247924309
0
CIRCLE
5
101
100
AcDbEntity
8
0
100
AcDbCircle
10
-35.093999998502412
20
-3.4600007247923359
30
-1.3351433469921403e-06
40
2.0955000000000004
210
9.9673048912186686e-25
220
-2.4379257970955038e-23
230
-1
0
CIRCLE
5
102
100
AcDbEntity
8
0
100
AcDbCircle
10
35.010000001497552
20
-39.020000724792432
30
-1.3351433469921405e-06
40
2.0955000000000004
210
9.9673048912186686e-25
220
-2.4379257970955038e-23
230
-1
0
CIRCLE
5
103
100
AcDbEntity
8
0
100
AcDbCircle
10
-35.093999998502454
20
-39.020000724792339
30
-1.3351433469921403e-06
40
2.0955000000000004
210
9.9673048912186686e-25
220
-2.4379257970955038e-23
230
-1
0
CIRCLE
5
104
100
AcDbEntity
8
0
100
AcDbCircle
10
35.010000001497595
20
-3.4600007247924247
30
-1.3351433469921403e-06
40
2.0955000000000004
210
9.9673048912186686e-25
220
-2.4379257970955038e-23
230
-1
0
CIRCLE
5
105
100
AcDbEntity
8
0
100
AcDbCircle
10
16.430999998502429
20
-21.377000724792442
30
0
40
3.25
210
0
220
0
230
1
0
LWPOLYLINE
5
106
100
AcDbEntity
8
0
100
AcDbPolyline
90
4
70
1
43
0.0
10
-17.847000001497491
20
-11.677000724792402
10
-9.8470000014974897
20
-11.677000724792402
10
-9.8470000014974897
20
-16.1770007247924
10
-9.8470000014974897
20
-11.677000724792402
0
LWPOLYLINE
5
107
100
AcDbEntity
8
0
100
AcDbPolyline
90
4
70
1
43
0.0
10
-9.8470000014974897
20
-16.1770007247924
10
-17.847000001497491
20
-16.1770007247924
10
-17.847000001497491
20
-11.677000724792402
10
-9.8470000014974897
20
-11.677000724792402
0
LWPOLYLINE
5
108
100
AcDbEntity
8
0
100
AcDbPolyline
90
8
70
1
43
0.0
10
-34.947000001497599
20
0.22299927520757379
10
35.030999998502395
20
0.2229992752076615
42
-0.41421356237309431
10
39.030999998502402
20
-3.7770007247923276
10
39.030999998502459
20
-38.703000724792332
42
-0.41421356237309537
10
35.030999998502466
20
-42.703000724792339
10
-34.94700000149755
20
-42.703000724792432
42
-0.41421356237309664
10
-38.94700000149755
20
-38.703000724792439
10
-38.947000001497592
20
-3.777000724792432
42
-0.41421356237309476
0
CIRCLE
5
109
100
AcDbEntity
8
0
100
AcDbCircle
10
-35.010000001497595
20
-3.4600007247924247
30
1.3351433469921403e-06
40
2.0955000000000017
210
0
220
0
230
1
0
CIRCLE
5
110
100
AcDbEntity
8
0
100
AcDbCircle
10
-35.010000001497552
20
-39.020000724792432
30
1.3351433469921414e-06
40
2.0955000000000013
210
0
220
0
230
1
0
CIRCLE
5
111
100
AcDbEntity
8
0
100
AcDbCircle
10
35.093999998502454
20
-39.020000724792339
30
1.3351433469921414e-06
40
2.0955000000000013
210
0
220
0
230
1
0
CIRCLE
5
112
100
AcDbEntity
8
0
100
AcDbCircle
10
35.093999998502412
20
-3.4600007247923359
30
1.3351433469921403e-06
40
2.0955000000000004
210
0
220
0
230
1
0
LWPOLYLINE
5
113
100
AcDbEntity
8
0
100
AcDbPolyline
90
4
70
1
43
0.0
10
-9.8470000014974897
20
-16.1770007247924
10
-17.847000001497491
20
-16.1770007247924
10
-17.847000001497491
20
-11.677000724792402
10
-17.847000001497491
20
-16.1770007247924
0
CIRCLE
5
114
100
AcDbEntity
8
0
100
AcDbCircle
10
16.430999998502429
20
-21.377000724792442
30
0
40
3.2500000000000009
210
0
220
0
230
1
0
ENDSEC
0
SECTION
2
OBJECTS
0
DICTIONARY
5
C
100
AcDbDictionary
3
ACAD_GROUP
350
D
3
ACAD_MLINESTYLE
350
17
0
DICTIONARY
5
D
100
AcDbDictionary
0
DICTIONARY
5
1A
330
C
100
AcDbDictionary
0
DICTIONARY
5
17
100
AcDbDictionary
0
ENDSEC
0
EOF
